<svg width="40" height="39" viewBox="0 0 40 39" fill="none" xmlns="http://www.w3.org/2000/svg">
<circle cx="19.9698" cy="19.3946" r="18.6319" stroke="white"/>
<path d="M12.8975 18.4014H14.1191C14.8867 18.3896 15.4902 18.1875 15.9297 17.7949C16.3691 17.4023 16.5889 16.8721 16.5889 16.2041C16.5889 14.7041 15.8418 13.9541 14.3477 13.9541C13.6445 13.9541 13.082 14.1562 12.6602 14.5605C12.2441 14.959 12.0361 15.4893 12.0361 16.1514H10.4102C10.4102 15.1377 10.7793 14.2969 11.5176 13.6289C12.2617 12.9551 13.2051 12.6182 14.3477 12.6182C15.5547 12.6182 16.501 12.9375 17.1865 13.5762C17.8721 14.2148 18.2148 15.1025 18.2148 16.2393C18.2148 16.7959 18.0332 17.335 17.6699 17.8564C17.3125 18.3779 16.8232 18.7676 16.2021 19.0254C16.9053 19.248 17.4473 19.6172 17.8281 20.1328C18.2148 20.6484 18.4082 21.2783 18.4082 22.0225C18.4082 23.1709 18.0332 24.082 17.2832 24.7559C16.5332 25.4297 15.5576 25.7666 14.3564 25.7666C13.1553 25.7666 12.1768 25.4414 11.4209 24.791C10.6709 24.1406 10.2959 23.2822 10.2959 22.2158H11.9307C11.9307 22.8896 12.1504 23.4287 12.5898 23.833C13.0293 24.2373 13.6182 24.4395 14.3564 24.4395C15.1416 24.4395 15.7422 24.2344 16.1582 23.8242C16.5742 23.4141 16.7822 22.8252 16.7822 22.0576C16.7822 21.3135 16.5537 20.7422 16.0967 20.3438C15.6396 19.9453 14.9805 19.7402 14.1191 19.7285H12.8975V18.4014ZM25.4658 18.7266H29.0342V20.2646H25.4658V24.3076H23.8311V20.2646H20.2627V18.7266H23.8311V14.9912H25.4658V18.7266Z" fill="white"/>
</svg>
