<svg width="290" height="270" viewBox="0 0 290 270" fill="none" xmlns="http://www.w3.org/2000/svg">
<path d="M124.189 66.0846C117.735 102.463 104.612 109.297 47.3814 110.429C56.063 120.754 69.5827 135.221 65.9545 147.772C63.2519 157.121 48.6279 169.572 36.1195 177.041C51.0782 176.815 65.9719 174.244 77.229 184.568C82.3125 189.23 81.3217 213.774 74.2894 227.729C98.1267 210.511 120.265 203.202 129.377 201.504C138.489 199.805 163.858 208.916 173.48 215.728C177.202 204.18 176.322 192.158 191.813 183.214C209.058 173.258 234.301 173.687 249.754 176.887C240.123 168.347 230.595 151.289 230.677 141.149C230.759 131.009 248.093 111.412 261.137 104.87C244.801 106.138 224.754 104.983 215.841 95.1677C208.238 86.7938 201.657 69.4241 201.217 58.767C189.757 77.6367 174.764 84.5251 161.16 86.5743C144.857 89.0301 128.707 73.9099 124.189 66.0846Z" fill="white" stroke="#2E2E33" stroke-width="3.70103" stroke-linecap="round" stroke-linejoin="round"/>
<circle cx="76.3255" cy="117.266" r="1.85052" transform="rotate(-46.8166 76.3255 117.266)" fill="#2E2E33" stroke="#2E2E33" stroke-width="2.88492"/>
<path d="M76.5616 117.015C83.3056 109.829 82.9474 98.5367 75.7616 91.7927C68.5758 85.0487 57.2835 85.4069 50.5396 92.5927" stroke="#2E2E33" stroke-width="3.70103" stroke-linecap="round"/>
<path d="M114.441 175.558L123.435 172.358L124.849 176.332L110.688 181.371L103.061 159.938L108.228 158.099L114.441 175.558ZM137.692 161.529L129.566 164.421L131.384 169.529L140.982 166.114L142.396 170.088L127.631 175.342L120.004 153.909L134.798 148.644L136.218 152.634L126.591 156.06L128.199 160.579L136.325 157.687L137.692 161.529ZM156.017 145.588L149.584 147.878L155.791 165.322L150.624 167.16L144.417 149.716L138.102 151.963L136.682 147.974L154.597 141.599L156.017 145.588ZM179.103 145.45C179.847 147.541 180.117 149.528 179.915 151.414C179.712 153.299 179.05 154.933 177.928 156.317C176.812 157.687 175.342 158.697 173.516 159.346C171.691 159.996 169.923 160.155 168.213 159.823C166.5 159.482 164.968 158.673 163.618 157.395C162.277 156.114 161.228 154.47 160.469 152.462L160.039 151.255C159.292 149.155 159.017 147.169 159.213 145.297C159.415 143.412 160.078 141.777 161.2 140.394C162.332 139.007 163.815 137.987 165.65 137.334C167.466 136.688 169.239 136.544 170.969 136.901C172.699 137.258 174.242 138.097 175.596 139.417C176.957 140.724 178.009 142.407 178.752 144.464L179.103 145.45ZM173.528 146.422C172.77 144.293 171.837 142.806 170.73 141.962C169.629 141.104 168.416 140.911 167.091 141.383C164.5 142.304 163.822 144.735 165.058 148.673L165.604 150.254C166.351 152.354 167.274 153.844 168.372 154.725C169.471 155.606 170.707 155.801 172.081 155.313C173.386 154.848 174.195 153.936 174.507 152.575C174.819 151.215 174.609 149.493 173.879 147.409L173.528 146.422ZM185.186 130.714L195.277 143.924L194.74 127.315L201.541 124.895L209.168 146.328L203.986 148.172L202.205 143.167L199.06 132.743L199.305 149.838L195.889 151.053L185.261 137.637L189.413 147.719L191.194 152.724L186.027 154.563L178.4 133.129L185.186 130.714Z" fill="#0EC645"/>
<path d="M108.499 137.17C108.963 138.897 108.801 140.439 108.013 141.799C107.232 143.155 105.925 144.153 104.09 144.792C102.084 145.49 100.269 145.367 98.6464 144.422C97.0283 143.466 95.8087 141.81 94.9878 139.453L94.6547 138.496C94.1307 136.991 93.9342 135.573 94.0652 134.242C94.1962 132.911 94.6465 131.77 95.4161 130.819C96.1904 129.858 97.2296 129.151 98.5338 128.697C100.34 128.068 101.963 128.045 103.403 128.628C104.843 129.211 105.954 130.347 106.735 132.036L103.51 133.159C103.08 132.176 102.542 131.543 101.898 131.262C101.258 130.97 100.443 130.997 99.4545 131.341C98.3797 131.715 97.7083 132.383 97.4403 133.344C97.1771 134.295 97.3202 135.583 97.8698 137.208L98.2815 138.39C98.8704 140.081 99.5552 141.229 100.336 141.833C101.124 142.434 102.07 142.543 103.173 142.158C104.169 141.811 104.832 141.327 105.162 140.706C105.497 140.076 105.534 139.271 105.274 138.293L108.499 137.17ZM120.773 133.933L119.526 134.367L121.019 138.655L117.913 139.737L113.863 128.107L116.97 127.026L118.493 131.4L119.6 131.015L120.613 125.757L124.537 124.391L122.659 131.251L128.941 135.897L124.803 137.338L120.773 133.933ZM126.943 129.952C126.541 128.798 126.406 127.693 126.535 126.635C126.665 125.578 127.06 124.657 127.719 123.873C128.385 123.087 129.27 122.501 130.373 122.117C131.943 121.571 133.389 121.605 134.712 122.221C136.043 122.835 137.052 123.945 137.741 125.553L138.039 126.341C138.66 128.126 138.661 129.732 138.042 131.161C137.42 132.583 136.271 133.586 134.594 134.169C132.918 134.753 131.39 134.682 130.013 133.957C128.643 133.229 127.636 131.941 126.992 130.092L126.943 129.952ZM130.128 129.096C130.512 130.2 131.015 130.973 131.635 131.416C132.253 131.851 132.948 131.934 133.722 131.665C134.475 131.403 134.962 130.912 135.186 130.191C135.406 129.464 135.296 128.466 134.854 127.197C134.477 126.115 133.974 125.351 133.344 124.903C132.714 124.455 132.016 124.365 131.249 124.632C130.49 124.897 130.006 125.399 129.797 126.138C129.586 126.87 129.696 127.856 130.128 129.096ZM140.451 129.081C140.894 128.091 141.113 127.187 141.11 126.369C141.106 125.551 140.885 124.466 140.447 123.117L139.208 119.282L147.764 116.302L150.942 125.428L152.619 124.844L154.707 130.842L151.601 131.923L150.384 128.43L143.495 130.829L144.711 134.322L141.54 135.427L139.452 129.429L140.451 129.081ZM144.116 127.804L147.846 126.506L145.563 119.949L143.145 120.791L143.61 122.196C144.289 124.354 144.458 126.223 144.116 127.804ZM152.525 121.044C152.123 119.89 151.987 118.785 152.117 117.727C152.247 116.67 152.641 115.749 153.3 114.965C153.966 114.179 154.851 113.593 155.955 113.209C157.524 112.663 158.97 112.697 160.294 113.313C161.624 113.927 162.633 115.037 163.322 116.645L163.62 117.433C164.242 119.218 164.243 120.824 163.624 122.253C163.002 123.675 161.853 124.678 160.176 125.261C158.499 125.845 156.972 125.774 155.594 125.049C154.224 124.321 153.217 123.033 152.573 121.184L152.525 121.044ZM155.71 120.188C156.094 121.292 156.596 122.065 157.216 122.508C157.834 122.943 158.53 123.026 159.304 122.757C160.056 122.495 160.544 122.004 160.767 121.283C160.988 120.556 160.877 119.558 160.436 118.289C160.059 117.207 159.555 116.443 158.926 115.995C158.296 115.547 157.597 115.457 156.831 115.724C156.071 115.989 155.587 116.491 155.379 117.23C155.168 117.962 155.278 118.948 155.71 120.188ZM173.324 116.332L173.593 107.308L177.484 105.953L181.533 117.583L178.427 118.665L175.942 111.528L175.643 119.634L173.558 120.36L168.384 114.292L170.828 121.311L167.722 122.393L163.672 110.763L167.531 109.419L173.324 116.332ZM183.861 115.061C183.689 114.567 183.714 114.108 183.936 113.685C184.166 113.26 184.531 112.96 185.033 112.785C185.542 112.608 186.015 112.616 186.451 112.809C186.896 113 187.204 113.343 187.376 113.837C187.546 114.325 187.519 114.78 187.297 115.203C187.072 115.618 186.702 115.916 186.186 116.096C185.677 116.273 185.205 116.268 184.771 116.082C184.334 115.889 184.031 115.549 183.861 115.061ZM180.796 106.258C180.624 105.764 180.649 105.305 180.871 104.882C181.1 104.457 181.466 104.157 181.968 103.982C182.476 103.805 182.949 103.813 183.386 104.006C183.83 104.197 184.138 104.54 184.31 105.034C184.48 105.522 184.454 105.977 184.231 106.4C184.007 106.815 183.636 107.113 183.12 107.293C182.612 107.47 182.14 107.465 181.706 107.279C181.269 107.086 180.965 106.745 180.796 106.258Z" fill="#2E2E33"/>
</svg>
