<svg width="125" height="41" viewBox="0 0 125 41" fill="none" xmlns="http://www.w3.org/2000/svg">
<path fill-rule="evenodd" clip-rule="evenodd" d="M22.2232 31.7012C22.157 31.082 22.5337 28.0344 22.5337 28.0344C22.5337 28.0344 23.2907 28.1609 24.0212 28.2414C24.7517 28.3218 25.927 28.3856 25.927 28.3856C25.927 28.3856 25.2933 30.6722 25.6613 31.1942C26.512 32.4006 31.1616 35.38 32.2277 36.5758C32.7636 37.1075 33.3077 37.6233 33.9735 38.0878C34.444 38.4868 35.9625 38.5326 36.3619 38.9315C36.6289 39.2197 36.9556 40.0596 36.7917 40.2115C36.6798 40.3152 34.3787 40.3655 33.9735 40.2929C33.5342 40.2929 33.0082 39.8706 33.0082 39.8706C33.0082 39.8706 32.6815 40.2115 32.2277 39.9702C31.428 39.5729 31.5475 38.7529 31.0807 38.0878C30.8138 37.8222 26.9061 35.259 24.3881 33.8422C22.2279 32.6266 22.3239 32.6441 22.2232 31.7012ZM6.68511 23.8118C6.21693 23.3967 4.48717 24.8736 3.99268 24.7671C3.4982 24.6606 3.98184 23.4406 3.54378 23.5149C2.94976 23.6157 2.79131 25.0024 2.25777 25.1101C1.39733 25.4327 0.908203 24.1476 0.908203 22.6136C0.908203 21.0796 1.45523 19.408 3.31838 18.3377C5.18154 17.2674 7.9406 16.9947 10.0814 17.7111C12.113 16.6264 14.7858 13.478 20.7387 13.3309C26.6916 13.1837 28.9204 16.1509 30.1857 15.4405C31.451 14.7301 31.8793 13.1283 31.6041 11.9316C31.0768 9.63958 30.054 8.39329 29.2355 6.35228C28.7215 5.07163 28.6934 3.38001 29.3408 2.13946C29.6312 1.58845 30.3366 0.945727 31.4003 0.827198C32.464 0.708669 32.7441 1.60037 33.4886 1.84362C34.233 2.08686 35.8242 2.23659 35.9485 2.80247C36.0728 3.36835 34.1635 3.81319 33.7307 3.76684C32.7169 3.65851 32.0773 4.33883 32.1322 5.54083C32.1977 7.06938 32.5579 7.6152 33.9705 9.791C35.383 11.9668 35.3701 15.5846 33.5661 18.1089C32.9972 18.8463 32.3916 19.4728 31.9902 20.3159C31.6667 20.9914 31.9902 19.6302 31.9902 22.3263C31.9902 25.0223 30.6277 26.3201 28.8472 26.8899C26.4502 27.6569 24.3803 27.37 22.2634 27.1211C19.3341 26.7767 17.0419 26.817 15.8455 27.1211C14.8088 27.3857 11.5638 29.2121 11.1645 30.0621C10.9525 30.5209 9.80728 35.2964 9.59741 36.3453C9.51158 36.777 9.55994 37.6366 9.3595 38.0193C9.14021 38.4443 6.46999 40.124 5.56352 40.4687C5.14588 40.6281 4.30254 40.8318 4.20238 40.6858C3.61157 40.0075 3.61363 39.8504 5.33044 38.6141C4.73078 37.3733 6.4609 37.0703 6.96961 36.4584C7.5249 35.7928 8.53211 28.5461 8.8774 27.6024C9.22268 26.6586 10.5705 26.3337 11.1169 25.4942C10.8584 25.1964 10.5004 25.3554 9.55366 25.6199C8.7414 25.8481 7.04517 26.4511 6.68511 26.1496C6.32505 25.8481 7.15329 24.2268 6.68511 23.8118Z" fill="white"/>
<path fill-rule="evenodd" clip-rule="evenodd" d="M53.3766 19.5356H47.8728V5.51653H53.3558C57.7129 5.51653 60.7358 8.31195 60.7358 12.5156C60.7358 16.7612 57.7129 19.5356 53.3766 19.5356ZM53.3558 16.9084C56.1076 16.9084 57.7129 14.9116 57.7129 12.5156C57.7129 10.0565 56.2119 8.1438 53.3766 8.1438H50.8332V16.9084H53.3558ZM67.5113 19.7879C64.4467 19.7879 62.1326 17.7071 62.1326 14.4492C62.1326 11.5067 64.3008 9.13165 67.3445 9.13165C70.3674 9.13165 72.3896 11.4016 72.3896 14.7015V15.332H64.9053C65.093 16.5721 66.0937 17.602 67.8032 17.602C68.6579 17.602 69.8254 17.2447 70.4716 16.6141L71.66 18.3796C70.6593 19.3044 69.0749 19.7879 67.5113 19.7879ZM69.8462 13.4824C69.7628 12.5156 69.0957 11.3175 67.3445 11.3175C65.6975 11.3175 64.9887 12.4735 64.8845 13.4824H69.8462ZM77.1429 19.7879C75.2875 19.7879 74.3076 18.821 74.3076 16.9924V5.51653H76.9553V16.2778C76.9553 16.9294 77.2888 17.4128 77.8726 17.4128C78.2687 17.4128 78.6439 17.2657 78.7899 17.0975L79.3527 19.1363C78.9566 19.4936 78.227 19.7879 77.1429 19.7879ZM81.8336 8.29093C80.9789 8.29093 80.27 7.57631 80.27 6.69355C80.27 5.81079 80.9789 5.11719 81.8336 5.11719C82.7092 5.11719 83.418 5.81079 83.418 6.69355C83.418 7.57631 82.7092 8.29093 81.8336 8.29093ZM83.1679 19.5356H80.5202V9.38387H83.1679V19.5356ZM91.2567 19.5356H88.4006L84.3562 9.38387H87.1914L89.8182 16.446L92.4659 9.38387H95.3012L91.2567 19.5356ZM101.222 19.7879C98.1573 19.7879 95.8432 17.7071 95.8432 14.4492C95.8432 11.5067 98.0113 9.13165 101.055 9.13165C104.078 9.13165 106.1 11.4016 106.1 14.7015V15.332H98.6159C98.8036 16.5721 99.8042 17.602 101.514 17.602C102.369 17.602 103.536 17.2447 104.182 16.6141L105.371 18.3796C104.37 19.3044 102.785 19.7879 101.222 19.7879ZM103.557 13.4824C103.473 12.5156 102.806 11.3175 101.055 11.3175C99.4081 11.3175 98.6993 12.4735 98.5951 13.4824H103.557ZM110.666 19.5356H108.018V9.38387H110.666V10.75C111.396 9.86729 112.626 9.13165 113.876 9.13165V11.7379C113.689 11.6959 113.459 11.6748 113.147 11.6748C112.271 11.6748 111.104 12.1793 110.666 12.8308V19.5356ZM119.609 23.6552C117.921 23.6552 116.566 23.1718 115.398 22.1419L116.587 20.2292C117.316 21.112 118.546 21.4693 119.609 21.4693C121.319 21.4693 122.32 20.2923 122.32 18.8631V17.8121C121.632 18.5688 120.423 19.3465 118.776 19.3465C116.566 19.3465 115.523 18.1274 115.523 16.1517V9.38387H118.171V15.1008C118.171 16.509 118.901 16.9714 120.026 16.9714C121.048 16.9714 121.861 16.4039 122.32 15.8154V9.38387H124.967V18.8631C124.967 21.9107 122.82 23.6552 119.609 23.6552ZM54.3925 38.8953C50.2021 38.8953 46.9707 35.9527 46.9707 31.644C46.9707 27.3143 50.2021 24.3927 54.3925 24.3927C57.4362 24.3927 59.2083 26.0532 60.1881 27.8187L57.6447 29.0798C57.0609 27.9448 55.8101 27.041 54.3925 27.041C51.849 27.041 50.0145 28.9957 50.0145 31.644C50.0145 34.2923 51.849 36.247 54.3925 36.247C55.8101 36.247 57.0609 35.3432 57.6447 34.2082L60.1881 35.4483C59.2083 37.1928 57.4362 38.8953 54.3925 38.8953ZM64.9679 38.8953C63.1124 38.8953 62.1326 37.9284 62.1326 36.0998V24.6239H64.7803V35.3852C64.7803 36.0368 65.1138 36.5202 65.6975 36.5202C66.0937 36.5202 66.4689 36.3731 66.6148 36.2049L67.1777 38.2437C66.7816 38.601 66.052 38.8953 64.9679 38.8953ZM77.7892 38.643H75.1415V37.3609C74.4535 38.1176 73.2444 38.8953 71.5974 38.8953C69.3876 38.8953 68.3452 37.6762 68.3452 35.7005V28.4913H70.9928V34.6496C70.9928 36.0578 71.7225 36.5202 72.8483 36.5202C73.8698 36.5202 74.6829 35.9527 75.1415 35.3642V28.4913H77.7892V38.643ZM83.0636 35.3852C83.5223 36.0368 84.4813 36.5202 85.3569 36.5202C86.8787 36.5202 87.9003 35.3222 87.9003 33.5566C87.9003 31.8121 86.8787 30.6141 85.3569 30.6141C84.4813 30.6141 83.5223 31.1185 83.0636 31.7911V35.3852ZM83.0636 38.643H80.416V24.6239H83.0636V29.7944C83.8558 28.7435 84.9816 28.2391 86.1699 28.2391C88.7342 28.2391 90.6313 30.2568 90.6313 33.5566C90.6313 36.9616 88.7133 38.8953 86.1699 38.8953C84.9607 38.8953 83.8558 38.3488 83.0636 37.3399V38.643Z" fill="white"/>
</svg>
