<svg width="233" height="75" viewBox="0 0 233 75" fill="none" xmlns="http://www.w3.org/2000/svg">
<path fill-rule="evenodd" clip-rule="evenodd" d="M40.6908 58.0018C40.5673 56.8458 41.2705 51.1563 41.2705 51.1563C41.2705 51.1563 42.6838 51.3924 44.0475 51.5426C45.4113 51.6929 47.6054 51.8119 47.6054 51.8119C47.6054 51.8119 46.4223 56.0808 47.1094 57.0552C48.6975 59.3074 57.3778 64.8696 59.368 67.102C60.3685 68.0947 61.3843 69.0575 62.6271 69.9248C63.5055 70.6695 66.3405 70.7551 67.086 71.4999C67.5845 72.0379 68.1944 73.6057 67.8884 73.8894C67.6796 74.0829 63.3836 74.1768 62.6271 74.0413C61.8071 74.0413 60.8251 73.2529 60.8251 73.2529C60.8251 73.2529 60.2151 73.8894 59.368 73.439C57.8751 72.6971 58.0982 71.1664 57.2267 69.9248C56.7284 69.4289 49.4333 64.6437 44.7325 61.9986C40.6996 59.7293 40.8788 59.762 40.6908 58.0018ZM11.6832 43.2732C10.8092 42.4983 7.57992 45.2554 6.65677 45.0566C5.73363 44.8578 6.63652 42.5802 5.81873 42.719C4.70978 42.9072 4.41397 45.4959 3.41792 45.697C1.81158 46.2991 0.898438 43.9 0.898438 41.0363C0.898438 38.1725 1.91966 35.0519 5.39794 33.0538C8.87622 31.0556 14.027 30.5466 18.0237 31.884C21.8163 29.8589 26.8061 23.9814 37.9194 23.7066C49.0328 23.4319 53.1937 28.9713 55.5559 27.645C57.9181 26.3187 58.7176 23.3284 58.2037 21.0944C57.2193 16.8154 55.31 14.4888 53.7819 10.6785C52.8224 8.28766 52.7698 5.12961 53.9785 2.81367C54.5207 1.78501 55.8376 0.585114 57.8234 0.363836C59.8092 0.142558 60.3321 1.80726 61.7219 2.26136C63.1117 2.71547 66.0821 2.995 66.3142 4.05142C66.5462 5.10785 62.9819 5.93831 62.1739 5.85178C60.2813 5.64955 59.0872 6.91961 59.1898 9.1636C59.3119 12.0172 59.9845 13.0362 62.6215 17.0981C65.2585 21.1601 65.2345 27.914 61.8666 32.6266C60.8045 34.0033 59.6739 35.1728 58.9245 36.7469C58.3207 38.0079 58.9245 35.4667 58.9245 40.4999C58.9245 45.5331 56.381 47.9559 53.0571 49.0196C48.5822 50.4516 44.7179 49.916 40.7658 49.4513C35.2973 48.8083 31.0181 48.8835 28.7846 49.4513C26.849 49.9452 20.7911 53.3549 20.0456 54.9417C19.6499 55.7982 17.5119 64.7135 17.1201 66.6717C16.9599 67.4777 17.0501 69.0823 16.6759 69.7969C16.2665 70.5903 11.2816 73.7259 9.58933 74.3696C8.80964 74.6671 7.23524 75.0474 7.04825 74.7749C5.94528 73.5085 5.94912 73.2152 9.15419 70.9073C8.03471 68.5908 11.2646 68.0252 12.2143 66.8828C13.251 65.6402 15.1313 52.1115 15.7759 50.3497C16.4205 48.5879 18.9367 47.9813 19.9567 46.414C19.4741 45.8581 18.8059 46.1549 17.0384 46.6488C15.522 47.0746 12.3554 48.2005 11.6832 47.6376C11.011 47.0746 12.5572 44.048 11.6832 43.2732Z" fill="#2E2E33"/>
<path fill-rule="evenodd" clip-rule="evenodd" d="M98.8487 35.2879H88.5738V9.11601H98.8097C106.944 9.11601 112.587 14.3347 112.587 22.1823C112.587 30.1085 106.944 35.2879 98.8487 35.2879ZM98.8097 30.3831C103.947 30.3831 106.944 26.6555 106.944 22.1823C106.944 17.5915 104.142 14.0208 98.8487 14.0208H94.1004V30.3831H98.8097ZM125.236 35.7588C119.515 35.7588 115.195 31.8742 115.195 25.7923C115.195 20.2989 119.243 15.865 124.925 15.865C130.568 15.865 134.344 20.1027 134.344 26.2631V27.4403H120.371C120.722 29.7553 122.59 31.678 125.781 31.678C127.377 31.678 129.556 31.0109 130.763 29.8338L132.981 33.1298C131.113 34.8563 128.155 35.7588 125.236 35.7588ZM129.595 23.9873C129.44 22.1823 128.194 19.9458 124.925 19.9458C121.85 19.9458 120.527 22.1039 120.332 23.9873H129.595ZM143.217 35.7588C139.753 35.7588 137.924 33.9538 137.924 30.5401V9.11601H142.867V29.206C142.867 30.4224 143.49 31.3248 144.58 31.3248C145.319 31.3248 146.02 31.0502 146.292 30.7363L147.343 34.5424C146.603 35.2094 145.241 35.7588 143.217 35.7588ZM151.974 14.2955C150.379 14.2955 149.055 12.9614 149.055 11.3134C149.055 9.66534 150.379 8.37048 151.974 8.37048C153.609 8.37048 154.932 9.66534 154.932 11.3134C154.932 12.9614 153.609 14.2955 151.974 14.2955ZM154.465 35.2879H149.522V16.3358H154.465V35.2879ZM169.566 35.2879H164.234L156.684 16.3358H161.977L166.881 29.5199L171.823 16.3358H177.117L169.566 35.2879ZM188.17 35.7588C182.449 35.7588 178.128 31.8742 178.128 25.7923C178.128 20.2989 182.176 15.865 187.858 15.865C193.502 15.865 197.277 20.1027 197.277 26.2631V27.4403H183.305C183.655 29.7553 185.523 31.678 188.715 31.678C190.31 31.678 192.49 31.0109 193.696 29.8338L195.915 33.1298C194.047 34.8563 191.089 35.7588 188.17 35.7588ZM192.529 23.9873C192.373 22.1823 191.128 19.9458 187.858 19.9458C184.784 19.9458 183.46 22.1039 183.266 23.9873H192.529ZM205.8 35.2879H200.858V16.3358H205.8V18.8863C207.163 17.2383 209.459 15.865 211.794 15.865V20.7305C211.444 20.652 211.016 20.6128 210.432 20.6128C208.797 20.6128 206.618 21.5545 205.8 22.7709V35.2879ZM222.497 42.9786C219.345 42.9786 216.815 42.0761 214.635 40.1535L216.854 36.5828C218.216 38.2308 220.512 38.8978 222.497 38.8978C225.689 38.8978 227.557 36.7005 227.557 34.0323V32.0704C226.272 33.483 224.015 34.9348 220.94 34.9348C216.815 34.9348 214.869 32.6589 214.869 28.9706V16.3358H219.812V27.0086C219.812 29.6376 221.174 30.5008 223.275 30.5008C225.183 30.5008 226.7 29.4414 227.557 28.3427V16.3358H232.5V34.0323C232.5 39.7218 228.491 42.9786 222.497 42.9786ZM100.745 71.4299C92.9222 71.4299 86.8896 65.9365 86.8896 57.8927C86.8896 49.8096 92.9222 44.3555 100.745 44.3555C106.427 44.3555 109.736 47.4553 111.565 50.7513L106.817 53.1056C105.727 50.9868 103.392 49.2995 100.745 49.2995C95.9969 49.2995 92.572 52.9487 92.572 57.8927C92.572 62.8367 95.9969 66.4859 100.745 66.4859C103.392 66.4859 105.727 64.7986 106.817 62.6798L111.565 64.9948C109.736 68.2516 106.427 71.4299 100.745 71.4299ZM120.488 71.4299C117.024 71.4299 115.195 69.6249 115.195 66.2112V44.7871H120.138V64.8771C120.138 66.0935 120.761 66.996 121.85 66.996C122.59 66.996 123.29 66.7213 123.563 66.4074L124.614 70.2135C123.874 70.8806 122.512 71.4299 120.488 71.4299ZM144.424 70.959H139.481V68.5655C138.197 69.9781 135.939 71.4299 132.865 71.4299C128.739 71.4299 126.793 69.1541 126.793 65.4657V52.007H131.736V63.5038C131.736 66.1327 133.098 66.996 135.2 66.996C137.107 66.996 138.625 65.9365 139.481 64.8379V52.007H144.424V70.959ZM154.271 64.8771C155.127 66.0935 156.917 66.996 158.552 66.996C161.393 66.996 163.3 64.7594 163.3 61.4634C163.3 58.2066 161.393 55.97 158.552 55.97C156.917 55.97 155.127 56.9117 154.271 58.1674V64.8771ZM154.271 70.959H149.328V44.7871H154.271V54.4397C155.75 52.4778 157.851 51.5361 160.07 51.5361C164.857 51.5361 168.398 55.303 168.398 61.4634C168.398 67.82 164.818 71.4299 160.07 71.4299C157.812 71.4299 155.75 70.4097 154.271 68.5263V70.959Z" fill="#2E2E33"/>
</svg>
