<svg width="616" height="270" viewBox="0 0 616 270" fill="none" xmlns="http://www.w3.org/2000/svg">
<path d="M613.093 44.7464L608.187 115.571C584.189 114.908 563.725 132.657 562.077 156.235C560.428 179.814 578.224 200.239 602.082 202.921L597.69 266.388L262.569 243.458L262.566 243.458L85.2806 231.061L85.2704 231.06L3.24286 224.517L8.15024 153.67C32.1483 154.333 52.6125 136.584 54.2613 113.006C55.9101 89.4268 38.1137 69.0021 14.2557 66.3197L18.6457 2.87508L100.651 9.41642L100.661 9.4172L100.67 9.41788L277.969 21.8158L277.972 21.816L613.093 44.7464Z" fill="white" stroke="#2E2E33" stroke-width="4"/>
<path d="M320.373 161.726L323.992 109.982L356.138 112.23L355.297 124.248L336.555 122.937L333.778 162.663L320.373 161.726Z" fill="#E30613"/>
<path d="M392.963 166.801L394.38 146.536L374.467 145.144L373.05 165.409L359.646 164.472L363.264 112.728L376.668 113.665L375.318 132.976L395.231 134.368L396.581 115.058L409.985 115.995L406.367 167.739L392.963 166.801Z" fill="#E30613"/>
<path d="M484.155 173.178L486.933 133.453L471.277 132.358L472.118 120.34L516.917 123.472L516.077 135.491L500.344 134.39L497.566 174.116L484.155 173.178Z" fill="#E30613"/>
<path d="M448.775 170.697L450.837 141.215L427.438 169.205L416.23 168.422L419.847 116.692L433.251 117.629L431.211 146.805L454.231 119.096L465.804 119.905L462.186 171.635L448.775 170.697Z" fill="#E30613"/>
<path d="M243.344 156.339L245.495 125.588L230.976 140.898L218.729 123.716L216.578 154.468L203.174 153.53L206.792 101.786L220.021 102.711L232.335 121.452L247.138 104.608L260.366 105.533L256.748 157.277L243.344 156.339Z" fill="#E30613"/>
<path d="M283.468 140.857L295.925 141.729L290.831 125.069L283.468 140.857ZM301.64 160.408L299.341 152.963L278.502 151.505L275.189 158.559L261.715 157.617L285.948 107.321L298.342 108.188L315.345 161.367L301.64 160.408Z" fill="#E30613"/>
<path d="M102.269 105.043C102.719 98.7944 105.587 92.9763 110.245 88.8622C114.902 84.7481 120.97 82.6733 127.12 83.092L180.688 86.8378L179.85 98.8204L126.296 95.0756C123.274 94.8774 120.294 95.9001 118.005 97.9213C115.716 99.9425 114.303 102.799 114.074 105.868L112.597 125.979C112.172 128.539 110.925 130.886 109.051 132.654C107.177 134.421 104.78 135.509 102.236 135.749L100.109 135.929L102.269 105.043Z" fill="#E30613"/>
<path d="M98.4755 159.331L99.3134 147.348L152.88 151.094C155.904 151.291 158.884 150.266 161.173 148.244C163.461 146.222 164.874 143.365 165.104 140.295L166.438 121.205C166.647 118.437 167.817 115.832 169.739 113.855C171.662 111.878 174.212 110.658 176.934 110.414L179.061 110.24L176.901 141.12C176.451 147.369 173.584 153.188 168.926 157.303C164.268 161.418 158.2 163.494 152.049 163.078L98.4755 159.331Z" fill="#E30613"/>
<path d="M145.488 139.146L146.572 123.656L138.993 131.643L132.606 122.679L131.523 138.169L122.271 137.522L124.403 107.042L133.164 107.654L139.948 117.978L148.104 108.699L156.864 109.312L154.733 139.792L145.488 139.146Z" fill="#E30613"/>
</svg>
