<svg width="615" height="269" viewBox="0 0 615 269" fill="none" xmlns="http://www.w3.org/2000/svg">
<path d="M612.314 44.0257L607.408 114.85C583.41 114.187 562.946 131.936 561.297 155.514C559.648 179.093 577.445 199.518 601.303 202.2L596.911 265.667L261.79 242.737L261.787 242.737L84.5013 230.34L84.4911 230.339L2.46357 223.796L7.37095 152.949C31.369 153.612 51.8332 135.864 53.482 112.285C55.1308 88.7061 37.3345 68.2814 13.4764 65.599L17.8665 2.15438L99.8717 8.69572L99.8814 8.69649L99.8912 8.69718L277.19 21.0951L277.193 21.0953L612.314 44.0257Z" fill="#C2092A" stroke="#2E2E33" stroke-width="4"/>
<path d="M325.688 114.206L341.593 114.721L338.134 164.178L349.926 165.003L353.385 115.546L369.207 117.249L369.663 110.717L326.145 107.674L325.688 114.206Z" fill="white"/>
<path d="M486.817 118.909L482.944 174.304L494.735 175.129L498.194 125.672L516.476 127.547L516.933 121.015L486.817 118.909Z" fill="white"/>
<path d="M186.272 136.68L188.971 98.0819L177.18 97.2573L173.306 152.653L179.584 153.092L211.974 116.569L209.275 155.168L221.066 155.992L224.94 100.597L218.663 100.158L186.272 136.68Z" fill="white"/>
<path d="M324.729 129.142C324.729 129.142 320.469 129.1 314.612 129.969L307.906 106.399L297.132 105.645L272.22 159.569L278.074 159.979C285.091 148.62 301.919 138.374 312.397 136.038C313.178 135.836 313.391 136.448 312.592 136.904C302.433 141.99 292.276 148.27 287.469 154.839C291.995 154.729 298.458 153.732 304.942 150.008C316.94 143.004 324.729 129.142 324.729 129.142ZM296.729 135.794C292.909 137.999 289.999 140.609 287.688 143.175L298.677 117.688L299.016 117.712L303.068 132.913C300.882 133.698 298.769 134.658 296.729 135.794Z" fill="white"/>
<path d="M307.92 151.324L310.82 162.268L324.054 163.194L318.517 143.626C315.021 147.303 310.396 150.048 307.92 151.324Z" fill="white"/>
<path d="M399.71 111.369C384.271 110.289 370.751 120.767 369.511 138.497C368.307 155.718 378.165 168.342 395.641 169.564C411.08 170.643 424.557 159.566 425.755 142.43C427.079 124.706 417.186 112.591 399.71 111.369ZM395.991 164.559C385.556 163.829 381.474 152.717 382.406 139.399C383.331 126.165 389.944 115.716 399.36 116.374C409.794 117.104 413.877 128.216 412.945 141.534C412.099 154.859 405.492 165.223 395.991 164.559Z" fill="white"/>
<path d="M151.731 95.4774L131.414 131.224L117.289 93.069L108.551 92.458L97.8061 147.373L104.338 147.83L111.438 110.903L124.337 147.097L129.088 147.429L149.108 112.258L150.572 151.063L162.363 151.887L160.214 96.0706L151.731 95.4774Z" fill="white"/>
<path d="M454.496 116.649L437.784 115.48L433.911 170.876L445.702 171.7L447.031 152.698C448.376 152.963 450.067 153.166 452.188 153.314C466.016 154.281 474.747 146.452 475.447 136.442C476.236 125.159 468.493 117.628 454.496 116.649ZM449.908 148.125C449.06 148.066 448.217 147.922 447.46 147.784L449.305 121.401L451.765 121.573C461.012 122.219 464.171 128.237 463.655 135.618C463.054 142.992 459.155 148.772 449.908 148.125Z" fill="white"/>
<path d="M255.141 102.709L238.429 101.54L234.555 156.936L246.347 157.76L247.676 138.758C249.021 139.022 250.712 139.226 252.832 139.374C266.66 140.341 275.391 132.512 276.091 122.502C276.88 111.219 269.138 103.688 255.141 102.709ZM250.553 134.185C249.704 134.126 248.862 133.982 248.104 133.843L249.949 107.461L252.409 107.633C261.656 108.279 264.816 114.297 264.3 121.677C263.699 129.052 259.715 134.826 250.553 134.185Z" fill="white"/>
</svg>
