<svg width="615" height="269" viewBox="0 0 615 269" fill="none" xmlns="http://www.w3.org/2000/svg">
<path d="M596.627 2.60792L601.626 73.4256C577.769 76.1092 559.974 96.5332 561.623 120.111C563.272 143.691 583.738 161.44 607.737 160.776L612.221 224.236L277.17 248.169L277.167 248.169L99.8811 260.566L99.8709 260.567L17.7311 265.504L12.7307 194.663C36.5875 191.98 54.3824 171.556 52.7336 147.977C51.0848 124.398 30.6191 106.649 6.61991 107.313L2.13748 43.8751L84.255 38.9399L84.2648 38.9393L84.2745 38.9386L261.573 26.5407L261.576 26.5405L596.627 2.60792Z" fill="white" stroke="#2E2E33" stroke-width="4"/>
<path d="M112.904 170.683L108.554 108.468L118.335 107.784C124.009 107.387 128.186 107.463 130.861 108.011C134.659 108.738 137.75 110.364 140.139 112.887C142.528 115.414 143.85 118.493 144.104 122.132C144.27 124.5 143.918 126.687 143.055 128.686C142.189 130.688 140.686 132.611 138.55 134.462C142.452 135.974 145.371 138.002 147.304 140.544C149.239 143.086 150.331 146.175 150.585 149.813C150.83 153.312 150.151 156.558 148.547 159.561C146.942 162.564 144.764 164.876 142.01 166.499C139.259 168.122 135.371 169.109 130.345 169.46L112.904 170.68L112.904 170.683ZM121.187 118.931L122.104 132.042L124.695 131.861C127.582 131.659 129.681 130.904 131 129.592C132.315 128.28 132.899 126.585 132.752 124.496C132.616 122.551 131.843 121.054 130.433 120.006C129.023 118.958 126.961 118.528 124.244 118.718L121.187 118.931ZM122.843 142.619L123.958 158.563L126.928 158.356C131.847 158.012 135.12 157.161 136.743 155.798C138.366 154.438 139.097 152.572 138.932 150.207C138.745 147.526 137.592 145.484 135.475 144.075C133.361 142.665 129.971 142.12 125.305 142.447L122.843 142.619Z" fill="#36BA5F"/>
<path d="M154.351 121.545L165.898 120.738L167.102 137.956L181.796 119.626L195.892 118.64L176.968 142.493L199.365 164.637L184.053 165.708L169.193 150.413L168.081 151.948L169.116 166.752L157.568 167.56L154.351 121.545Z" fill="#36BA5F"/>
<path d="M200.086 118.347L211.886 117.522L225.855 145.559L237.027 115.764L248.861 114.936L224.437 179.802L212.51 180.636L220.555 159.706L200.086 118.347Z" fill="#36BA5F"/>
<path d="M299.689 120.727L290.447 126.687C288.509 124.925 286.635 123.739 284.817 123.127C283 122.516 280.909 122.298 278.538 122.463C274.221 122.765 270.815 124.297 268.328 127.061C265.837 129.822 264.734 133.215 265.016 137.242C265.29 141.157 266.797 144.264 269.541 146.558C272.282 148.857 275.741 149.861 279.918 149.569C285.087 149.208 288.988 147.164 291.618 143.434L301.161 149.033C296.674 155.794 289.934 159.49 280.94 160.119C272.848 160.685 266.341 158.734 261.423 154.258C256.504 149.783 253.824 144.335 253.374 137.903C253.063 133.449 253.89 129.267 255.856 125.36C257.822 121.456 260.722 118.288 264.564 115.867C268.405 113.446 272.793 112.06 277.726 111.715C282.296 111.395 286.46 112.02 290.226 113.581C293.989 115.156 297.143 117.536 299.689 120.727Z" fill="#36BA5F"/>
<path d="M311.769 156.777L307.418 94.562L317.2 93.878C322.874 93.4812 327.051 93.5569 329.726 94.1051C333.52 94.8324 336.615 96.4575 339.004 98.981C341.393 101.508 342.715 104.587 342.969 108.226C343.135 110.594 342.783 112.781 341.917 114.78C341.054 116.782 339.554 118.705 337.414 120.556C341.317 122.068 344.236 124.096 346.168 126.638C348.104 129.18 349.199 132.268 349.454 135.907C349.698 139.406 349.019 142.652 347.411 145.655C345.806 148.658 343.629 150.97 340.878 152.593C338.127 154.215 334.239 155.203 329.217 155.554L311.769 156.774L311.769 156.777ZM320.052 105.025L320.969 118.136L323.556 117.955C326.443 117.753 328.546 116.998 329.865 115.686C331.18 114.374 331.763 112.679 331.617 110.59C331.481 108.645 330.708 107.148 329.298 106.1C327.888 105.052 325.826 104.622 323.108 104.812L320.052 105.025ZM321.708 128.713L322.823 144.657L325.793 144.45C330.712 144.106 333.985 143.255 335.607 141.892C337.23 140.532 337.962 138.666 337.797 136.301C337.609 133.62 336.46 131.578 334.343 130.169C332.229 128.759 328.832 128.215 324.173 128.54L321.708 128.713Z" fill="#36BA5F"/>
<path d="M364.958 153.058L358.828 153.486L355.61 107.472L366.859 106.685L368.749 133.712L390.416 105.038L395.957 104.651L399.175 150.665L387.923 151.452L386.072 124.977L364.958 153.058Z" fill="#36BA5F"/>
<path d="M452.806 146.915L441.049 147.737L427.505 119.523L417.807 149.362L406.09 150.181L422.498 102.795L429.942 102.274L452.806 146.915Z" fill="#36BA5F"/>
<path d="M504.66 143.289L492.903 144.111L479.356 115.897L469.662 145.736L457.944 146.555L474.356 99.1684L481.8 98.6479L504.66 143.289Z" fill="#36BA5F"/>
</svg>
