<svg width="521" height="432" viewBox="0 0 521 432" fill="none" xmlns="http://www.w3.org/2000/svg">
<rect x="2.06352" y="1.56352" width="516.873" height="112.675" rx="14.4365" fill="white" stroke="#2E2E33" stroke-width="3.12704"/>
<path d="M100.453 68.9009L95.7502 68.9009L95.7495 49.9478L86.6401 49.9478L86.6408 68.9009L81.9533 68.9009L81.9524 46.1509L100.452 46.1509L100.453 68.9009ZM119.5 60.604C119.5 63.2082 118.906 65.2967 117.719 66.8696C116.542 68.4321 114.948 69.2134 112.938 69.2134C111.229 69.2134 109.849 68.6196 108.797 67.4321L108.797 75.4009L104.282 75.4009L104.281 51.9946L108.468 51.9946L108.625 53.6509C109.718 52.3384 111.145 51.6821 112.906 51.6821C114.989 51.6821 116.609 52.453 117.765 53.9946C118.922 55.5363 119.5 57.6613 119.5 60.3696L119.5 60.604ZM114.984 60.2759C114.984 58.703 114.703 57.4894 114.14 56.6353C113.588 55.7811 112.781 55.354 111.718 55.354C110.302 55.354 109.328 55.8957 108.797 56.979L108.797 63.9009C109.349 65.0155 110.333 65.5728 111.75 65.5728C113.906 65.5728 114.984 63.8071 114.984 60.2759ZM121.609 60.2915C121.609 58.6144 121.932 57.1196 122.578 55.8071C123.224 54.4946 124.151 53.479 125.359 52.7603C126.578 52.0415 127.989 51.6821 129.593 51.6821C131.875 51.6821 133.734 52.38 135.171 53.7759C136.619 55.1717 137.427 57.0675 137.594 59.4634L137.625 60.6196C137.625 63.2134 136.901 65.2967 135.453 66.8696C134.005 68.4321 132.063 69.2134 129.625 69.2134C127.188 69.2134 125.24 68.4321 123.781 66.8696C122.333 65.3071 121.609 63.1821 121.609 60.4946L121.609 60.2915ZM126.125 60.6196C126.125 62.2238 126.427 63.453 127.031 64.3071C127.635 65.1509 128.5 65.5728 129.625 65.5728C130.719 65.5728 131.573 65.1561 132.187 64.3228C132.802 63.479 133.109 62.1353 133.109 60.2915C133.109 58.7186 132.802 57.4998 132.187 56.6353C131.573 55.7707 130.708 55.3384 129.593 55.3384C128.489 55.3384 127.635 55.7707 127.031 56.6353C126.427 57.4894 126.125 58.8175 126.125 60.6196ZM150.703 63.5728L155.125 51.9946L160.781 51.9946L160.781 68.9009L156.266 68.9009L156.265 58.5259L152.219 68.9009L149.188 68.9009L145.219 58.6978L145.219 68.9009L140.703 68.9009L140.703 51.9946L146.312 51.9946L150.703 63.5728ZM164.015 60.2915C164.015 58.6144 164.338 57.1196 164.984 55.8071C165.63 54.4946 166.557 53.479 167.765 52.7603C168.984 52.0415 170.395 51.6821 172 51.6821C174.281 51.6821 176.14 52.38 177.578 53.7759C179.026 55.1717 179.833 57.0675 180 59.4634L180.031 60.6196C180.031 63.2134 179.307 65.2967 177.859 66.8696C176.412 68.4321 174.469 69.2134 172.031 69.2134C169.594 69.2134 167.646 68.4321 166.188 66.8696C164.74 65.3071 164.016 63.1821 164.015 60.4946L164.015 60.2915ZM168.531 60.6196C168.531 62.2238 168.833 63.453 169.437 64.3071C170.042 65.1509 170.906 65.5728 172.031 65.5728C173.125 65.5728 173.979 65.1561 174.594 64.3228C175.208 63.479 175.516 62.1353 175.515 60.2915C175.515 58.7186 175.208 57.4998 174.593 56.6353C173.979 55.7707 173.114 55.3384 172 55.3384C170.895 55.3384 170.041 55.7707 169.437 56.6353C168.833 57.4894 168.531 58.8175 168.531 60.6196ZM189.437 62.6665L187.625 62.6665L187.625 68.9009L183.11 68.9009L183.109 51.9946L187.625 51.9946L187.625 58.354L189.234 58.354L192.921 51.9946L198.625 51.9946L193.094 60.0415L199.141 68.9009L193.125 68.9009L189.437 62.6665ZM199.234 60.2915C199.234 58.6144 199.557 57.1196 200.203 55.8071C200.849 54.4946 201.776 53.479 202.984 52.7603C204.203 52.0415 205.614 51.6821 207.218 51.6821C209.5 51.6821 211.359 52.38 212.796 53.7759C214.244 55.1717 215.052 57.0675 215.219 59.4634L215.25 60.6196C215.25 63.2134 214.526 65.2967 213.078 66.8696C211.63 68.4321 209.688 69.2134 207.25 69.2134C204.813 69.2134 202.865 68.4321 201.406 66.8696C199.958 65.3071 199.234 63.1821 199.234 60.4946L199.234 60.2915ZM203.75 60.6196C203.75 62.2238 204.052 63.453 204.656 64.3071C205.26 65.1509 206.125 65.5728 207.25 65.5728C208.344 65.5728 209.198 65.1561 209.812 64.3228C210.427 63.479 210.734 62.1353 210.734 60.2915C210.734 58.7186 210.427 57.4998 209.812 56.6353C209.198 55.7707 208.333 55.3384 207.218 55.3384C206.114 55.3384 205.26 55.7707 204.656 56.6353C204.052 57.4894 203.75 58.8175 203.75 60.6196ZM217.141 65.2603C218.161 64.1769 218.854 63.104 219.219 62.0415C219.583 60.979 219.786 59.4738 219.828 57.5259L219.953 51.9946L232.39 51.9946L232.391 65.2603L234.828 65.2603L234.828 73.979L230.313 73.979L230.313 68.9009L220.297 68.9009L220.297 73.979L215.688 73.979L215.688 65.2603L217.141 65.2603ZM222.469 65.2603L227.891 65.2603L227.89 55.729L224.375 55.729L224.343 57.7603C224.25 60.8644 223.625 63.3644 222.469 65.2603ZM253.36 68.9009L253.359 46.1509L260.359 46.1509C262.359 46.1509 264.145 46.604 265.718 47.5103C267.301 48.4061 268.536 49.6873 269.421 51.354C270.307 53.0103 270.75 54.8957 270.75 57.0103L270.75 58.0571C270.75 60.1717 270.312 62.0519 269.437 63.6978C268.573 65.3436 267.349 66.6196 265.766 67.5259C264.182 68.4321 262.396 68.8905 260.406 68.9009L253.36 68.9009ZM258.046 49.9478L258.047 65.1353L260.313 65.1353C262.146 65.1353 263.547 64.5363 264.516 63.3384C265.484 62.1405 265.979 60.4269 266 58.1978L266 56.9946C266 54.6821 265.52 52.9321 264.562 51.7446C263.604 50.5467 262.203 49.9478 260.359 49.9478L258.046 49.9478ZM281.656 69.2134C279.177 69.2134 277.156 68.453 275.594 66.9321C274.042 65.4113 273.266 63.3853 273.265 60.854L273.265 60.4165C273.265 58.7186 273.593 57.203 274.25 55.8696C274.906 54.5259 275.833 53.4946 277.031 52.7759C278.239 52.0467 279.614 51.6821 281.156 51.6821C283.468 51.6821 285.286 52.4113 286.609 53.8696C287.942 55.328 288.609 57.3957 288.609 60.0728L288.609 61.9165L277.844 61.9165C277.99 63.0207 278.427 63.9061 279.156 64.5728C279.896 65.2394 280.828 65.5728 281.953 65.5728C283.693 65.5728 285.052 64.9425 286.031 63.6821L288.25 66.1665C287.573 67.1248 286.656 67.8748 285.5 68.4165C284.344 68.9478 283.063 69.2134 281.656 69.2134ZM281.14 55.3384C280.244 55.3384 279.515 55.6405 278.953 56.2446C278.401 56.8488 278.047 57.7134 277.89 58.8384L284.172 58.8384L284.172 58.479C284.151 57.479 283.88 56.7082 283.359 56.1665C282.838 55.6144 282.099 55.3384 281.14 55.3384ZM295.953 68.9009L291.422 68.9009L291.421 44.9009L295.952 44.9009L295.953 68.9009ZM304.453 68.9009L299.922 68.9009L299.921 51.9946L304.453 51.9946L304.453 68.9009ZM299.656 47.6196C299.656 46.9425 299.88 46.3853 300.327 45.9478C300.786 45.5103 301.406 45.2915 302.187 45.2915C302.958 45.2915 303.572 45.5103 304.031 45.9478C304.489 46.3853 304.718 46.9425 304.718 47.6196C304.718 48.3071 304.484 48.8696 304.015 49.3071C303.557 49.7446 302.947 49.9634 302.187 49.9634C301.427 49.9634 300.812 49.7446 300.343 49.3071C299.885 48.8696 299.656 48.3071 299.656 47.6196ZM314.516 63.3853L317.656 51.9946L322.375 51.9946L316.672 68.9009L312.36 68.9009L306.656 51.9946L311.375 51.9946L314.516 63.3853ZM331.938 69.2134C329.458 69.2134 327.438 68.453 325.875 66.9321C324.323 65.4113 323.547 63.3853 323.547 60.854L323.547 60.4165C323.547 58.7186 323.875 57.203 324.531 55.8696C325.187 54.5259 326.114 53.4946 327.312 52.7759C328.52 52.0467 329.895 51.6821 331.437 51.6821C333.75 51.6821 335.567 52.4113 336.89 53.8696C338.224 55.328 338.89 57.3957 338.89 60.0728L338.891 61.9165L328.125 61.9165C328.271 63.0207 328.708 63.9061 329.437 64.5728C330.177 65.2394 331.109 65.5728 332.234 65.5728C333.974 65.5728 335.333 64.9425 336.312 63.6821L338.531 66.1665C337.854 67.1248 336.938 67.8748 335.781 68.4165C334.625 68.9478 333.344 69.2134 331.938 69.2134ZM331.422 55.3384C330.526 55.3384 329.797 55.6405 329.234 56.2446C328.682 56.8488 328.328 57.7134 328.172 58.8384L334.453 58.8384L334.453 58.479C334.432 57.479 334.161 56.7082 333.64 56.1665C333.119 55.6144 332.38 55.3384 331.422 55.3384ZM350.968 56.229C350.354 56.1457 349.812 56.104 349.343 56.104C347.635 56.104 346.515 56.6821 345.984 57.8384L345.985 68.9009L341.469 68.9009L341.468 51.9946L345.734 51.9946L345.859 54.0103C346.765 52.4582 348.02 51.6821 349.625 51.6821C350.125 51.6821 350.593 51.7498 351.031 51.8853L350.968 56.229ZM359.75 62.5103L362.875 51.9946L367.718 51.9946L360.922 71.5259L360.547 72.4165C359.537 74.6248 357.87 75.729 355.547 75.729C354.891 75.729 354.224 75.63 353.547 75.4321L353.547 72.0103L354.235 72.0259C355.089 72.0259 355.724 71.8957 356.141 71.6353C356.568 71.3748 356.901 70.9425 357.141 70.3384L357.672 68.9478L351.75 51.9946L356.609 51.9946L359.75 62.5103ZM395.625 61.3228C395.448 63.7707 394.542 65.6978 392.906 67.104C391.281 68.5103 389.136 69.2134 386.469 69.2134C383.552 69.2134 381.255 68.2342 379.578 66.2759C377.911 64.3071 377.078 61.6092 377.078 58.1821L377.078 56.7915C377.078 54.604 377.463 52.6769 378.234 51.0103C379.005 49.3436 380.104 48.0675 381.531 47.1821C382.968 46.2863 384.635 45.8384 386.531 45.8384C389.156 45.8384 391.27 46.5415 392.874 47.9478C394.479 49.354 395.406 51.328 395.656 53.8696L390.968 53.8696C390.854 52.4009 390.442 51.3384 389.734 50.6821C389.036 50.0155 387.968 49.6821 386.531 49.6821C384.968 49.6821 383.796 50.2446 383.015 51.3696C382.244 52.4842 381.849 54.2186 381.828 56.5728L381.828 58.2915C381.828 60.7498 382.198 62.5467 382.937 63.6821C383.687 64.8175 384.865 65.3853 386.469 65.3853C387.917 65.3853 388.995 65.0571 389.703 64.4009C390.422 63.7342 390.833 62.7082 390.937 61.3228L395.625 61.3228ZM403.172 68.9009L398.641 68.9009L398.64 44.9009L403.171 44.9009L403.172 68.9009ZM417.031 67.1821C415.917 68.5363 414.375 69.2134 412.406 69.2134C410.594 69.2134 409.208 68.6925 408.25 67.6509C407.302 66.6092 406.818 65.0832 406.797 63.0728L406.796 51.9946L411.312 51.9946L411.312 62.9165C411.312 64.6769 412.115 65.5571 413.719 65.5571C415.25 65.5571 416.302 65.0259 416.875 63.9634L416.875 51.9946L421.406 51.9946L421.406 68.9009L417.156 68.9009L417.031 67.1821ZM440.047 60.604C440.047 63.3123 439.469 65.4269 438.313 66.9478C437.156 68.4582 435.542 69.2134 433.469 69.2134C431.636 69.2134 430.172 68.5103 429.078 67.104L428.875 68.9009L424.813 68.9009L424.812 44.9009L429.327 44.9009L429.328 53.5103C430.369 52.2915 431.739 51.6821 433.437 51.6821C435.5 51.6821 437.114 52.4425 438.281 53.9634C439.458 55.4738 440.047 57.604 440.047 60.354L440.047 60.604ZM435.531 60.2759C435.531 58.5675 435.26 57.3228 434.718 56.5415C434.177 55.7498 433.369 55.354 432.297 55.354C430.859 55.354 429.869 55.9425 429.328 57.1196L429.328 63.7915C429.88 64.979 430.88 65.5728 432.328 65.5728C433.786 65.5728 434.745 64.854 435.203 63.4165C435.422 62.729 435.531 61.6821 435.531 60.2759Z" fill="#2E2E33"/>
<rect x="42.3118" y="108.54" width="423" height="287" rx="49" transform="rotate(3.40029 42.3118 108.54)" fill="white" stroke="#2E2E33" stroke-width="16"/>
<mask id="mask0" mask-type="alpha" maskUnits="userSpaceOnUse" x="36" y="119" width="418" height="291">
<rect x="49.8228" y="117" width="407" height="271" rx="41" transform="rotate(3.40029 49.8228 117)" fill="#C4C4C4"/>
</mask>
<g mask="url(#mask0)">
<circle cx="460.249" cy="230.522" r="159.767" transform="rotate(4 460.249 230.522)" fill="#D4D6D9"/>
<circle cx="261.314" cy="445.04" r="74.5459" transform="rotate(4 261.314 445.04)" fill="#D4D6D9"/>
<path d="M277.754 122.062C335.902 197.463 427.119 239.743 465.458 251.458" stroke="#0EC645" stroke-width="10" stroke-linecap="round" stroke-linejoin="round"/>
<path d="M410.967 245.109C398.874 237.919 374.194 220.221 372.215 206.942C369.741 190.343 414.423 191.379 427.163 197.915C439.903 204.45 434.835 212.885 429.865 217.962C413.49 234.688 380.9 211.508 364.636 201.389" stroke="#0EC645" stroke-width="10" stroke-linecap="round" stroke-linejoin="round"/>
<path d="M310.23 182.432C322.022 190.104 348.804 204.425 361.591 200.333C377.574 195.217 356.903 155.592 345.411 147.05C333.919 138.508 328.591 146.783 326.233 153.485C318.464 175.564 353.46 194.436 369.921 204.678" stroke="#0EC645" stroke-width="10" stroke-linecap="round" stroke-linejoin="round"/>
</g>
<path d="M39.0153 149.14C33.7936 143.717 34.155 132.199 34.0002 125.24C31.2207 132.691 32.5946 141.01 27.4832 150.259C24.666 155.356 17.4375 155.479 12.5589 156.479C16.1421 156.981 24.3281 158.278 27.6669 160.595C33.6032 164.715 34.4701 178.47 35.6925 186.103C36.8804 179.06 37.9849 164.713 40.7388 160.892C44.3301 155.908 51.3932 155.118 55.9791 154.273C51.8414 153.569 43.0355 153.315 39.0153 149.14Z" fill="white" stroke="#2E2E33" stroke-width="4" stroke-linecap="round" stroke-linejoin="round"/>
<path d="M135.7 307.207L123.741 306.294L127.257 260.193L112.642 263.532L113.384 253.806L139.02 246.772L140.303 246.87L135.7 307.207ZM218.878 288.496C218.243 296.828 216.032 303.069 212.247 307.22C208.462 311.372 203.244 313.193 196.595 312.686C190.029 312.185 185.173 309.636 182.027 305.039C178.882 300.443 177.576 294.099 178.109 286.009L178.956 274.919C179.597 266.504 181.823 260.25 185.631 256.156C189.468 252.064 194.669 250.269 201.235 250.77C207.801 251.271 212.657 253.82 215.803 258.416C218.951 262.986 220.258 269.315 219.724 277.405L218.878 288.496ZM207.847 275.417C208.227 270.423 207.814 266.742 206.608 264.375C205.43 261.982 203.393 260.675 200.497 260.454C197.682 260.239 195.516 261.17 193.998 263.246C192.51 265.297 191.548 268.623 191.114 273.224L189.997 287.874C189.622 292.785 190.005 296.491 191.147 298.992C192.317 301.468 194.379 302.818 197.331 303.044C200.255 303.267 202.453 302.283 203.925 300.092C205.396 297.901 206.339 294.449 206.754 289.735L207.847 275.417ZM267.545 292.209C266.91 300.541 264.699 306.783 260.914 310.934C257.129 315.085 251.911 316.907 245.263 316.4C238.696 315.899 233.84 313.35 230.694 308.753C227.549 304.156 226.243 297.813 226.777 289.723L227.623 278.632C228.265 270.217 230.49 263.963 234.299 259.869C238.135 255.778 243.336 253.982 249.902 254.483C256.469 254.984 261.325 257.533 264.47 262.13C267.618 266.699 268.925 273.029 268.391 281.119L267.545 292.209ZM256.514 279.13C256.895 274.136 256.482 270.456 255.275 268.088C254.098 265.695 252.061 264.388 249.164 264.167C246.35 263.952 244.183 264.883 242.665 266.96C241.177 269.011 240.216 272.337 239.781 276.938L238.664 291.587C238.289 296.498 238.673 300.204 239.814 302.706C240.985 305.181 243.046 306.532 245.998 306.757C248.922 306.98 251.12 305.997 252.592 303.806C254.063 301.615 255.006 298.162 255.421 293.449L256.514 279.13ZM316.213 295.923C315.577 304.255 313.366 310.497 309.581 314.648C305.796 318.799 300.579 320.621 293.93 320.113C287.363 319.612 282.507 317.063 279.362 312.467C276.216 307.87 274.91 301.526 275.444 293.437L276.29 282.346C276.932 273.931 279.157 267.677 282.966 263.583C286.802 259.491 292.003 257.696 298.569 258.197C305.136 258.698 309.992 261.247 313.137 265.844C316.285 270.413 317.592 276.742 317.059 284.832L316.213 295.923ZM305.181 282.844C305.562 277.85 305.149 274.169 303.942 271.802C302.765 269.409 300.728 268.102 297.831 267.881C295.017 267.666 292.851 268.597 291.332 270.673C289.844 272.724 288.883 276.05 288.448 280.651L287.331 295.301C286.956 300.212 287.34 303.918 288.481 306.419C289.652 308.895 291.713 310.246 294.665 310.471C297.59 310.694 299.787 309.71 301.259 307.519C302.73 305.328 303.673 301.876 304.088 297.162L305.181 282.844ZM355.025 315.868L341.865 314.863L341.253 322.892L328.838 321.944L329.45 313.916L321.049 313.275L321.816 303.219L330.217 303.86L330.457 300.715L322.056 300.074L322.823 290.017L331.224 290.658L333.434 261.69L356.857 263.477C361.382 263.822 365.293 264.939 368.589 266.828C371.886 268.717 374.357 271.25 376.002 274.428C377.676 277.581 378.366 281.088 378.071 284.951C377.616 290.91 375.23 295.459 370.911 298.598C366.62 301.74 360.874 303.036 353.673 302.486L342.872 301.662L342.632 304.807L355.792 305.811L355.025 315.868ZM343.639 291.606L354.358 292.424C361.31 292.954 365.019 290.171 365.484 284.074C365.705 281.177 365 278.778 363.369 276.878C361.74 274.95 359.368 273.853 356.252 273.587L345.079 272.735L343.639 291.606Z" fill="#2E2E33"/>
<path fill-rule="evenodd" clip-rule="evenodd" d="M99.9925 180.713C99.9637 180.098 100.514 177.116 100.514 177.116C100.514 177.116 101.253 177.285 101.968 177.408C102.684 177.53 103.838 177.662 103.838 177.662C103.838 177.662 103.079 179.879 103.412 180.415C104.179 181.654 108.588 184.864 109.568 186.106C110.065 186.661 110.571 187.202 111.2 187.699C111.641 188.12 113.135 188.254 113.505 188.671C113.752 188.971 114.024 189.818 113.854 189.958C113.737 190.053 111.466 189.968 111.071 189.872C110.638 189.847 110.144 189.399 110.144 189.399C110.144 189.399 109.802 189.716 109.369 189.452C108.604 189.013 108.77 188.212 108.349 187.529C108.101 187.251 104.4 184.495 102.001 182.95C99.9428 181.625 100.036 181.648 99.9925 180.713ZM85.1391 172.023C84.702 171.586 82.9101 172.94 82.4289 172.806C81.9477 172.672 82.4961 171.498 82.0599 171.545C81.4684 171.61 81.2308 172.968 80.6985 173.042C79.8314 173.31 79.4247 172.014 79.5148 170.502C79.6049 168.99 80.2424 167.374 82.1419 166.429C84.0414 165.483 86.7772 165.376 88.8455 166.208C90.9119 165.258 93.7316 162.312 99.6084 162.517C105.485 162.721 107.508 165.777 108.797 165.151C110.086 164.525 110.602 162.971 110.401 161.776C110.016 159.485 109.081 158.197 108.394 156.136C107.963 154.844 108.035 153.175 108.746 151.99C109.064 151.464 109.797 150.872 110.853 150.817C111.908 150.763 112.132 151.658 112.852 151.942C113.571 152.225 115.131 152.466 115.22 153.032C115.31 153.597 113.401 153.923 112.977 153.852C111.984 153.686 111.314 154.319 111.298 155.507C111.272 157.017 111.595 157.577 112.86 159.804C114.124 162.032 113.899 165.598 111.973 167.98C111.368 168.674 110.735 169.256 110.289 170.063C109.931 170.71 110.33 169.387 110.171 172.045C110.013 174.703 108.594 175.902 106.805 176.359C104.397 176.974 102.373 176.57 100.301 176.2C97.4339 175.688 95.172 175.594 93.9747 175.823C92.9372 176.023 89.6311 177.633 89.1875 178.447C88.9516 178.887 87.5421 183.527 87.2736 184.549C87.1636 184.969 87.1608 185.82 86.9407 186.185C86.6996 186.591 83.9687 188.09 83.0549 188.377C82.6338 188.509 81.7905 188.66 81.7004 188.511C81.1578 187.807 81.1691 187.653 82.9341 186.535C82.4159 185.276 84.1391 185.079 84.6766 184.506C85.2631 183.882 86.6817 176.798 87.0775 175.888C87.4733 174.978 88.821 174.737 89.4089 173.941C89.1716 173.633 88.8094 173.768 87.8606 173.974C87.0465 174.151 85.339 174.646 85.0018 174.327C84.6645 174.009 85.5762 172.459 85.1391 172.023Z" fill="#2E2E33"/>
<path fill-rule="evenodd" clip-rule="evenodd" d="M131.416 170.549L125.991 170.226L126.815 156.406L132.219 156.728C136.515 156.984 139.33 159.917 139.083 164.061C138.834 168.247 135.691 170.804 131.416 170.549ZM131.55 167.958C134.263 168.12 135.963 166.246 136.103 163.884C136.248 161.46 134.881 159.486 132.086 159.319L129.578 159.17L129.064 167.81L131.55 167.958ZM145.335 171.628C142.314 171.448 140.155 169.261 140.347 166.049C140.519 163.149 142.796 160.935 145.797 161.114C148.777 161.291 150.637 163.648 150.443 166.901L150.406 167.522L143.028 167.083C143.14 168.316 144.066 169.39 145.751 169.49C146.594 169.541 147.766 169.257 148.44 168.673L149.507 170.484C148.467 171.337 146.876 171.72 145.335 171.628ZM148.007 165.55C147.982 164.592 147.395 163.371 145.668 163.269C144.045 163.172 143.278 164.27 143.116 165.258L148.007 165.55ZM154.83 172.194C153.001 172.085 152.091 171.074 152.199 169.272L152.873 157.959L155.483 158.115L154.851 168.723C154.813 169.365 155.113 169.861 155.688 169.896C156.079 169.919 156.457 169.796 156.611 169.639L157.046 171.682C156.635 172.01 155.898 172.258 154.83 172.194ZM160.129 161.136C159.286 161.086 158.63 160.34 158.682 159.47C158.733 158.6 159.473 157.957 160.315 158.008C161.179 158.059 161.837 158.784 161.785 159.655C161.733 160.525 160.992 161.188 160.129 161.136ZM160.784 172.299L158.174 172.144L158.77 162.136L161.38 162.292L160.784 172.299ZM168.757 172.775L165.942 172.607L162.551 162.362L165.346 162.528L167.521 169.644L170.546 162.838L173.341 163.005L168.757 172.775ZM178.566 173.609C175.545 173.429 173.386 171.241 173.577 168.03C173.75 165.129 176.027 162.915 179.028 163.094C182.007 163.272 183.868 165.628 183.674 168.881L183.637 169.503L176.259 169.063C176.371 170.297 177.297 171.371 178.982 171.471C179.825 171.521 180.996 171.238 181.671 170.654L182.738 172.464C181.697 173.317 180.107 173.7 178.566 173.609ZM181.238 167.53C181.213 166.572 180.625 165.352 178.899 165.249C177.276 165.152 176.509 166.25 176.347 167.239L181.238 167.53ZM187.89 173.915L185.28 173.759L185.877 163.752L188.487 163.908L188.406 165.254C189.178 164.427 190.433 163.774 191.666 163.848L191.513 166.417C191.331 166.364 191.106 166.33 190.798 166.312C189.935 166.26 188.754 166.689 188.284 167.305L187.89 173.915ZM196.465 178.501C194.8 178.402 193.493 177.846 192.402 176.762L193.686 174.946C194.353 175.859 195.545 176.284 196.593 176.346C198.278 176.447 199.334 175.345 199.418 173.937L199.479 172.901C198.757 173.606 197.519 174.302 195.896 174.205C193.717 174.075 192.761 172.812 192.877 170.864L193.275 164.193L195.885 164.348L195.549 169.984C195.466 171.372 196.159 171.871 197.268 171.937C198.275 171.997 199.11 171.485 199.597 170.932L199.975 164.592L202.585 164.748L202.028 174.092C201.849 177.096 199.629 178.69 196.465 178.501ZM131.28 189.693C127.15 189.447 124.137 186.356 124.39 182.109C124.645 177.841 128.002 175.151 132.132 175.397C135.133 175.576 136.782 177.316 137.644 179.114L135.063 180.208C134.554 179.055 133.374 178.091 131.977 178.007C129.47 177.858 127.546 179.677 127.391 182.288C127.235 184.898 128.929 186.933 131.436 187.082C132.833 187.166 134.12 186.348 134.762 185.264L137.196 186.635C136.128 188.298 134.281 189.872 131.28 189.693ZM141.705 190.314C139.876 190.205 138.967 189.195 139.075 187.392L139.749 176.079L142.359 176.235L141.727 186.843C141.688 187.485 141.989 187.981 142.564 188.016C142.955 188.039 143.333 187.916 143.487 187.759L143.922 189.802C143.511 190.131 142.774 190.378 141.705 190.314ZM154.359 190.819L151.749 190.663L151.824 189.399C151.102 190.105 149.864 190.8 148.24 190.704C146.062 190.574 145.106 189.311 145.222 187.363L145.646 180.257L148.256 180.412L147.894 186.483C147.811 187.871 148.503 188.37 149.613 188.436C150.62 188.496 151.455 187.984 151.942 187.431L152.345 180.656L154.955 180.812L154.359 190.819ZM159.75 187.917C160.164 188.586 161.08 189.119 161.944 189.171C163.444 189.26 164.521 188.139 164.625 186.399C164.727 184.679 163.791 183.438 162.291 183.349C161.427 183.297 160.452 183.738 159.961 184.374L159.75 187.917ZM159.558 191.129L156.948 190.973L157.772 177.154L160.382 177.309L160.078 182.406C160.921 181.417 162.06 180.985 163.232 181.055C165.759 181.206 167.511 183.306 167.317 186.559C167.117 189.916 165.113 191.709 162.606 191.56C161.414 191.489 160.357 190.885 159.635 189.844L159.558 191.129Z" fill="#2E2E33"/>
<path d="M479.877 363.608C470.91 354.295 471.53 334.515 471.264 322.563C466.491 335.359 468.85 349.647 460.073 365.53C455.235 374.283 442.821 374.494 434.443 376.211C440.596 377.074 454.654 379.301 460.388 383.28C470.583 390.355 472.071 413.977 474.171 427.085C476.211 414.99 478.107 390.352 482.837 383.789C489.004 375.23 501.134 373.874 509.009 372.423C501.903 371.214 486.781 370.778 479.877 363.608Z" fill="white" stroke="#2E2E33" stroke-width="6.86926" stroke-linecap="round" stroke-linejoin="round"/>
</svg>
