<svg width="521" height="432" viewBox="0 0 521 432" fill="none" xmlns="http://www.w3.org/2000/svg">
<rect x="2.06352" y="1.56352" width="516.873" height="112.675" rx="14.4365" fill="white" stroke="#2E2E33" stroke-width="3.12704"/>
<path d="M104.438 68.9009L99.7345 68.9009L99.7338 49.9478L90.6245 49.9478L90.6252 68.9009L85.9377 68.9009L85.9368 46.1509L104.437 46.1509L104.438 68.9009ZM123.484 60.604C123.484 63.2082 122.891 65.2967 121.703 66.8696C120.526 68.4321 118.932 69.2134 116.922 69.2134C115.214 69.2134 113.833 68.6196 112.781 67.4321L112.782 75.4009L108.266 75.4009L108.265 51.9946L112.453 51.9946L112.609 53.6509C113.703 52.3384 115.13 51.6821 116.89 51.6821C118.973 51.6821 120.593 52.453 121.75 53.9946C122.906 55.5363 123.484 57.6613 123.484 60.3696L123.484 60.604ZM118.969 60.2759C118.969 58.703 118.687 57.4894 118.125 56.6353C117.573 55.7811 116.765 55.354 115.703 55.354C114.286 55.354 113.312 55.8957 112.781 56.979L112.781 63.9009C113.333 65.0155 114.318 65.5728 115.734 65.5728C117.891 65.5728 118.969 63.8071 118.969 60.2759ZM125.594 60.2915C125.594 58.6144 125.916 57.1196 126.562 55.8071C127.208 54.4946 128.135 53.479 129.343 52.7603C130.562 52.0415 131.973 51.6821 133.578 51.6821C135.859 51.6821 137.718 52.38 139.156 53.7759C140.604 55.1717 141.411 57.0675 141.578 59.4634L141.609 60.6196C141.609 63.2134 140.885 65.2967 139.438 66.8696C137.99 68.4321 136.047 69.2134 133.61 69.2134C131.172 69.2134 129.224 68.4321 127.766 66.8696C126.318 65.3071 125.594 63.1821 125.594 60.4946L125.594 60.2915ZM130.109 60.6196C130.109 62.2238 130.411 63.453 131.016 64.3071C131.62 65.1509 132.484 65.5728 133.609 65.5728C134.703 65.5728 135.557 65.1561 136.172 64.3228C136.786 63.479 137.094 62.1353 137.094 60.2915C137.094 58.7186 136.786 57.4998 136.172 56.6353C135.557 55.7707 134.692 55.3384 133.578 55.3384C132.474 55.3384 131.619 55.7707 131.015 56.6353C130.411 57.4894 130.109 58.8175 130.109 60.6196ZM154.687 63.5728L159.109 51.9946L164.765 51.9946L164.766 68.9009L160.25 68.9009L160.25 58.5259L156.203 68.9009L153.172 68.9009L149.203 58.6978L149.203 68.9009L144.688 68.9009L144.687 51.9946L150.296 51.9946L154.687 63.5728ZM168 60.2915C168 58.6144 168.323 57.1196 168.968 55.8071C169.614 54.4946 170.541 53.479 171.75 52.7603C172.968 52.0415 174.38 51.6821 175.984 51.6821C178.265 51.6821 180.125 52.38 181.562 53.7759C183.01 55.1717 183.817 57.0675 183.984 59.4634L184.015 60.6196C184.016 63.2134 183.292 65.2967 181.844 66.8696C180.396 68.4321 178.453 69.2134 176.016 69.2134C173.578 69.2134 171.63 68.4321 170.172 66.8696C168.724 65.3071 168 63.1821 168 60.4946L168 60.2915ZM172.515 60.6196C172.516 62.2238 172.818 63.453 173.422 64.3071C174.026 65.1509 174.891 65.5728 176.016 65.5728C177.109 65.5728 177.964 65.1561 178.578 64.3228C179.193 63.479 179.5 62.1353 179.5 60.2915C179.5 58.7186 179.192 57.4998 178.578 56.6353C177.963 55.7707 177.099 55.3384 175.984 55.3384C174.88 55.3384 174.026 55.7707 173.422 56.6353C172.817 57.4894 172.515 58.8175 172.515 60.6196ZM193.422 62.6665L191.609 62.6665L191.61 68.9009L187.094 68.9009L187.093 51.9946L191.609 51.9946L191.609 58.354L193.219 58.354L196.906 51.9946L202.609 51.9946L197.078 60.0415L203.125 68.9009L197.11 68.9009L193.422 62.6665ZM203.219 60.2915C203.219 58.6144 203.541 57.1196 204.187 55.8071C204.833 54.4946 205.76 53.479 206.968 52.7603C208.187 52.0415 209.598 51.6821 211.203 51.6821C213.484 51.6821 215.343 52.38 216.781 53.7759C218.229 55.1717 219.036 57.0675 219.203 59.4634L219.234 60.6196C219.234 63.2134 218.51 65.2967 217.063 66.8696C215.615 68.4321 213.672 69.2134 211.235 69.2134C208.797 69.2134 206.849 68.4321 205.391 66.8696C203.943 65.3071 203.219 63.1821 203.219 60.4946L203.219 60.2915ZM207.734 60.6196C207.734 62.2238 208.036 63.453 208.641 64.3071C209.245 65.1509 210.109 65.5728 211.234 65.5728C212.328 65.5728 213.182 65.1561 213.797 64.3228C214.411 63.479 214.719 62.1353 214.719 60.2915C214.719 58.7186 214.411 57.4998 213.797 56.6353C213.182 55.7707 212.317 55.3384 211.203 55.3384C210.099 55.3384 209.244 55.7707 208.64 56.6353C208.036 57.4894 207.734 58.8175 207.734 60.6196ZM221.125 65.2603C222.146 64.1769 222.838 63.104 223.203 62.0415C223.568 60.979 223.771 59.4738 223.812 57.5259L223.937 51.9946L236.375 51.9946L236.375 65.2603L238.813 65.2603L238.813 73.979L234.297 73.979L234.297 68.9009L224.281 68.9009L224.282 73.979L219.672 73.979L219.672 65.2603L221.125 65.2603ZM226.453 65.2603L231.875 65.2603L231.875 55.729L228.359 55.729L228.328 57.7603C228.234 60.8644 227.609 63.3644 226.453 65.2603ZM249.375 68.9009L249.374 46.1509L256.374 46.1509C258.374 46.1509 260.161 46.604 261.734 47.5103C263.317 48.4061 264.552 49.6873 265.437 51.354C266.322 53.0103 266.765 54.8957 266.765 57.0103L266.765 58.0571C266.765 60.1717 266.328 62.0519 265.453 63.6978C264.589 65.3436 263.365 66.6196 261.781 67.5259C260.198 68.4321 258.412 68.8905 256.422 68.9009L249.375 68.9009ZM254.062 49.9478L254.063 65.1353L256.328 65.1353C258.161 65.1353 259.562 64.5363 260.531 63.3384C261.5 62.1405 261.995 60.4269 262.015 58.1978L262.015 56.9946C262.015 54.6821 261.536 52.9321 260.578 51.7446C259.619 50.5467 258.218 49.9478 256.374 49.9478L254.062 49.9478ZM277.672 69.2134C275.193 69.2134 273.172 68.453 271.609 66.9321C270.057 65.4113 269.281 63.3853 269.281 60.854L269.281 60.4165C269.281 58.7186 269.609 57.203 270.265 55.8696C270.921 54.5259 271.849 53.4946 273.046 52.7759C274.255 52.0467 275.63 51.6821 277.171 51.6821C279.484 51.6821 281.302 52.4113 282.625 53.8696C283.958 55.328 284.625 57.3957 284.625 60.0728L284.625 61.9165L273.859 61.9165C274.005 63.0207 274.443 63.9061 275.172 64.5728C275.911 65.2394 276.844 65.5728 277.969 65.5728C279.708 65.5728 281.068 64.9425 282.047 63.6821L284.266 66.1665C283.589 67.1248 282.672 67.8748 281.516 68.4165C280.36 68.9478 279.078 69.2134 277.672 69.2134ZM277.156 55.3384C276.26 55.3384 275.531 55.6405 274.968 56.2446C274.416 56.8488 274.062 57.7134 273.906 58.8384L280.187 58.8384L280.187 58.479C280.166 57.479 279.896 56.7082 279.375 56.1665C278.854 55.6144 278.114 55.3384 277.156 55.3384ZM291.969 68.9009L287.438 68.9009L287.437 44.9009L291.968 44.9009L291.969 68.9009ZM300.469 68.9009L295.938 68.9009L295.937 51.9946L300.468 51.9946L300.469 68.9009ZM295.671 47.6196C295.671 46.9425 295.895 46.3853 296.343 45.9478C296.801 45.5103 297.421 45.2915 298.202 45.2915C298.973 45.2915 299.588 45.5103 300.046 45.9478C300.505 46.3853 300.734 46.9425 300.734 47.6196C300.734 48.3071 300.499 48.8696 300.031 49.3071C299.572 49.7446 298.963 49.9634 298.203 49.9634C297.442 49.9634 296.828 49.7446 296.359 49.3071C295.9 48.8696 295.671 48.3071 295.671 47.6196ZM310.531 63.3853L313.671 51.9946L318.39 51.9946L312.688 68.9009L308.375 68.9009L302.671 51.9946L307.39 51.9946L310.531 63.3853ZM327.953 69.2134C325.474 69.2134 323.453 68.453 321.891 66.9321C320.339 65.4113 319.562 63.3853 319.562 60.854L319.562 60.4165C319.562 58.7186 319.89 57.203 320.547 55.8696C321.203 54.5259 322.13 53.4946 323.328 52.7759C324.536 52.0467 325.911 51.6821 327.453 51.6821C329.765 51.6821 331.583 52.4113 332.906 53.8696C334.239 55.328 334.906 57.3957 334.906 60.0728L334.906 61.9165L324.141 61.9165C324.286 63.0207 324.724 63.9061 325.453 64.5728C326.193 65.2394 327.125 65.5728 328.25 65.5728C329.99 65.5728 331.349 64.9425 332.328 63.6821L334.547 66.1665C333.87 67.1248 332.953 67.8748 331.797 68.4165C330.641 68.9478 329.36 69.2134 327.953 69.2134ZM327.437 55.3384C326.541 55.3384 325.812 55.6405 325.25 56.2446C324.698 56.8488 324.343 57.7134 324.187 58.8384L330.469 58.8384L330.469 58.479C330.448 57.479 330.177 56.7082 329.656 56.1665C329.135 55.6144 328.395 55.3384 327.437 55.3384ZM346.984 56.229C346.369 56.1457 345.828 56.104 345.359 56.104C343.651 56.104 342.531 56.6821 342 57.8384L342 68.9009L337.485 68.9009L337.484 51.9946L341.75 51.9946L341.875 54.0103C342.781 52.4582 344.036 51.6821 345.64 51.6821C346.14 51.6821 346.609 51.7498 347.046 51.8853L346.984 56.229ZM355.766 62.5103L358.89 51.9946L363.734 51.9946L356.938 71.5259L356.563 72.4165C355.552 74.6248 353.886 75.729 351.563 75.729C350.907 75.729 350.24 75.63 349.563 75.4321L349.563 72.0103L350.25 72.0259C351.104 72.0259 351.74 71.8957 352.156 71.6353C352.584 71.3748 352.917 70.9425 353.156 70.3384L353.688 68.9478L347.765 51.9946L352.625 51.9946L355.766 62.5103ZM391.64 61.3228C391.463 63.7707 390.557 65.6978 388.922 67.104C387.297 68.5103 385.151 69.2134 382.485 69.2134C379.568 69.2134 377.271 68.2342 375.594 66.2759C373.927 64.3071 373.094 61.6092 373.093 58.1821L373.093 56.7915C373.093 54.604 373.479 52.6769 374.249 51.0103C375.02 49.3436 376.119 48.0675 377.546 47.1821C378.984 46.2863 380.65 45.8384 382.546 45.8384C385.171 45.8384 387.286 46.5415 388.89 47.9478C390.494 49.354 391.421 51.328 391.671 53.8696L386.984 53.8696C386.869 52.4009 386.458 51.3384 385.749 50.6821C385.052 50.0155 383.984 49.6821 382.546 49.6821C380.984 49.6821 379.812 50.2446 379.031 51.3696C378.26 52.4842 377.864 54.2186 377.843 56.5728L377.843 58.2915C377.844 60.7498 378.213 62.5467 378.953 63.6821C379.703 64.8175 380.88 65.3853 382.484 65.3853C383.932 65.3853 385.01 65.0571 385.719 64.4009C386.437 63.7342 386.849 62.7082 386.953 61.3228L391.64 61.3228ZM399.188 68.9009L394.656 68.9009L394.656 44.9009L399.187 44.9009L399.188 68.9009ZM413.047 67.1821C411.932 68.5363 410.391 69.2134 408.422 69.2134C406.61 69.2134 405.224 68.6925 404.266 67.6509C403.318 66.6092 402.833 65.0832 402.812 63.0728L402.812 51.9946L407.328 51.9946L407.328 62.9165C407.328 64.6769 408.13 65.5571 409.734 65.5571C411.266 65.5571 412.318 65.0259 412.891 63.9634L412.89 51.9946L417.421 51.9946L417.422 68.9009L413.172 68.9009L413.047 67.1821ZM436.062 60.604C436.062 63.3123 435.484 65.4269 434.328 66.9478C433.172 68.4582 431.557 69.2134 429.485 69.2134C427.651 69.2134 426.188 68.5103 425.094 67.104L424.891 68.9009L420.828 68.9009L420.827 44.9009L425.343 44.9009L425.343 53.5103C426.385 52.2915 427.755 51.6821 429.453 51.6821C431.515 51.6821 433.13 52.4425 434.296 53.9634C435.474 55.4738 436.062 57.604 436.062 60.354L436.062 60.604ZM431.547 60.2759C431.547 58.5675 431.276 57.3228 430.734 56.5415C430.192 55.7498 429.385 55.354 428.312 55.354C426.875 55.354 425.885 55.9425 425.343 57.1196L425.344 63.7915C425.896 64.979 426.896 65.5728 428.344 65.5728C429.802 65.5728 430.76 64.854 431.219 63.4165C431.437 62.729 431.547 61.6821 431.547 60.2759Z" fill="#2E2E33"/>
<rect x="42.3118" y="108.54" width="423" height="287" rx="49" transform="rotate(3.40029 42.3118 108.54)" fill="white" stroke="#2E2E33" stroke-width="16"/>
<mask id="mask0" mask-type="alpha" maskUnits="userSpaceOnUse" x="36" y="119" width="418" height="291">
<rect x="49.8228" y="117" width="407" height="271" rx="41" transform="rotate(3.40029 49.8228 117)" fill="#C4C4C4"/>
</mask>
<g mask="url(#mask0)">
<circle cx="460.249" cy="230.522" r="159.767" transform="rotate(4 460.249 230.522)" fill="#D4D6D9"/>
<circle cx="261.314" cy="445.04" r="74.5459" transform="rotate(4 261.314 445.04)" fill="#D4D6D9"/>
<path d="M277.754 122.062C335.902 197.463 427.119 239.743 465.458 251.458" stroke="#0EC645" stroke-width="10" stroke-linecap="round" stroke-linejoin="round"/>
<path d="M410.967 245.109C398.874 237.919 374.194 220.221 372.215 206.942C369.741 190.343 414.423 191.379 427.163 197.915C439.903 204.45 434.835 212.885 429.865 217.962C413.49 234.688 380.9 211.508 364.636 201.389" stroke="#0EC645" stroke-width="10" stroke-linecap="round" stroke-linejoin="round"/>
<path d="M310.23 182.432C322.022 190.104 348.804 204.425 361.591 200.333C377.574 195.217 356.903 155.592 345.411 147.05C333.919 138.508 328.591 146.783 326.233 153.485C318.464 175.564 353.46 194.436 369.921 204.678" stroke="#0EC645" stroke-width="10" stroke-linecap="round" stroke-linejoin="round"/>
</g>
<path d="M39.0153 149.14C33.7936 143.717 34.155 132.199 34.0002 125.24C31.2207 132.691 32.5946 141.01 27.4832 150.259C24.666 155.356 17.4375 155.479 12.5589 156.479C16.1421 156.981 24.3281 158.278 27.6669 160.595C33.6032 164.715 34.4701 178.47 35.6925 186.103C36.8804 179.06 37.9849 164.713 40.7388 160.892C44.3301 155.908 51.3932 155.118 55.9791 154.273C51.8414 153.569 43.0355 153.315 39.0153 149.14Z" fill="white" stroke="#2E2E33" stroke-width="4" stroke-linecap="round" stroke-linejoin="round"/>
<path d="M147.95 308.142L106.649 304.99L107.274 296.796L128.351 277.509C131.25 274.789 133.417 272.387 134.853 270.305C136.315 268.224 137.122 266.204 137.271 264.245C137.475 261.569 136.959 259.421 135.723 257.8C134.489 256.152 132.617 255.232 130.106 255.041C127.402 254.834 125.193 255.609 123.477 257.365C121.791 259.096 120.832 261.479 120.601 264.513L108.6 263.598C108.88 259.928 110.004 256.643 111.974 253.74C113.971 250.84 116.635 248.657 119.966 247.191C123.299 245.697 126.993 245.105 131.049 245.414C137.256 245.888 141.957 247.745 145.151 250.986C148.372 254.228 149.775 258.567 149.361 264.002C149.133 266.982 148.129 269.958 146.349 272.93C144.568 275.902 141.645 279.3 137.579 283.125L122.779 296.522L148.686 298.499L147.95 308.142ZM218.878 288.496C218.243 296.828 216.032 303.069 212.247 307.22C208.462 311.372 203.244 313.193 196.595 312.686C190.029 312.185 185.173 309.636 182.027 305.039C178.882 300.443 177.576 294.099 178.109 286.009L178.956 274.919C179.597 266.504 181.823 260.25 185.631 256.156C189.468 252.064 194.669 250.269 201.235 250.77C207.801 251.271 212.657 253.82 215.803 258.416C218.951 262.986 220.258 269.315 219.724 277.405L218.878 288.496ZM207.847 275.417C208.227 270.423 207.814 266.742 206.608 264.375C205.43 261.982 203.393 260.675 200.497 260.454C197.682 260.239 195.516 261.17 193.998 263.246C192.51 265.297 191.548 268.623 191.114 273.224L189.997 287.874C189.622 292.785 190.005 296.491 191.147 298.992C192.317 301.468 194.379 302.818 197.331 303.044C200.255 303.267 202.453 302.283 203.925 300.092C205.396 297.901 206.339 294.449 206.754 289.735L207.847 275.417ZM267.545 292.209C266.91 300.541 264.699 306.783 260.914 310.934C257.129 315.085 251.911 316.907 245.263 316.4C238.696 315.899 233.84 313.35 230.694 308.753C227.549 304.156 226.243 297.813 226.777 289.723L227.623 278.632C228.265 270.217 230.49 263.963 234.299 259.869C238.135 255.778 243.336 253.982 249.902 254.483C256.469 254.984 261.325 257.533 264.47 262.13C267.618 266.699 268.925 273.029 268.391 281.119L267.545 292.209ZM256.514 279.13C256.895 274.136 256.482 270.456 255.275 268.088C254.098 265.695 252.061 264.388 249.164 264.167C246.35 263.952 244.183 264.883 242.665 266.96C241.177 269.011 240.216 272.337 239.781 276.938L238.664 291.587C238.289 296.498 238.673 300.204 239.814 302.706C240.985 305.181 243.046 306.532 245.998 306.757C248.922 306.98 251.12 305.997 252.592 303.806C254.063 301.615 255.006 298.162 255.421 293.449L256.514 279.13ZM316.213 295.923C315.577 304.255 313.366 310.497 309.581 314.648C305.796 318.799 300.579 320.621 293.93 320.113C287.363 319.612 282.507 317.063 279.362 312.467C276.216 307.87 274.91 301.526 275.444 293.437L276.29 282.346C276.932 273.931 279.157 267.677 282.966 263.583C286.802 259.491 292.003 257.696 298.569 258.197C305.136 258.698 309.992 261.247 313.137 265.844C316.285 270.413 317.592 276.742 317.059 284.832L316.213 295.923ZM305.181 282.844C305.562 277.85 305.149 274.169 303.942 271.802C302.765 269.409 300.728 268.102 297.831 267.881C295.017 267.666 292.851 268.597 291.332 270.673C289.844 272.724 288.883 276.05 288.448 280.651L287.331 295.301C286.956 300.212 287.34 303.918 288.481 306.419C289.652 308.895 291.713 310.246 294.665 310.471C297.59 310.694 299.787 309.71 301.259 307.519C302.73 305.328 303.673 301.876 304.088 297.162L305.181 282.844ZM355.025 315.868L341.865 314.863L341.253 322.892L328.838 321.944L329.45 313.916L321.049 313.275L321.816 303.219L330.217 303.86L330.457 300.715L322.056 300.074L322.823 290.017L331.224 290.658L333.434 261.69L356.857 263.477C361.382 263.822 365.293 264.939 368.589 266.828C371.886 268.717 374.357 271.25 376.002 274.428C377.676 277.581 378.366 281.088 378.071 284.951C377.616 290.91 375.23 295.459 370.911 298.598C366.62 301.74 360.874 303.036 353.673 302.486L342.872 301.662L342.632 304.807L355.792 305.811L355.025 315.868ZM343.639 291.606L354.358 292.424C361.31 292.954 365.019 290.171 365.484 284.074C365.705 281.177 365 278.778 363.369 276.878C361.74 274.95 359.368 273.853 356.252 273.587L345.079 272.735L343.639 291.606Z" fill="#2E2E33"/>
<path fill-rule="evenodd" clip-rule="evenodd" d="M99.9925 180.713C99.9637 180.098 100.514 177.116 100.514 177.116C100.514 177.116 101.253 177.285 101.968 177.408C102.684 177.53 103.838 177.662 103.838 177.662C103.838 177.662 103.079 179.879 103.412 180.415C104.179 181.654 108.588 184.864 109.568 186.106C110.065 186.661 110.571 187.202 111.2 187.699C111.641 188.12 113.135 188.254 113.505 188.671C113.752 188.971 114.024 189.818 113.854 189.958C113.737 190.053 111.466 189.968 111.071 189.872C110.638 189.847 110.144 189.399 110.144 189.399C110.144 189.399 109.802 189.716 109.369 189.452C108.604 189.013 108.77 188.212 108.349 187.529C108.101 187.251 104.4 184.495 102.001 182.95C99.9428 181.625 100.036 181.648 99.9925 180.713ZM85.1391 172.023C84.702 171.586 82.9101 172.94 82.4289 172.806C81.9477 172.672 82.4961 171.498 82.0599 171.545C81.4684 171.61 81.2308 172.968 80.6985 173.042C79.8314 173.31 79.4247 172.014 79.5148 170.502C79.6049 168.99 80.2424 167.374 82.1419 166.429C84.0414 165.483 86.7772 165.376 88.8455 166.208C90.9119 165.258 93.7316 162.312 99.6084 162.517C105.485 162.721 107.508 165.777 108.797 165.151C110.086 164.525 110.602 162.971 110.401 161.776C110.016 159.485 109.081 158.197 108.394 156.136C107.963 154.844 108.035 153.175 108.746 151.99C109.064 151.464 109.797 150.872 110.853 150.817C111.908 150.763 112.132 151.658 112.852 151.942C113.571 152.225 115.131 152.466 115.22 153.032C115.31 153.597 113.401 153.923 112.977 153.852C111.984 153.686 111.314 154.319 111.298 155.507C111.272 157.017 111.595 157.577 112.86 159.804C114.124 162.032 113.899 165.598 111.973 167.98C111.368 168.674 110.735 169.256 110.289 170.063C109.931 170.71 110.33 169.387 110.171 172.045C110.013 174.703 108.594 175.902 106.805 176.359C104.397 176.974 102.373 176.57 100.301 176.2C97.4339 175.688 95.172 175.594 93.9747 175.823C92.9372 176.023 89.6311 177.633 89.1875 178.447C88.9516 178.887 87.5421 183.527 87.2736 184.549C87.1636 184.969 87.1608 185.82 86.9407 186.185C86.6996 186.591 83.9687 188.09 83.0549 188.377C82.6338 188.509 81.7905 188.66 81.7004 188.511C81.1578 187.807 81.1691 187.653 82.9341 186.535C82.4159 185.276 84.1391 185.079 84.6766 184.506C85.2631 183.882 86.6817 176.798 87.0775 175.888C87.4733 174.978 88.821 174.737 89.4089 173.941C89.1716 173.633 88.8094 173.768 87.8606 173.974C87.0465 174.151 85.339 174.646 85.0018 174.327C84.6645 174.009 85.5762 172.459 85.1391 172.023Z" fill="#2E2E33"/>
<path fill-rule="evenodd" clip-rule="evenodd" d="M131.416 170.549L125.991 170.226L126.815 156.406L132.219 156.728C136.515 156.984 139.33 159.917 139.083 164.061C138.834 168.247 135.691 170.804 131.416 170.549ZM131.55 167.958C134.263 168.12 135.963 166.246 136.103 163.884C136.248 161.46 134.881 159.486 132.086 159.319L129.578 159.17L129.064 167.81L131.55 167.958ZM145.335 171.628C142.314 171.448 140.155 169.261 140.347 166.049C140.519 163.149 142.796 160.935 145.797 161.114C148.777 161.291 150.637 163.648 150.443 166.901L150.406 167.522L143.028 167.083C143.14 168.316 144.066 169.39 145.751 169.49C146.594 169.541 147.766 169.257 148.44 168.673L149.507 170.484C148.467 171.337 146.876 171.72 145.335 171.628ZM148.007 165.55C147.982 164.592 147.395 163.371 145.668 163.269C144.045 163.172 143.278 164.27 143.116 165.258L148.007 165.55ZM154.83 172.194C153.001 172.085 152.091 171.074 152.199 169.272L152.873 157.959L155.483 158.115L154.851 168.723C154.813 169.365 155.113 169.861 155.688 169.896C156.079 169.919 156.457 169.796 156.611 169.639L157.046 171.682C156.635 172.01 155.898 172.258 154.83 172.194ZM160.129 161.136C159.286 161.086 158.63 160.34 158.682 159.47C158.733 158.6 159.473 157.957 160.315 158.008C161.179 158.059 161.837 158.784 161.785 159.655C161.733 160.525 160.992 161.188 160.129 161.136ZM160.784 172.299L158.174 172.144L158.77 162.136L161.38 162.292L160.784 172.299ZM168.757 172.775L165.942 172.607L162.551 162.362L165.346 162.528L167.521 169.644L170.546 162.838L173.341 163.005L168.757 172.775ZM178.566 173.609C175.545 173.429 173.386 171.241 173.577 168.03C173.75 165.129 176.027 162.915 179.028 163.094C182.007 163.272 183.868 165.628 183.674 168.881L183.637 169.503L176.259 169.063C176.371 170.297 177.297 171.371 178.982 171.471C179.825 171.521 180.996 171.238 181.671 170.654L182.738 172.464C181.697 173.317 180.107 173.7 178.566 173.609ZM181.238 167.53C181.213 166.572 180.625 165.352 178.899 165.249C177.276 165.152 176.509 166.25 176.347 167.239L181.238 167.53ZM187.89 173.915L185.28 173.759L185.877 163.752L188.487 163.908L188.406 165.254C189.178 164.427 190.433 163.774 191.666 163.848L191.513 166.417C191.331 166.364 191.106 166.33 190.798 166.312C189.935 166.26 188.754 166.689 188.284 167.305L187.89 173.915ZM196.465 178.501C194.8 178.402 193.493 177.846 192.402 176.762L193.686 174.946C194.353 175.859 195.545 176.284 196.593 176.346C198.278 176.447 199.334 175.345 199.418 173.937L199.479 172.901C198.757 173.606 197.519 174.302 195.896 174.205C193.717 174.075 192.761 172.812 192.877 170.864L193.275 164.193L195.885 164.348L195.549 169.984C195.466 171.372 196.159 171.871 197.268 171.937C198.275 171.997 199.11 171.485 199.597 170.932L199.975 164.592L202.585 164.748L202.028 174.092C201.849 177.096 199.629 178.69 196.465 178.501ZM131.28 189.693C127.15 189.447 124.137 186.356 124.39 182.109C124.645 177.841 128.002 175.151 132.132 175.397C135.133 175.576 136.782 177.316 137.644 179.114L135.063 180.208C134.554 179.055 133.374 178.091 131.977 178.007C129.47 177.858 127.546 179.677 127.391 182.288C127.235 184.898 128.929 186.933 131.436 187.082C132.833 187.166 134.12 186.348 134.762 185.264L137.196 186.635C136.128 188.298 134.281 189.872 131.28 189.693ZM141.705 190.314C139.876 190.205 138.967 189.195 139.075 187.392L139.749 176.079L142.359 176.235L141.727 186.843C141.688 187.485 141.989 187.981 142.564 188.016C142.955 188.039 143.333 187.916 143.487 187.759L143.922 189.802C143.511 190.131 142.774 190.378 141.705 190.314ZM154.359 190.819L151.749 190.663L151.824 189.399C151.102 190.105 149.864 190.8 148.24 190.704C146.062 190.574 145.106 189.311 145.222 187.363L145.646 180.257L148.256 180.412L147.894 186.483C147.811 187.871 148.503 188.37 149.613 188.436C150.62 188.496 151.455 187.984 151.942 187.431L152.345 180.656L154.955 180.812L154.359 190.819ZM159.75 187.917C160.164 188.586 161.08 189.119 161.944 189.171C163.444 189.26 164.521 188.139 164.625 186.399C164.727 184.679 163.791 183.438 162.291 183.349C161.427 183.297 160.452 183.738 159.961 184.374L159.75 187.917ZM159.558 191.129L156.948 190.973L157.772 177.154L160.382 177.309L160.078 182.406C160.921 181.417 162.06 180.985 163.232 181.055C165.759 181.206 167.511 183.306 167.317 186.559C167.117 189.916 165.113 191.709 162.606 191.56C161.414 191.489 160.357 190.885 159.635 189.844L159.558 191.129Z" fill="#2E2E33"/>
<path d="M479.877 363.608C470.91 354.295 471.53 334.515 471.264 322.563C466.491 335.359 468.85 349.647 460.073 365.53C455.235 374.283 442.821 374.494 434.443 376.211C440.596 377.074 454.654 379.301 460.388 383.28C470.583 390.355 472.071 413.977 474.171 427.085C476.211 414.99 478.107 390.352 482.837 383.789C489.004 375.23 501.134 373.874 509.009 372.423C501.903 371.214 486.781 370.778 479.877 363.608Z" fill="white" stroke="#2E2E33" stroke-width="6.86926" stroke-linecap="round" stroke-linejoin="round"/>
</svg>
