<svg width="535" height="446" viewBox="0 0 535 446" fill="none" xmlns="http://www.w3.org/2000/svg">
<rect x="2.31352" y="1.56352" width="516.873" height="112.675" rx="14.4365" fill="white" stroke="#2E2E33" stroke-width="3.12704"/>
<path d="M90.328 61.3229C90.151 63.7708 89.2448 65.6979 87.6095 67.1041C85.9845 68.5104 83.8387 69.2135 81.172 69.2135C78.2554 69.2135 75.9585 68.2343 74.2813 66.276C72.6146 64.3073 71.7811 61.6093 71.781 58.1823L71.781 56.7916C71.7809 54.6041 72.1662 52.677 72.937 51.0104C73.7078 49.3437 74.8067 48.0677 76.2337 47.1823C77.6712 46.2864 79.3378 45.8385 81.2337 45.8385C83.8587 45.8385 85.9733 46.5416 87.5775 47.9479C89.1817 49.3541 90.1089 51.3281 90.359 53.8698L85.6715 53.8698C85.5568 52.401 85.1453 51.3385 84.437 50.6823C83.739 50.0156 82.6713 49.6823 81.2338 49.6823C79.6713 49.6823 78.4995 50.2448 77.7183 51.3698C76.9475 52.4843 76.5517 54.2187 76.531 56.5729L76.531 58.2916C76.5311 60.75 76.901 62.5468 77.6406 63.6823C78.3906 64.8177 79.5677 65.3854 81.1719 65.3854C82.6198 65.3854 83.6979 65.0573 84.4062 64.401C85.125 63.7343 85.5364 62.7083 85.6405 61.3229L90.328 61.3229ZM100.891 69.2135C98.4116 69.2135 96.3908 68.4531 94.8282 66.9323C93.2761 65.4114 92.5 63.3854 92.4999 60.8541L92.4998 60.4166C92.4998 58.7187 92.8278 57.2031 93.484 55.8698C94.1403 54.526 95.0673 53.4948 96.2652 52.776C97.4735 52.0468 98.8485 51.6823 100.39 51.6823C102.703 51.6823 104.52 52.4114 105.843 53.8698C107.177 55.3281 107.843 57.3958 107.844 60.0729L107.844 61.9166L97.078 61.9166C97.2239 63.0208 97.6614 63.9062 98.3906 64.5729C99.1302 65.2395 100.063 65.5729 101.188 65.5729C102.927 65.5729 104.286 64.9427 105.266 63.6823L107.484 66.1666C106.807 67.125 105.891 67.875 104.735 68.4166C103.578 68.9479 102.297 69.2135 100.891 69.2135ZM100.375 55.3385C99.4788 55.3385 98.7497 55.6406 98.1872 56.2448C97.6351 56.8489 97.281 57.7135 97.1248 58.8385L103.406 58.8385L103.406 58.4791C103.385 57.4791 103.114 56.7083 102.593 56.1666C102.073 55.6145 101.333 55.3385 100.375 55.3385ZM125.64 60.6041C125.641 63.2083 125.047 65.2968 123.859 66.8698C122.682 68.4323 121.089 69.2135 119.078 69.2135C117.37 69.2135 115.99 68.6198 114.938 67.4323L114.938 75.401L110.422 75.401L110.421 51.9948L114.609 51.9948L114.765 53.651C115.859 52.3385 117.286 51.6823 119.046 51.6823C121.13 51.6823 122.75 52.4531 123.906 53.9948C125.062 55.5364 125.64 57.6614 125.64 60.3698L125.64 60.6041ZM121.125 60.276C121.125 58.7031 120.843 57.4895 120.281 56.6354C119.729 55.7812 118.922 55.3541 117.859 55.3541C116.442 55.3541 115.468 55.8958 114.937 56.9791L114.937 63.901C115.49 65.0156 116.474 65.5729 117.891 65.5729C120.047 65.5729 121.125 63.8073 121.125 60.276ZM141.828 55.6198L136.406 55.6198L136.406 68.901L131.875 68.901L131.875 55.6198L126.547 55.6198L126.546 51.9948L141.828 51.9948L141.828 55.6198ZM154.296 51.9948L158.812 51.9948L158.813 68.901L154.297 68.901L154.297 58.4635L148.641 68.901L144.11 68.901L144.109 51.9948L148.64 51.9948L148.641 62.4166L154.296 51.9948ZM161.594 60.5729C161.593 57.8541 162.145 55.6927 163.25 54.0885C164.364 52.4843 165.895 51.6823 167.843 51.6823C168.604 51.6823 169.296 51.8333 169.921 52.1354L169.921 44.901L174.437 44.901L174.437 52.151C175.083 51.8385 175.796 51.6823 176.578 51.6823C178.536 51.6823 180.067 52.4843 181.171 54.0885C182.286 55.6823 182.843 57.9531 182.844 60.901C182.844 63.4531 182.286 65.4791 181.172 66.9791C180.057 68.4687 178.537 69.2135 176.61 69.2135C175.807 69.2135 175.083 69.0677 174.438 68.776L174.438 75.401L169.922 75.401L169.922 68.7916C169.297 69.0729 168.594 69.2135 167.813 69.2135C165.99 69.2135 164.526 68.5312 163.422 67.1666C162.318 65.802 161.714 63.9323 161.609 61.5573L161.594 60.5729ZM178.312 60.5729C178.312 58.8854 178.057 57.5937 177.547 56.6979C177.036 55.7916 176.317 55.3385 175.39 55.3385C175.099 55.3385 174.781 55.375 174.437 55.4479L174.438 65.4948C174.729 65.5573 175.057 65.5885 175.422 65.5885C177.193 65.5885 178.151 64.2448 178.297 61.5573L178.312 60.5729ZM166.109 60.901C166.109 64.0156 167.063 65.5729 168.969 65.5729C169.365 65.5729 169.682 65.5468 169.922 65.4948L169.922 55.4479C169.578 55.375 169.27 55.3385 169 55.3385C168.073 55.3385 167.359 55.7812 166.859 56.6666C166.359 57.5416 166.109 58.9531 166.109 60.901ZM195.828 51.9948L200.343 51.9948L200.344 68.901L195.828 68.901L195.828 58.4635L190.172 68.901L185.641 68.901L185.64 51.9948L190.171 51.9948L190.172 62.4166L195.828 51.9948ZM210.422 62.6666L208.609 62.6666L208.61 68.901L204.094 68.901L204.093 51.9948L208.609 51.9948L208.609 58.3541L210.219 58.3541L213.906 51.9948L219.609 51.9948L214.078 60.0416L220.125 68.901L214.11 68.901L210.422 62.6666ZM231.625 68.901C231.417 68.4948 231.266 67.9895 231.172 67.3854C230.078 68.6041 228.656 69.2135 226.906 69.2135C225.25 69.2135 223.875 68.7343 222.781 67.776C221.698 66.8177 221.156 65.6093 221.156 64.151C221.156 62.3593 221.818 60.9843 223.14 60.026C224.474 59.0677 226.396 58.5833 228.906 58.5729L230.984 58.5729L230.984 57.6041C230.984 56.8229 230.781 56.1979 230.375 55.7291C229.979 55.2604 229.349 55.026 228.484 55.026C227.724 55.026 227.125 55.2083 226.687 55.5729C226.26 55.9375 226.047 56.4375 226.047 57.0729L221.531 57.0729C221.531 56.0937 221.833 55.1875 222.437 54.3541C223.041 53.5208 223.895 52.8698 225 52.401C226.104 51.9218 227.343 51.6823 228.718 51.6823C230.802 51.6823 232.453 52.2083 233.671 53.2604C234.901 54.302 235.515 55.7708 235.515 57.6666L235.516 64.9948C235.526 66.5989 235.75 67.8125 236.188 68.6354L236.188 68.901L231.625 68.901ZM227.891 65.7604C228.557 65.7604 229.172 65.6145 229.734 65.3229C230.297 65.0208 230.714 64.6198 230.984 64.1198L230.984 61.2135L229.297 61.2135C227.036 61.2135 225.833 61.9948 225.687 63.5573L225.672 63.8229C225.672 64.3854 225.87 64.8489 226.266 65.2135C226.661 65.5781 227.203 65.7604 227.891 65.7604ZM252.765 55.6198L247.343 55.6198L247.344 68.901L242.813 68.901L242.812 55.6198L237.484 55.6198L237.484 51.9948L252.765 51.9948L252.765 55.6198ZM263.313 68.901L263.312 46.151L270.312 46.151C272.312 46.151 274.098 46.6041 275.671 47.5104C277.255 48.4062 278.489 49.6875 279.374 51.3541C280.26 53.0104 280.703 54.8958 280.703 57.0104L280.703 58.0573C280.703 60.1718 280.266 62.052 279.391 63.6979C278.526 65.3437 277.302 66.6198 275.719 67.526C274.136 68.4323 272.349 68.8906 270.36 68.901L263.313 68.901ZM267.999 49.9479L268 65.1354L270.266 65.1354C272.099 65.1354 273.5 64.5364 274.469 63.3385C275.437 62.1406 275.932 60.427 275.953 58.1979L275.953 56.9948C275.953 54.6823 275.474 52.9323 274.515 51.7448C273.557 50.5468 272.156 49.9479 270.312 49.9479L267.999 49.9479ZM291.61 69.2135C289.13 69.2135 287.11 68.4531 285.547 66.9323C283.995 65.4114 283.219 63.3854 283.219 60.8541L283.219 60.4166C283.219 58.7187 283.547 57.2031 284.203 55.8698C284.859 54.526 285.786 53.4948 286.984 52.776C288.192 52.0468 289.567 51.6823 291.109 51.6823C293.421 51.6823 295.239 52.4114 296.562 53.8698C297.895 55.3281 298.562 57.3958 298.562 60.0729L298.562 61.9166L287.797 61.9166C287.943 63.0208 288.38 63.9062 289.109 64.5729C289.849 65.2395 290.781 65.5729 291.906 65.5729C293.646 65.5729 295.005 64.9427 295.984 63.6823L298.203 66.1666C297.526 67.125 296.609 67.875 295.453 68.4166C294.297 68.9479 293.016 69.2135 291.61 69.2135ZM291.093 55.3385C290.198 55.3385 289.468 55.6406 288.906 56.2448C288.354 56.8489 288 57.7135 287.844 58.8385L294.125 58.8385L294.125 58.4791C294.104 57.4791 293.833 56.7083 293.312 56.1666C292.791 55.6145 292.052 55.3385 291.093 55.3385ZM305.906 68.901L301.375 68.901L301.374 44.901L305.906 44.901L305.906 68.901ZM314.406 68.901L309.875 68.901L309.875 51.9948L314.406 51.9948L314.406 68.901ZM309.609 47.6198C309.609 46.9427 309.833 46.3854 310.281 45.9479C310.739 45.5104 311.359 45.2916 312.14 45.2916C312.911 45.2916 313.525 45.5104 313.984 45.9479C314.442 46.3854 314.671 46.9427 314.671 47.6198C314.671 48.3073 314.437 48.8698 313.968 49.3073C313.51 49.7448 312.9 49.9635 312.14 49.9635C311.38 49.9635 310.765 49.7448 310.296 49.3073C309.838 48.8698 309.609 48.3073 309.609 47.6198ZM324.469 63.3854L327.609 51.9948L332.328 51.9948L326.625 68.901L322.313 68.901L316.609 51.9948L321.328 51.9948L324.469 63.3854ZM341.891 69.2135C339.412 69.2135 337.391 68.4531 335.828 66.9323C334.276 65.4114 333.5 63.3854 333.5 60.8541L333.5 60.4166C333.5 58.7187 333.828 57.2031 334.484 55.8698C335.14 54.526 336.067 53.4948 337.265 52.776C338.473 52.0468 339.848 51.6823 341.39 51.6823C343.703 51.6823 345.52 52.4114 346.843 53.8698C348.177 55.3281 348.843 57.3958 348.844 60.0729L348.844 61.9166L338.078 61.9166C338.224 63.0208 338.661 63.9062 339.391 64.5729C340.13 65.2395 341.063 65.5729 342.188 65.5729C343.927 65.5729 345.286 64.9427 346.266 63.6823L348.484 66.1666C347.807 67.125 346.891 67.875 345.734 68.4166C344.578 68.9479 343.297 69.2135 341.891 69.2135ZM341.375 55.3385C340.479 55.3385 339.75 55.6406 339.187 56.2448C338.635 56.8489 338.281 57.7135 338.125 58.8385L344.406 58.8385L344.406 58.4791C344.385 57.4791 344.114 56.7083 343.593 56.1666C343.073 55.6145 342.333 55.3385 341.375 55.3385ZM360.922 56.2291C360.307 56.1458 359.765 56.1041 359.297 56.1041C357.588 56.1041 356.468 56.6823 355.937 57.8385L355.938 68.901L351.422 68.901L351.421 51.9948L355.687 51.9948L355.812 54.0104C356.718 52.4583 357.973 51.6823 359.578 51.6823C360.078 51.6823 360.546 51.75 360.984 51.8854L360.922 56.2291ZM369.703 62.5104L372.828 51.9948L377.671 51.9948L370.875 71.526L370.5 72.4166C369.49 74.625 367.823 75.7291 365.5 75.7291C364.844 75.7291 364.177 75.6302 363.5 75.4323L363.5 72.0104L364.188 72.026C365.042 72.026 365.677 71.8958 366.094 71.6354C366.521 71.375 366.854 70.9427 367.094 70.3385L367.625 68.9479L361.703 51.9948L366.562 51.9948L369.703 62.5104ZM405.578 61.3229C405.401 63.7708 404.495 65.6979 402.859 67.1041C401.234 68.5104 399.089 69.2135 396.422 69.2135C393.505 69.2135 391.208 68.2343 389.531 66.276C387.865 64.3073 387.031 61.6093 387.031 58.1823L387.031 56.7916C387.031 54.6041 387.416 52.677 388.187 51.0104C388.958 49.3437 390.057 48.0677 391.484 47.1823C392.921 46.2864 394.588 45.8385 396.484 45.8385C399.109 45.8385 401.223 46.5416 402.827 47.9479C404.432 49.3541 405.359 51.3281 405.609 53.8698L400.921 53.8698C400.807 52.401 400.395 51.3385 399.687 50.6823C398.989 50.0156 397.921 49.6823 396.484 49.6823C394.921 49.6823 393.749 50.2448 392.968 51.3698C392.197 52.4843 391.802 54.2187 391.781 56.5729L391.781 58.2916C391.781 60.75 392.151 62.5468 392.891 63.6823C393.641 64.8177 394.818 65.3854 396.422 65.3854C397.87 65.3854 398.948 65.0573 399.656 64.401C400.375 63.7343 400.786 62.7083 400.89 61.3229L405.578 61.3229ZM413.125 68.901L408.594 68.901L408.593 44.901L413.124 44.901L413.125 68.901ZM426.984 67.1823C425.87 68.5364 424.328 69.2135 422.36 69.2135C420.547 69.2135 419.162 68.6927 418.203 67.651C417.255 66.6093 416.771 65.0833 416.75 63.0729L416.75 51.9948L421.265 51.9948L421.266 62.9166C421.266 64.677 422.068 65.5573 423.672 65.5573C425.203 65.5573 426.255 65.026 426.828 63.9635L426.828 51.9948L431.359 51.9948L431.36 68.901L427.11 68.901L426.984 67.1823ZM450 60.6041C450 63.3125 449.422 65.427 448.266 66.9479C447.109 68.4583 445.495 69.2135 443.422 69.2135C441.589 69.2135 440.125 68.5104 439.031 67.1041L438.828 68.901L434.766 68.901L434.765 44.901L439.281 44.901L439.281 53.5104C440.322 52.2916 441.692 51.6823 443.39 51.6823C445.453 51.6823 447.067 52.4427 448.234 53.9635C449.411 55.4739 450 57.6041 450 60.3541L450 60.6041ZM445.484 60.276C445.484 58.5677 445.213 57.3229 444.672 56.5416C444.13 55.75 443.323 55.3541 442.25 55.3541C440.812 55.3541 439.823 55.9427 439.281 57.1198L439.281 63.7916C439.833 64.9791 440.833 65.5729 442.281 65.5729C443.74 65.5729 444.698 64.8541 445.156 63.4166C445.375 62.7291 445.484 61.6823 445.484 60.276Z" fill="#2E2E33"/>
<g clip-path="url(#clip0)">
<rect x="82.6866" y="95.5099" width="397.304" height="314.457" rx="80" transform="rotate(4 82.6866 95.5099)" fill="white"/>
<circle cx="457.999" cy="212.457" r="159.767" transform="rotate(4 457.999 212.457)" fill="#D4D6D9"/>
<circle cx="259.065" cy="426.974" r="74.5459" transform="rotate(4 259.065 426.974)" fill="#D4D6D9"/>
<path d="M156.949 301.751L144.644 300.89L147.959 253.457L132.951 256.986L133.651 246.98L159.969 239.578L161.289 239.67L156.949 301.751ZM242.366 281.966C241.767 290.538 239.534 296.971 235.669 301.265C231.803 305.559 226.45 307.466 219.609 306.988C212.853 306.516 207.842 303.926 204.577 299.219C201.312 294.513 199.927 287.998 200.424 279.675L201.221 268.263C201.827 259.606 204.074 253.159 207.964 248.924C211.883 244.691 217.22 242.811 223.976 243.284C230.732 243.756 235.742 246.346 239.008 251.052C242.275 255.731 243.66 262.231 243.164 270.554L242.366 281.966ZM230.936 268.587C231.295 263.449 230.846 259.667 229.59 257.24C228.363 254.786 226.26 253.455 223.28 253.247C220.384 253.045 218.163 254.016 216.615 256.161C215.098 258.28 214.131 261.707 213.714 266.441L212.661 281.514C212.307 286.567 212.726 290.376 213.916 292.941C215.136 295.479 217.265 296.855 220.302 297.067C223.311 297.277 225.565 296.251 227.064 293.988C228.562 291.726 229.51 288.169 229.906 283.319L230.936 268.587ZM292.439 285.467C291.84 294.04 289.607 300.473 285.742 304.766C281.876 309.06 276.523 310.968 269.682 310.489C262.926 310.017 257.915 307.427 254.65 302.721C251.385 298.014 250 291.499 250.497 283.176L251.294 271.765C251.9 263.107 254.147 256.661 258.037 252.426C261.956 248.193 267.293 246.313 274.049 246.785C280.805 247.257 285.815 249.847 289.081 254.554C292.348 259.232 293.733 265.733 293.237 274.056L292.439 285.467ZM281.009 272.088C281.368 266.95 280.919 263.168 279.663 260.741C278.437 258.288 276.333 256.957 273.353 256.748C270.457 256.546 268.236 257.517 266.688 259.663C265.171 261.782 264.204 265.208 263.787 269.943L262.734 285.016C262.38 290.068 262.799 293.877 263.989 296.442C265.209 298.981 267.338 300.356 270.375 300.568C273.384 300.779 275.638 299.753 277.137 297.49C278.636 295.227 279.583 291.671 279.979 286.821L281.009 272.088ZM342.512 288.969C341.913 297.541 339.681 303.974 335.815 308.268C331.949 312.562 326.596 314.469 319.755 313.991C312.999 313.518 307.988 310.929 304.723 306.222C301.458 301.515 300.074 295.001 300.57 286.677L301.367 275.266C301.973 266.608 304.22 260.162 308.111 255.927C312.029 251.694 317.366 249.814 324.122 250.286C330.878 250.759 335.889 253.348 339.154 258.055C342.421 262.733 343.806 269.234 343.31 277.557L342.512 288.969ZM331.082 275.59C331.441 270.452 330.992 266.669 329.736 264.243C328.51 261.789 326.406 260.458 323.426 260.25C320.53 260.047 318.309 261.019 316.761 263.164C315.244 265.283 314.277 268.71 313.86 273.444L312.807 288.517C312.454 293.57 312.872 297.379 314.062 299.944C315.282 302.482 317.411 303.858 320.448 304.07C323.457 304.28 325.711 303.254 327.21 300.991C328.709 298.729 329.656 295.172 330.052 290.322L331.082 275.59ZM382.557 309.226L369.017 308.279L368.44 316.539L355.666 315.646L356.243 307.386L347.6 306.781L348.323 296.435L356.966 297.039L357.193 293.803L348.549 293.199L349.272 282.852L357.916 283.456L359.999 253.651L384.099 255.336C388.755 255.662 392.784 256.785 396.186 258.706C399.589 260.627 402.147 263.216 403.859 266.473C405.601 269.704 406.333 273.307 406.055 277.281C405.627 283.412 403.202 288.106 398.781 291.363C394.389 294.621 388.488 295.992 381.08 295.473L369.966 294.696L369.74 297.932L383.28 298.879L382.557 309.226ZM370.69 284.35L381.718 285.121C388.871 285.621 392.667 282.734 393.105 276.461C393.314 273.481 392.573 271.018 390.883 269.075C389.196 267.102 386.749 265.99 383.543 265.737L372.047 264.933L370.69 284.35Z" fill="#2E2E33"/>
<path fill-rule="evenodd" clip-rule="evenodd" d="M138.753 157.827C138.739 157.315 139.248 154.838 139.248 154.838C139.248 154.838 139.862 154.992 140.456 155.106C141.05 155.22 142.011 155.349 142.011 155.349C142.011 155.349 141.34 157.185 141.608 157.637C142.227 158.684 145.848 161.435 146.644 162.486C147.049 162.958 147.462 163.417 147.978 163.842C148.338 164.201 149.582 164.338 149.883 164.692C150.083 164.946 150.296 165.657 150.152 165.771C150.053 165.849 148.161 165.739 147.833 165.652C147.473 165.624 147.069 165.242 147.069 165.242C147.069 165.242 146.778 165.501 146.421 165.273C145.791 164.894 145.943 164.229 145.604 163.652C145.402 163.417 142.363 161.056 140.389 159.727C138.696 158.587 138.773 158.608 138.753 157.827ZM126.517 150.33C126.16 149.958 124.643 151.057 124.244 150.937C123.845 150.817 124.322 149.848 123.957 149.88C123.463 149.923 123.242 151.051 122.797 151.105C122.069 151.313 121.752 150.226 121.853 148.967C121.954 147.707 122.513 146.371 124.113 145.615C125.713 144.859 127.995 144.817 129.706 145.545C131.444 144.789 133.845 142.38 138.742 142.65C143.638 142.921 145.272 145.503 146.358 145.003C147.443 144.503 147.9 143.216 147.753 142.216C147.47 140.3 146.713 139.21 146.175 137.48C145.837 136.395 145.925 135.005 146.538 134.029C146.813 133.596 147.434 133.115 148.315 133.087C149.196 133.06 149.367 133.81 149.963 134.059C150.558 134.308 151.854 134.535 151.919 135.008C151.984 135.481 150.387 135.72 150.035 135.654C149.21 135.498 148.64 136.014 148.606 137.005C148.559 138.264 148.819 138.736 149.836 140.614C150.852 142.493 150.604 145.462 148.957 147.416C148.442 147.984 147.903 148.458 147.518 149.124C147.208 149.657 147.563 148.561 147.386 150.774C147.209 152.987 146.005 153.963 144.506 154.313C142.488 154.786 140.808 154.414 139.087 154.07C136.705 153.595 134.821 153.478 133.818 153.649C132.95 153.798 130.166 155.084 129.783 155.755C129.578 156.118 128.324 159.962 128.083 160.81C127.984 161.158 127.968 161.867 127.778 162.168C127.57 162.503 125.268 163.706 124.501 163.929C124.148 164.033 123.442 164.144 123.369 164.018C122.929 163.422 122.941 163.293 124.432 162.392C124.021 161.334 125.461 161.199 125.919 160.73C126.418 160.22 127.721 154.338 128.067 153.586C128.412 152.834 129.54 152.656 130.044 152.002C129.851 151.741 129.547 151.848 128.752 152.003C128.071 152.137 126.639 152.52 126.363 152.249C126.087 151.978 126.874 150.701 126.517 150.33Z" fill="#2E2E33"/>
<path fill-rule="evenodd" clip-rule="evenodd" d="M165.125 149.888L160.607 149.526L161.528 138.019L166.029 138.379C169.606 138.665 171.903 141.159 171.627 144.609C171.348 148.094 168.684 150.173 165.125 149.888ZM165.28 147.73C167.539 147.911 168.988 146.377 169.145 144.411C169.307 142.392 168.201 140.723 165.873 140.537L163.786 140.37L163.209 147.564L165.28 147.73ZM176.711 151.024C174.195 150.823 172.432 148.963 172.646 146.288C172.84 143.873 174.776 142.066 177.274 142.266C179.756 142.465 181.266 144.461 181.049 147.17L181.008 147.687L174.864 147.195C174.937 148.226 175.691 149.137 177.094 149.249C177.795 149.305 178.777 149.089 179.349 148.614L180.209 150.141C179.326 150.834 177.994 151.127 176.711 151.024ZM179.042 146.002C179.037 145.203 178.568 144.175 177.13 144.06C175.779 143.952 175.121 144.854 174.969 145.676L179.042 146.002ZM184.617 151.657C183.094 151.535 182.353 150.677 182.473 149.176L183.228 139.756L185.401 139.93L184.693 148.764C184.651 149.299 184.893 149.717 185.372 149.756C185.697 149.782 186.015 149.686 186.146 149.557L186.474 151.268C186.125 151.535 185.507 151.729 184.617 151.657ZM189.223 142.528C188.521 142.472 187.986 141.839 188.044 141.114C188.103 140.39 188.73 139.867 189.432 139.923C190.15 139.981 190.687 140.597 190.629 141.321C190.571 142.046 189.942 142.586 189.223 142.528ZM189.579 151.846L187.406 151.672L188.073 143.339L190.246 143.513L189.579 151.846ZM196.219 152.378L193.874 152.19L191.222 143.591L193.549 143.778L195.241 149.747L197.879 144.124L200.206 144.311L196.219 152.378ZM204.382 153.24C201.867 153.039 200.104 151.179 200.318 148.504C200.512 146.089 202.447 144.282 204.946 144.482C207.427 144.681 208.938 146.677 208.721 149.386L208.68 149.903L202.536 149.411C202.609 150.442 203.362 151.353 204.766 151.465C205.467 151.521 206.449 151.305 207.021 150.83L207.88 152.357C206.998 153.05 205.666 153.343 204.382 153.24ZM206.713 148.218C206.709 147.419 206.24 146.391 204.802 146.276C203.45 146.168 202.792 147.07 202.641 147.892L206.713 148.218ZM212.151 153.654L209.978 153.48L210.645 145.147L212.818 145.321L212.729 146.442C213.386 145.766 214.444 145.243 215.47 145.325L215.299 147.464C215.148 147.417 214.961 147.385 214.704 147.364C213.986 147.307 212.994 147.644 212.592 148.15L212.151 153.654ZM219.222 157.624C217.836 157.512 216.755 157.027 215.864 156.104L216.966 154.613C217.507 155.385 218.493 155.759 219.365 155.829C220.769 155.942 221.668 155.041 221.761 153.868L221.831 153.005C221.216 153.581 220.172 154.14 218.82 154.032C217.006 153.887 216.231 152.817 216.361 151.196L216.806 145.64L218.979 145.814L218.603 150.507C218.511 151.663 219.079 152.09 220.003 152.164C220.842 152.232 221.547 151.819 221.962 151.366L222.385 146.087L224.558 146.261L223.935 154.042C223.734 156.544 221.857 157.835 219.222 157.624ZM164.686 165.846C161.246 165.571 158.787 162.943 159.07 159.406C159.355 155.852 162.199 153.666 165.639 153.942C168.138 154.142 169.483 155.621 170.171 157.135L168.001 158.003C167.596 157.033 166.629 156.209 165.465 156.116C163.377 155.949 161.743 157.432 161.569 159.606C161.395 161.78 162.772 163.505 164.86 163.673C166.024 163.766 167.11 163.106 167.664 162.213L169.67 163.398C168.751 164.765 167.184 166.046 164.686 165.846ZM173.367 166.542C171.844 166.42 171.103 165.562 171.223 164.061L171.978 154.64L174.151 154.814L173.443 163.648C173.401 164.183 173.643 164.602 174.122 164.64C174.447 164.666 174.765 164.57 174.896 164.441L175.224 166.152C174.875 166.419 174.257 166.613 173.367 166.542ZM183.908 167.177L181.734 167.003L181.819 165.951C181.204 166.527 180.161 167.086 178.809 166.977C176.995 166.832 176.219 165.763 176.349 164.141L176.823 158.223L178.996 158.397L178.591 163.453C178.499 164.608 179.067 165.036 179.992 165.11C180.83 165.177 181.535 164.765 181.95 164.312L182.402 158.67L184.575 158.844L183.908 167.177ZM188.452 164.85C188.785 165.415 189.541 165.875 190.259 165.932C191.509 166.032 192.426 165.116 192.542 163.667C192.657 162.235 191.897 161.184 190.648 161.084C189.929 161.027 189.109 161.378 188.688 161.9L188.452 164.85ZM188.237 167.524L186.064 167.35L186.986 155.842L189.159 156.016L188.819 160.261C189.538 159.45 190.496 159.11 191.471 159.188C193.576 159.357 195.001 161.138 194.784 163.846C194.56 166.641 192.858 168.103 190.771 167.935C189.778 167.856 188.907 167.335 188.323 166.454L188.237 167.524Z" fill="#2E2E33"/>
<path d="M282.407 116.016C340.556 191.418 431.772 233.698 470.112 245.413" stroke="#0EC645" stroke-width="10" stroke-linecap="round" stroke-linejoin="round"/>
<path d="M415.62 239.064C403.527 231.875 378.847 214.176 376.868 200.897C374.395 184.299 419.076 185.335 431.817 191.87C444.557 198.405 439.488 206.841 434.518 211.917C418.143 228.643 385.553 205.463 369.289 195.344" stroke="#0EC645" stroke-width="10" stroke-linecap="round" stroke-linejoin="round"/>
<path d="M314.883 176.387C326.676 184.059 353.457 198.38 366.244 194.287C382.228 189.172 361.556 149.546 350.064 141.005C338.572 132.463 333.244 140.737 330.886 147.439C323.117 169.519 358.114 188.391 374.574 198.633" stroke="#0EC645" stroke-width="10" stroke-linecap="round" stroke-linejoin="round"/>
</g>
<rect x="82.6866" y="95.5099" width="397.304" height="314.457" rx="80" transform="rotate(4 82.6866 95.5099)" stroke="#2E2E33" stroke-width="16"/>
<path d="M47.8229 216.206C42.6012 210.783 42.9626 199.265 42.8078 192.305C40.0283 199.756 41.4022 208.076 36.2908 217.325C33.4737 222.422 26.2451 222.545 21.3665 223.545C24.9497 224.047 33.1357 225.344 36.4745 227.661C42.4108 231.781 43.2777 245.536 44.5001 253.168C45.688 246.126 46.7925 231.779 49.5464 227.957C53.1377 222.973 60.2008 222.184 64.7867 221.338C60.6491 220.635 51.8431 220.381 47.8229 216.206Z" fill="white" stroke="#2E2E33" stroke-width="4" stroke-linecap="round" stroke-linejoin="round"/>
<path d="M489.146 300.8C480.179 291.487 480.8 271.707 480.534 259.755C475.761 272.551 478.12 286.839 469.342 302.722C464.504 311.475 452.091 311.686 443.712 313.403C449.866 314.266 463.924 316.493 469.658 320.472C479.852 327.547 481.341 351.169 483.44 364.277C485.48 352.182 487.377 327.544 492.106 320.981C498.274 312.422 510.403 311.066 518.279 309.615C511.173 308.406 496.05 307.97 489.146 300.8Z" fill="white" stroke="#2E2E33" stroke-width="6.86926" stroke-linecap="round" stroke-linejoin="round"/>
<defs>
<clipPath id="clip0">
</clipPath>
</defs>
</svg>
