<svg width="45" height="40" viewBox="0 0 45 40" fill="none" xmlns="http://www.w3.org/2000/svg">
<path d="M39.3988 5.5817L39.4008 5.5837C43.902 10.1942 43.8947 17.3606 39.4085 21.9344L39.4082 21.9347L24.6708 36.966C23.4946 38.1656 21.5627 38.1656 20.3865 36.966L5.64912 21.9347L5.64882 21.9344C1.16173 17.3597 1.15613 10.1933 5.64762 5.5928L5.6505 5.58984C6.69733 4.51315 7.94043 3.66042 9.30718 3.07873C10.6735 2.49721 12.1376 2.19751 13.6157 2.1958C16.4039 2.19618 19.0971 3.26426 21.1605 5.19942L22.5285 6.48237L23.8966 5.1996C25.9604 3.2646 28.6537 2.1965 31.4421 2.1958C32.9183 2.19708 34.3806 2.49584 35.7455 3.07595C37.1107 3.65623 38.3526 4.50712 39.3988 5.5817Z" fill="#0EC645" stroke="#2E2E33" stroke-width="4"/>
</svg>
