<svg width="667" height="239" viewBox="0 0 667 239" fill="none" xmlns="http://www.w3.org/2000/svg">
<path d="M417.003 22.4638L648.353 2.16697L653.313 58.7007C635.334 61.3529 622.498 78.0866 624.152 96.9387C625.806 115.791 641.36 130.034 659.526 129.515L663.967 180.142L432.617 200.438L299.752 212.095L17.7812 236.833L12.8214 180.299C30.8002 177.647 43.6361 160.913 41.9822 142.061C40.3283 123.209 24.7747 108.966 6.60871 109.485L2.16714 58.8581L284.138 34.1203L417.003 22.4638Z" fill="white" fill-opacity="0.4" stroke="#2E2E33" stroke-width="4"/>
<path d="M223 125.775L218.354 126.174L217.61 117.49L192.19 119.668L192.937 128.376L188.266 128.777L187.168 116.251L190.063 116.003C191.44 114.154 192.451 111.747 193.095 108.784C193.755 105.804 194.05 102.577 193.981 99.103L193.461 83.8819L214.648 82.0663L217.356 113.664L221.977 113.268L223 125.775ZM195.39 115.547L212.661 114.067L210.282 86.312L198.29 87.3396L198.672 97.7945C198.81 101.883 198.564 105.4 197.934 108.345C197.321 111.289 196.473 113.69 195.39 115.547ZM223.808 103.457C223.587 100.879 223.891 98.5165 224.72 96.3708C225.566 94.2238 226.84 92.5136 228.544 91.2404C230.265 89.9658 232.284 89.2292 234.603 89.0305C238.187 88.7233 241.188 89.7159 243.606 92.008C246.041 94.2988 247.434 97.5036 247.787 101.623L247.814 101.939C248.034 104.501 247.737 106.846 246.923 108.974C246.123 111.085 244.856 112.786 243.121 114.078C241.402 115.369 239.359 116.116 236.991 116.319C233.423 116.625 230.422 115.632 227.988 113.341C225.57 111.049 224.186 107.86 223.836 103.773L223.808 103.457ZM228.379 103.604C228.629 106.523 229.503 108.809 231 110.461C232.514 112.112 234.406 112.84 236.676 112.646C238.963 112.45 240.702 111.402 241.896 109.503C243.087 107.588 243.545 105.016 243.268 101.789C243.021 98.9028 242.132 96.6267 240.6 94.961C239.084 93.2777 237.191 92.5333 234.92 92.7279C232.699 92.9182 230.982 93.9556 229.772 95.8399C228.561 97.7243 228.097 100.312 228.379 103.604ZM263.848 110.317C265.453 110.18 266.815 109.573 267.931 108.497C269.048 107.421 269.608 106.148 269.613 104.678L273.87 104.313C273.918 105.828 273.522 107.307 272.682 108.752C271.842 110.196 270.654 111.392 269.118 112.341C267.598 113.288 265.947 113.837 264.163 113.99C260.579 114.297 257.623 113.35 255.294 111.148C252.98 108.929 251.645 105.744 251.29 101.592L251.225 100.838C251.005 98.2758 251.28 95.957 252.05 93.8818C252.82 91.8065 254.033 90.1425 255.69 88.8897C257.363 87.6355 259.4 86.9056 261.8 86.6999C264.751 86.447 267.275 87.1209 269.373 88.7218C271.487 90.3212 272.729 92.5262 273.101 95.3368L268.844 95.7016C268.568 94.01 267.8 92.6709 266.539 91.6845C265.294 90.6804 263.819 90.2514 262.116 90.3973C259.83 90.5932 258.125 91.5724 257.002 93.3349C255.894 95.0798 255.473 97.509 255.74 100.623L255.813 101.474C256.073 104.507 256.897 106.788 258.286 108.319C259.675 109.85 261.529 110.516 263.848 110.317ZM296.258 87.9125L287.429 88.6692L289.371 111.34L284.871 111.726L282.928 89.0549L274.269 89.7969L273.956 86.1482L295.946 84.2638L296.258 87.9125ZM317.443 108.934C317.139 108.438 316.849 107.531 316.573 106.216C314.667 108.568 312.263 109.868 309.36 110.117C306.766 110.339 304.571 109.792 302.775 108.476C300.995 107.142 300.008 105.348 299.815 103.094C299.58 100.353 300.436 98.1401 302.382 96.4541C304.344 94.7504 307.213 93.7367 310.992 93.4129L315.37 93.0377L315.193 90.9701C315.058 89.3971 314.481 88.1887 313.461 87.345C312.44 86.485 311.013 86.1335 309.181 86.2906C307.575 86.4282 306.264 86.9489 305.247 87.8528C304.23 88.7568 303.771 89.7844 303.87 90.9358L299.345 91.3235C299.233 90.01 299.586 88.7055 300.407 87.41C301.241 86.097 302.423 85.0156 303.951 84.1659C305.495 83.3148 307.224 82.8072 309.138 82.6432C312.17 82.3834 314.611 82.942 316.461 84.319C318.309 85.6798 319.38 87.6872 319.672 90.3412L320.711 102.455C320.918 104.871 321.39 106.767 322.129 108.141L322.162 108.53L317.443 108.934ZM309.682 106.145C311.092 106.024 312.399 105.544 313.601 104.706C314.804 103.868 315.639 102.841 316.106 101.624L315.643 96.2243L312.116 96.5265C306.603 96.999 303.984 98.8488 304.261 102.076C304.382 103.487 304.946 104.549 305.955 105.263C306.964 105.977 308.206 106.271 309.682 106.145ZM327.709 108.055L325.454 81.7351L335.719 80.8554C339.222 80.5553 341.958 80.9415 343.929 82.0141C345.914 83.0692 347.008 84.7805 347.211 87.1481C347.316 88.3644 347.045 89.4984 346.4 90.5501C345.754 91.5857 344.739 92.424 343.357 93.0653C344.978 93.3021 346.313 93.9227 347.363 94.9272C348.429 95.9304 349.027 97.186 349.156 98.6942C349.363 101.11 348.63 103.036 346.956 104.47C345.298 105.902 342.848 106.757 339.604 107.035L327.709 108.055ZM331.219 96.1147L331.899 104.045L339.342 103.407C341.223 103.246 342.596 102.777 343.461 102C344.342 101.222 344.728 100.201 344.619 98.9359C344.394 96.3088 342.352 95.1607 338.492 95.4914L331.219 96.1147ZM330.911 92.5146L336.724 92.0164C340.941 91.6551 342.943 90.242 342.732 87.777C342.521 85.3121 340.417 84.21 336.421 84.4708L330.267 84.9982L330.911 92.5146ZM361.996 93.8203L358.712 94.1017L359.673 105.316L355.149 105.703L352.893 79.3837L357.418 78.996L358.372 90.1368L361.316 89.8845L369.215 77.985L374.664 77.518L365.337 91.0592L377.795 103.763L372.079 104.252L361.996 93.8203ZM396.916 102.124C396.612 101.627 396.322 100.721 396.046 99.4052C394.14 101.757 391.736 103.058 388.833 103.307C386.238 103.529 384.043 102.982 382.248 101.666C380.467 100.332 379.48 98.5377 379.287 96.2836C379.052 93.543 379.908 91.3297 381.855 89.6437C383.816 87.94 386.686 86.9263 390.464 86.6025L394.843 86.2273L394.666 84.1597C394.531 82.5867 393.953 81.3783 392.934 80.5346C391.913 79.6746 390.486 79.3231 388.653 79.4802C387.048 79.6178 385.737 80.1385 384.72 81.0425C383.703 81.9464 383.243 82.9741 383.342 84.1254L378.818 84.5132C378.705 83.1996 379.059 81.8951 379.879 80.5997C380.714 79.2866 381.895 78.2052 383.423 77.3555C384.968 76.5044 386.697 75.9968 388.61 75.8328C391.643 75.573 394.084 76.1316 395.933 77.5086C397.782 78.8695 398.852 80.8769 399.145 83.5308L400.183 95.6446C400.39 98.0609 400.863 99.9562 401.601 101.33L401.635 101.72L396.916 102.124ZM389.154 99.3341C390.565 99.2132 391.871 98.7337 393.074 97.8956C394.276 97.0574 395.111 96.0303 395.579 94.814L395.116 89.4139L391.589 89.7161C386.075 90.1886 383.457 92.0384 383.733 95.2655C383.854 96.6764 384.419 97.7388 385.427 98.4528C386.436 99.1668 387.678 99.4606 389.154 99.3341ZM449.367 81.6774L416.869 84.4623L416.554 80.7892L449.052 78.0043L449.367 81.6774ZM117.026 162.051C116.92 160.819 116.367 159.886 115.365 159.253C114.362 158.604 113.041 158.349 111.403 158.49C109.814 158.626 108.52 159.153 107.52 160.072C106.537 160.99 106.094 162.008 106.189 163.127L101.714 163.51C101.518 161.224 102.314 159.269 104.103 157.645C105.891 156.022 108.22 155.087 111.091 154.841C114.172 154.577 116.629 155.036 118.462 156.219C120.293 157.385 121.314 159.192 121.524 161.641C121.625 162.825 121.362 163.942 120.733 164.992C120.104 166.043 119.158 166.916 117.895 167.612C121.048 168.388 122.756 170.3 123.017 173.348C123.224 175.765 122.456 177.758 120.712 179.329C118.968 180.899 116.539 181.818 113.425 182.085C110.393 182.345 107.824 181.822 105.719 180.515C103.629 179.192 102.476 177.265 102.259 174.735L106.735 174.352C106.845 175.633 107.507 176.687 108.721 177.514C109.95 178.323 111.416 178.655 113.119 178.509C114.838 178.362 116.19 177.846 117.176 176.961C118.162 176.076 118.601 175.001 118.493 173.736C118.366 172.26 117.83 171.244 116.884 170.688C115.953 170.115 114.555 169.908 112.69 170.068L108.19 170.453L107.864 166.659L112.754 166.24C115.812 165.896 117.236 164.5 117.026 162.051ZM144.742 178.936C144.438 178.439 144.148 177.533 143.871 176.217C141.966 178.569 139.562 179.87 136.659 180.118C134.064 180.341 131.869 179.794 130.074 178.477C128.293 177.143 127.306 175.349 127.113 173.095C126.878 170.355 127.734 168.141 129.681 166.455C131.642 164.752 134.512 163.738 138.29 163.414L142.669 163.039L142.492 160.971C142.357 159.398 141.779 158.19 140.76 157.346C139.739 156.486 138.312 156.135 136.479 156.292C134.874 156.429 133.563 156.95 132.545 157.854C131.528 158.758 131.069 159.786 131.168 160.937L126.644 161.325C126.531 160.011 126.885 158.707 127.705 157.411C128.54 156.098 129.721 155.017 131.249 154.167C132.794 153.316 134.523 152.808 136.436 152.644C139.469 152.385 141.91 152.943 143.759 154.32C145.608 155.681 146.678 157.689 146.971 160.342L148.009 172.456C148.216 174.873 148.689 176.768 149.427 178.142L149.461 178.531L144.742 178.936ZM136.98 176.146C138.391 176.025 139.697 175.545 140.9 174.707C142.102 173.869 142.937 172.842 143.405 171.626L142.942 166.226L139.415 166.528C133.901 167 131.282 168.85 131.559 172.077C131.68 173.488 132.245 174.55 133.253 175.264C134.262 175.978 135.504 176.272 136.98 176.146ZM176.239 173.027C177.844 172.889 179.205 172.282 180.322 171.206C181.439 170.131 181.999 168.857 182.004 167.387L186.261 167.022C186.309 168.537 185.913 170.017 185.073 171.461C184.233 172.905 183.045 174.101 181.509 175.05C179.989 175.997 178.337 176.547 176.554 176.7C172.97 177.007 170.013 176.059 167.685 173.858C165.371 171.638 164.036 168.453 163.68 164.301L163.616 163.547C163.396 160.985 163.671 158.666 164.441 156.591C165.21 154.516 166.424 152.852 168.081 151.599C169.754 150.345 171.79 149.615 174.19 149.409C177.142 149.156 179.666 149.83 181.764 151.431C183.877 153.03 185.12 155.236 185.492 158.046L181.235 158.411C180.959 156.719 180.191 155.38 178.93 154.394C177.684 153.39 176.21 152.961 174.507 153.107C172.221 153.302 170.516 154.282 169.393 156.044C168.284 157.789 167.864 160.218 168.13 163.332L168.203 164.183C168.463 167.216 169.288 169.497 170.677 171.028C172.066 172.559 173.92 173.225 176.239 173.027ZM210.908 173.266L206.384 173.653L205.567 164.118C203.633 164.806 201.628 165.24 199.552 165.417C196.26 165.699 193.674 165.072 191.795 163.534C189.931 161.995 188.85 159.67 188.551 156.559L187.877 148.702L192.377 148.316L193.063 156.319C193.481 160.237 195.538 162.037 199.235 161.72C201.311 161.542 203.316 161.109 205.25 160.42L204.128 147.334L208.653 146.946L210.908 173.266ZM228.1 172.282C224.532 172.588 221.529 171.669 219.091 169.526C216.652 167.366 215.264 164.324 214.928 160.4L214.857 159.573C214.633 156.962 214.929 154.592 215.743 152.464C216.572 150.319 217.829 148.594 219.514 147.289C221.214 145.968 223.11 145.217 225.202 145.038C228.623 144.745 231.379 145.644 233.47 147.735C235.56 149.827 236.786 152.972 237.146 157.173L237.306 159.046L219.476 160.574C219.763 163.163 220.697 165.198 222.278 166.68C223.874 168.144 225.791 168.78 228.028 168.588C229.618 168.452 230.936 168.013 231.983 167.269C233.03 166.526 233.921 165.584 234.657 164.443L237.589 166.348C235.674 169.926 232.511 171.904 228.1 172.282ZM225.519 148.735C223.702 148.891 222.235 149.686 221.116 151.122C219.996 152.541 219.393 154.455 219.305 156.864L232.489 155.734L232.46 155.393C232.134 153.118 231.367 151.403 230.157 150.249C228.946 149.079 227.4 148.574 225.519 148.735ZM216.784 139.168C216.721 138.438 216.888 137.811 217.284 137.287C217.695 136.745 218.339 136.437 219.214 136.362C220.09 136.287 220.777 136.481 221.274 136.945C221.769 137.393 222.049 137.981 222.111 138.711C222.174 139.441 221.999 140.068 221.586 140.594C221.174 141.119 220.53 141.419 219.654 141.495C218.779 141.57 218.093 141.383 217.597 140.936C217.118 140.487 216.847 139.897 216.784 139.168ZM227.248 138.32C227.185 137.59 227.351 136.955 227.746 136.415C228.157 135.873 228.801 135.565 229.676 135.49C230.552 135.415 231.238 135.609 231.735 136.073C232.233 136.537 232.512 137.134 232.575 137.863C232.638 138.593 232.463 139.221 232.05 139.746C231.638 140.272 230.994 140.572 230.118 140.647C229.242 140.722 228.557 140.536 228.061 140.088C227.581 139.639 227.31 139.05 227.248 138.32ZM259.879 146.232L251.05 146.988L252.992 169.659L248.492 170.045L246.549 147.374L237.89 148.116L237.577 144.467L259.567 142.583L259.879 146.232ZM277.27 167.579L274.235 132.162L284.233 131.305C287.314 131.041 290.097 131.488 292.581 132.648C295.066 133.807 297.056 135.589 298.553 137.992C300.065 140.395 300.969 143.225 301.265 146.483L301.459 148.745C301.745 152.086 301.347 155.069 300.265 157.693C299.2 160.317 297.524 162.404 295.24 163.956C292.971 165.506 290.249 166.434 287.073 166.739L277.27 167.579ZM279.235 135.605L281.614 163.359L286.527 162.938C290.127 162.63 292.829 161.271 294.632 158.862C296.451 156.452 297.183 153.179 296.829 149.044L296.652 146.976C296.307 142.955 295.091 139.914 293.003 137.855C290.93 135.779 288.157 134.873 284.684 135.138L279.235 135.605ZM319.225 164.473C315.657 164.779 312.654 163.86 310.216 161.717C307.777 159.557 306.389 156.515 306.053 152.591L305.982 151.764C305.758 149.153 306.054 146.783 306.868 144.655C307.697 142.51 308.954 140.785 310.639 139.48C312.339 138.159 314.235 137.408 316.327 137.229C319.748 136.936 322.504 137.835 324.595 139.926C326.685 142.018 327.911 145.164 328.271 149.364L328.431 151.237L310.601 152.765C310.888 155.354 311.822 157.389 313.403 158.871C314.999 160.335 316.916 160.971 319.153 160.779C320.743 160.643 322.061 160.204 323.108 159.46C324.155 158.717 325.046 157.775 325.782 156.634L328.714 158.539C326.799 162.117 323.636 164.095 319.225 164.473ZM316.644 140.926C314.827 141.082 313.36 141.877 312.241 143.313C311.121 144.732 310.518 146.646 310.43 149.055L323.614 147.925L323.585 147.584C323.259 145.309 322.492 143.594 321.282 142.44C320.071 141.27 318.525 140.765 316.644 140.926ZM338.571 162.325L334.071 162.711L330.869 125.348L335.369 124.962L338.571 162.325ZM349.689 161.373L345.189 161.758L342.933 135.439L347.433 135.053L349.689 161.373ZM341.97 128.489C341.907 127.759 342.074 127.124 342.468 126.584C342.879 126.042 343.523 125.734 344.398 125.659C345.274 125.584 345.96 125.778 346.458 126.242C346.955 126.706 347.235 127.303 347.297 128.032C347.36 128.762 347.185 129.39 346.772 129.915C346.36 130.44 345.716 130.741 344.84 130.816C343.965 130.891 343.279 130.704 342.783 130.257C342.304 129.808 342.033 129.219 341.97 128.489ZM364.078 153.989L368.864 133.217L373.462 132.823L366.279 159.951L362.849 160.245L351.059 134.742L355.656 134.349L364.078 153.989ZM389.674 158.436C386.106 158.742 383.103 157.823 380.665 155.68C378.226 153.52 376.838 150.478 376.502 146.554L376.431 145.727C376.207 143.116 376.502 140.746 377.316 138.618C378.145 136.473 379.402 134.748 381.088 133.443C382.788 132.121 384.684 131.371 386.775 131.192C390.197 130.898 392.953 131.798 395.044 133.889C397.134 135.981 398.36 139.126 398.719 143.327L398.88 145.2L381.05 146.727C381.337 149.317 382.271 151.352 383.852 152.834C385.448 154.298 387.364 154.934 389.602 154.742C391.192 154.606 392.51 154.166 393.557 153.423C394.604 152.68 395.495 151.738 396.231 150.597L399.163 152.502C397.248 156.08 394.085 158.058 389.674 158.436ZM387.092 134.889C385.276 135.045 383.809 135.84 382.69 137.276C381.57 138.695 380.967 140.609 380.879 143.018L394.063 141.888L394.034 141.547C393.708 139.272 392.94 137.557 391.731 136.403C390.52 135.232 388.973 134.728 387.092 134.889ZM414.943 133.335C414.252 133.28 413.51 133.287 412.715 133.355C409.764 133.608 407.869 135.036 407.03 137.64L408.631 156.322L404.131 156.707L401.875 130.388L406.254 130.013L406.587 133.047C407.862 130.569 409.853 129.214 412.561 128.982C413.437 128.907 414.111 128.963 414.585 129.152L414.943 133.335ZM428.5 147.979L432.939 127.726L437.755 127.313L429.778 158.602C428.515 163.12 426.1 165.533 422.532 165.838L421.675 165.838L419.969 165.666L419.656 162.017L420.881 162.01C422.405 161.88 423.563 161.47 424.353 160.782C425.16 160.092 425.769 158.904 426.18 157.219L426.948 154.458L415.328 129.235L420.242 128.814L428.5 147.979ZM480.208 138.867C480.091 142.651 478.952 145.664 476.792 147.908C474.647 150.133 471.645 151.412 467.785 151.743C463.601 152.101 460.116 150.889 457.329 148.105C454.558 145.321 452.957 141.415 452.527 136.388L452.235 132.982C451.953 129.69 452.288 126.746 453.242 124.148C454.212 121.549 455.718 119.493 457.761 117.978C459.802 116.447 462.242 115.56 465.08 115.317C468.842 114.995 471.949 115.79 474.4 117.704C476.85 119.601 478.42 122.391 479.111 126.072L474.416 126.475C473.769 123.688 472.71 121.72 471.24 120.572C469.785 119.422 467.842 118.952 465.409 119.16C462.426 119.416 460.177 120.72 458.663 123.071C457.165 125.421 456.591 128.631 456.94 132.701L457.234 136.131C457.563 139.975 458.628 142.963 460.428 145.095C462.228 147.228 464.571 148.171 467.458 147.923C470.052 147.701 471.989 146.947 473.267 145.661C474.56 144.358 475.309 142.227 475.513 139.27L480.208 138.867ZM490.756 149.284L486.256 149.67L483.054 112.307L487.554 111.921L490.756 149.284ZM513.01 144.755C511.435 146.965 508.953 148.215 505.564 148.505C502.758 148.745 500.548 148.118 498.933 146.623C497.333 145.11 496.389 142.757 496.099 139.564L494.631 122.439L499.131 122.053L500.588 139.057C500.93 143.046 502.723 144.901 505.966 144.624C509.404 144.329 511.581 142.852 512.496 140.192L510.856 121.049L515.356 120.663L517.611 146.983L513.33 147.349L513.01 144.755ZM544.653 131.703C544.998 135.725 544.351 139.039 542.712 141.646C541.072 144.237 538.695 145.666 535.581 145.933C532.257 146.218 529.586 145.262 527.568 143.066L527.61 146.126L523.475 146.48L520.273 109.117L524.773 108.731L525.967 122.67C527.59 120.26 529.999 118.918 533.194 118.644C536.389 118.371 538.998 119.364 541.021 121.625C543.06 123.884 544.26 127.114 544.62 131.314L544.653 131.703ZM540.11 131.578C539.847 128.513 539.052 126.196 537.725 124.627C536.398 123.058 534.624 122.369 532.402 122.559C529.435 122.814 527.42 124.375 526.359 127.243L527.335 138.627C528.949 141.265 531.216 142.46 534.135 142.21C536.292 142.025 537.899 141.046 538.956 139.273C540.013 137.499 540.397 134.934 540.11 131.578ZM554.63 133.739L550.568 134.087L548.074 108.695L552.793 108.291L554.63 133.739ZM550.745 141.864C550.682 141.135 550.849 140.508 551.245 139.984C551.656 139.442 552.299 139.134 553.175 139.059C554.051 138.984 554.737 139.178 555.234 139.642C555.73 140.089 556.009 140.678 556.072 141.408C556.134 142.138 555.959 142.765 555.547 143.291C555.133 143.8 554.488 144.092 553.613 144.167C552.737 144.242 552.052 144.064 551.558 143.632C551.078 143.183 550.807 142.594 550.745 141.864Z" fill="#2E2E33"/>
</svg>
