<svg width="473" height="170" viewBox="0 0 473 170" fill="none" xmlns="http://www.w3.org/2000/svg">
<path d="M295.957 17.3268L459.115 3.01261L462.526 41.8998C449.767 44.0762 440.756 56.0625 441.935 69.5059C443.115 82.9493 454.076 93.1834 467.019 93.1049L470.064 127.811L306.905 142.125L212.869 150.375L13.884 167.833L10.4724 128.946C23.2315 126.769 32.243 114.783 31.0636 101.339C29.8842 87.8961 18.9232 77.662 5.98007 77.7405L2.93521 43.0341L201.92 25.5768L295.957 17.3268Z" stroke="#2E2E33" stroke-width="4"/>
<path d="M199.33 74.358L192.892 74.9673L190.436 49.0228L177.966 50.203L180.423 76.1475L174.006 76.7548L171.058 45.6129L196.382 43.216L199.33 74.358ZM224.328 60.5328C224.666 64.0976 224.123 67.0335 222.702 69.3405C221.293 71.6319 219.213 72.9078 216.461 73.1683C214.122 73.3896 212.156 72.7556 210.562 71.2664L211.594 82.1747L205.413 82.7597L202.38 50.7194L208.112 50.1769L208.54 52.4238C209.867 50.4855 211.736 49.4022 214.146 49.1742C216.997 48.9042 219.315 49.7496 221.097 51.7101C222.88 53.6707 223.947 56.5046 224.298 60.212L224.328 60.5328ZM218.104 60.6687C217.9 58.5156 217.358 56.8908 216.477 55.7945C215.611 54.6967 214.45 54.2167 212.996 54.3544C211.057 54.5379 209.794 55.4056 209.207 56.9573L210.104 66.4326C211.004 67.8868 212.424 68.5221 214.363 68.3385C217.315 68.0592 218.562 65.5026 218.104 60.6687ZM241.008 47.0633L247.189 46.4783L249.38 69.6209L243.199 70.2059L241.846 55.9183L235.456 70.9388L229.253 71.5258L227.062 48.3832L233.265 47.7962L234.616 62.0625L241.008 47.0633ZM264.711 51.7041C264.634 50.8913 264.304 50.2895 263.72 49.8988C263.149 49.4924 262.372 49.3358 261.388 49.4289C260.375 49.5247 259.569 49.8169 258.967 50.3054C258.379 50.7783 258.122 51.3998 258.194 52.1698L252.013 52.7548C251.815 50.6587 252.523 48.8724 254.139 47.3959C255.754 45.9194 257.916 45.053 260.626 44.7965C263.606 44.5145 266 44.8778 267.807 45.8864C269.629 46.8937 270.642 48.4739 270.846 50.6271C270.943 51.6537 270.719 52.6317 270.174 53.5608C269.642 54.4744 268.837 55.2412 267.759 55.8611C270.484 56.5383 271.973 58.203 272.224 60.8552C272.425 62.9798 271.673 64.763 269.968 66.2048C268.276 67.631 265.919 68.4872 262.896 68.7733C260.087 69.0392 257.714 68.6019 255.779 67.4614C253.844 66.321 252.771 64.6386 252.561 62.4141L258.742 61.8291C258.816 62.6133 259.226 63.2148 259.97 63.6335C260.715 64.0522 261.651 64.2082 262.777 64.1016C263.875 63.9977 264.706 63.66 265.271 63.0887C265.835 62.5173 266.078 61.8181 266 60.9911C265.904 59.9787 265.544 59.2863 264.919 58.9138C264.292 58.5271 263.394 58.3891 262.225 58.4998L258.867 58.8176L258.486 54.7965L262.058 54.4584C263.978 54.2192 264.862 53.3011 264.711 51.7041ZM281.668 50.0559L286.096 49.6369C288.092 49.4479 289.877 49.617 291.452 50.1442C293.027 50.6713 294.273 51.5245 295.191 52.7037C296.121 53.8673 296.664 55.2761 296.821 56.9302C297.052 59.3685 296.333 61.422 294.664 63.0906C293.007 64.7436 290.625 65.7172 287.516 66.0114L277.014 67.0054L274.823 43.8628L281.026 43.2757L281.668 50.0559ZM307.429 64.1267L301.248 64.7117L299.057 41.5692L305.238 40.9841L307.429 64.1267ZM282.138 55.0181L282.749 61.4775L287.134 61.0625C288.36 60.9465 289.275 60.5722 289.876 59.9397C290.478 59.3073 290.733 58.4991 290.64 57.5153C290.545 56.5171 290.149 55.7561 289.452 55.2322C288.754 54.6941 287.777 54.4844 286.523 54.6031L282.138 55.0181ZM79.3689 129.334L76.8878 129.569L77.6958 138.103L71.5144 138.688L69.3233 115.545L75.5046 114.96L76.3288 123.665L78.5319 123.457L82.7554 114.274L90.5623 113.535L84.0336 125.267L93.4593 136.611L85.2246 137.39L79.3689 129.334ZM109.201 135.121C108.864 134.592 108.591 133.92 108.385 133.105C107.045 134.915 105.178 135.933 102.783 136.16C100.515 136.375 98.571 135.897 96.9496 134.727C95.3424 133.555 94.4443 131.971 94.2553 129.975C94.0231 127.522 94.7504 125.555 96.4371 124.071C98.1381 122.587 100.706 121.675 104.141 121.335L106.986 121.066L106.86 119.74C106.759 118.67 106.4 117.841 105.783 117.252C105.181 116.662 104.288 116.423 103.104 116.535C102.063 116.633 101.267 116.96 100.715 117.516C100.178 118.07 99.9503 118.782 100.033 119.652L93.8513 120.237C93.7244 118.897 94.0205 117.617 94.7395 116.398C95.4585 115.179 96.5434 114.177 97.9941 113.393C99.4435 112.594 101.109 112.105 102.992 111.927C105.843 111.657 108.172 112.163 109.976 113.446C111.794 114.712 112.826 116.643 113.071 119.238L114.021 129.27C114.243 131.464 114.707 133.096 115.413 134.166L115.447 134.53L109.201 135.121ZM103.682 131.306C104.595 131.219 105.417 130.94 106.15 130.468C106.881 129.981 107.399 129.378 107.705 128.659L107.328 124.681L105.018 124.899C101.924 125.192 100.378 126.417 100.381 128.575L100.394 128.941C100.467 129.711 100.798 130.32 101.387 130.767C101.976 131.215 102.741 131.395 103.682 131.306ZM140.729 123.483L137.927 123.748L138.739 132.325L132.558 132.91L131.746 124.333L128.987 124.594L125.2 133.607L117.736 134.313L123.883 121.517L115.63 111.162L123.287 110.438L128.918 118.623L131.185 118.409L130.367 109.768L136.548 109.183L137.366 117.824L139.676 117.605L143.692 108.506L151.349 107.782L145.215 119.347L153.733 130.906L146.14 131.625L140.729 123.483ZM156.555 125.611C157.812 123.996 158.621 122.437 158.982 120.935C159.344 119.434 159.427 117.347 159.231 114.675L158.686 107.087L175.711 105.476L177.43 123.635L180.767 123.319L181.897 135.254L175.716 135.839L175.058 128.888L161.347 130.185L162.005 137.137L155.696 137.734L154.566 125.799L156.555 125.611ZM163.849 124.92L171.27 124.218L170.035 111.171L165.223 111.626L165.443 114.411C165.717 118.672 165.186 122.175 163.849 124.92ZM192.196 118.439L195.111 103.64L201.741 103.012L194.968 130.629L194.571 131.896C193.474 135.05 191.335 136.778 188.155 137.079C187.257 137.164 186.332 137.115 185.379 136.931L184.936 132.247L185.879 132.18C187.048 132.069 187.901 131.808 188.438 131.398C188.989 130.986 189.389 130.351 189.638 129.493L190.185 127.521L179.882 105.081L186.534 104.452L192.196 118.439ZM211.715 111.024L215.051 110.708C215.235 107.785 216.197 105.406 217.936 103.573C219.689 101.723 222.013 100.662 224.908 100.388C228.03 100.092 230.666 100.807 232.815 102.531C234.978 104.254 236.328 106.745 236.867 110.003L237.06 111.582C237.396 115.132 236.675 118.078 234.897 120.419C233.117 122.745 230.559 124.066 227.222 124.382C224.214 124.667 221.665 124.03 219.575 122.473C217.499 120.914 216.128 118.663 215.461 115.719L212.189 116.029L213.065 125.29L206.863 125.877L204.672 102.735L210.874 102.148L211.715 111.024ZM221.318 113.072C221.526 115.268 222.098 116.911 223.036 118.002C223.972 119.079 225.211 119.544 226.751 119.398C228.276 119.254 229.398 118.565 230.116 117.332C230.833 116.099 231.073 114.227 230.836 111.718C230.632 109.565 230.053 107.936 229.1 106.832C228.147 105.728 226.907 105.249 225.381 105.393C223.87 105.536 222.757 106.238 222.042 107.5C221.325 108.748 221.084 110.605 221.318 113.072ZM272.89 119.628L266.687 120.215L265.845 111.318L258.166 112.044L259.008 120.942L252.827 121.527L250.636 98.3844L256.817 97.7994L257.696 107.082L265.375 106.355L264.496 97.0726L270.699 96.4856L272.89 119.628ZM288.373 118.594C284.979 118.916 282.115 118.136 279.779 116.257C277.457 114.376 276.132 111.703 275.804 108.238L275.747 107.64C275.527 105.315 275.78 103.198 276.505 101.288C277.23 99.3635 278.365 97.8317 279.912 96.6926C281.471 95.5379 283.306 94.8607 285.416 94.661C288.582 94.3614 291.165 95.124 293.165 96.9489C295.179 98.7724 296.359 101.516 296.706 105.181L296.945 107.705L282.208 109.1C282.551 110.592 283.265 111.748 284.349 112.566C285.448 113.383 286.768 113.718 288.308 113.572C290.689 113.347 292.468 112.308 293.645 110.456L297.004 113.569C296.202 114.969 295.044 116.114 293.531 117.006C292.017 117.883 290.298 118.412 288.373 118.594ZM285.869 99.6679C284.643 99.784 283.684 100.292 282.992 101.192C282.315 102.09 281.942 103.32 281.874 104.88L290.472 104.066L290.425 103.574C290.267 102.208 289.797 101.188 289.013 100.514C288.229 99.8258 287.181 99.5438 285.869 99.6679ZM301.229 111.918C302.486 110.303 303.295 108.744 303.656 107.242C304.018 105.741 304.101 103.654 303.905 100.982L303.359 93.3943L320.385 91.7829L322.104 109.942L325.441 109.626L326.571 121.561L320.389 122.146L319.731 115.195L306.021 116.492L306.679 123.444L300.37 124.041L299.24 112.106L301.229 111.918ZM308.522 111.227L315.944 110.525L314.709 97.4778L309.896 97.9333L310.117 100.718C310.391 104.979 309.859 108.482 308.522 111.227ZM339.749 113.732C336.355 114.053 333.49 113.274 331.154 111.394C328.833 109.514 327.508 106.841 327.18 103.376L327.123 102.777C326.903 100.453 327.156 98.3355 327.881 96.4253C328.605 94.5009 329.741 92.9691 331.287 91.83C332.847 90.6753 334.682 89.9981 336.792 89.7984C339.958 89.4988 342.541 90.2614 344.541 92.0863C346.555 93.9098 347.735 96.6539 348.082 100.318L348.321 102.842L333.584 104.237C333.927 105.73 334.641 106.885 335.725 107.703C336.824 108.52 338.143 108.855 339.683 108.71C342.065 108.484 343.844 107.446 345.021 105.593L348.38 108.707C347.577 110.106 346.42 111.252 344.907 112.143C343.393 113.02 341.674 113.55 339.749 113.732ZM337.245 94.8054C336.019 94.9214 335.06 95.4294 334.368 96.3293C333.69 97.2279 333.318 98.4573 333.25 100.018L341.848 99.2037L341.801 98.7118C341.643 97.3456 341.172 96.3255 340.389 95.6515C339.605 94.9632 338.557 94.6812 337.245 94.8054ZM370.691 87.0215L372.882 110.164L366.701 110.749L364.984 92.6116L359.53 93.1278L359.821 100.308C359.939 104.138 359.453 106.982 358.363 108.841C357.273 110.699 355.489 111.767 353.012 112.045L350.916 112.243L350.376 107.223L351.14 107.086C352.244 106.895 352.995 106.162 353.392 104.887C353.789 103.612 353.912 101.493 353.761 98.5293L353.259 88.6714L370.691 87.0215ZM382.996 94.8128L386.333 94.497C386.516 91.5734 387.478 89.1949 389.218 87.3613C390.971 85.5122 393.294 84.4506 396.189 84.1766C399.312 83.8811 401.947 84.5955 404.096 86.32C406.259 88.0432 407.61 90.5337 408.149 93.7917L408.341 95.3705C408.677 98.921 407.956 101.867 406.178 104.207C404.399 106.534 401.841 107.855 398.504 108.171C395.495 108.456 392.946 107.819 390.856 106.262C388.781 104.703 387.41 102.452 386.742 99.508L383.47 99.8177L384.347 109.079L378.144 109.666L375.953 86.5235L382.156 85.9365L382.996 94.8128ZM392.599 96.8604C392.807 99.0563 393.38 100.7 394.317 101.791C395.254 102.867 396.492 103.333 398.032 103.187C399.558 103.043 400.679 102.354 401.397 101.121C402.115 99.8874 402.355 98.016 402.117 95.5063C401.913 93.3532 401.335 91.7247 400.381 90.6208C399.428 89.5169 398.189 89.0372 396.663 89.1816C395.151 89.3247 394.038 90.0271 393.323 91.2889C392.607 92.5364 392.365 94.3936 392.599 96.8604ZM418.583 96.1922L413.45 96.6781L410.68 75.1657L417.267 74.5422L418.583 96.1922ZM416.337 99.8146C417.378 99.7161 418.241 99.9437 418.926 100.497C419.626 101.05 420.021 101.804 420.111 102.759C420.201 103.7 419.953 104.508 419.37 105.182C418.8 105.854 417.995 106.24 416.954 106.338C415.928 106.435 415.064 106.208 414.365 105.655C413.679 105.102 413.292 104.354 413.203 103.413C413.114 102.472 413.354 101.665 413.923 100.993C414.506 100.304 415.31 99.9118 416.337 99.8146Z" fill="#2E2E33"/>
</svg>
