<svg width="667" height="240" viewBox="0 0 667 240" fill="none" xmlns="http://www.w3.org/2000/svg">
<path d="M417.027 22.8976L648.378 2.60081L653.338 59.1345C635.359 61.7867 622.523 78.5204 624.177 97.3725C625.831 116.225 641.384 130.468 659.55 129.949L663.992 180.575L432.641 200.872L299.776 212.529L17.8058 237.267L12.846 180.733C30.8249 178.081 43.6608 161.347 42.0069 142.495C40.3529 123.643 24.7994 109.4 6.63337 109.919L2.1918 59.2919L284.162 34.5541L417.027 22.8976Z" fill="white" fill-opacity="0.5" stroke="#2E2E33" stroke-width="4"/>
<path d="M237.075 126.017L232.894 126.375L232.224 118.56L209.347 120.52L210.018 128.358L205.815 128.718L204.827 117.445L207.432 117.222C208.671 115.557 209.581 113.392 210.161 110.725C210.755 108.042 211.02 105.138 210.958 102.012L210.49 88.3128L229.558 86.6788L231.995 115.117L236.155 114.761L237.075 126.017ZM212.227 116.811L227.77 115.479L225.63 90.4999L214.837 91.4248L215.18 100.834C215.304 104.514 215.083 107.679 214.516 110.33C213.964 112.979 213.201 115.14 212.227 116.811ZM237.803 105.93C237.604 103.61 237.878 101.484 238.624 99.5528C239.384 97.6205 240.532 96.0814 242.065 94.9355C243.614 93.7884 245.431 93.1254 247.518 92.9465C250.744 92.6701 253.445 93.5634 255.621 95.6263C257.812 97.688 259.066 100.572 259.384 104.279L259.408 104.564C259.606 106.87 259.338 108.981 258.606 110.896C257.886 112.795 256.746 114.327 255.184 115.49C253.637 116.651 251.798 117.323 249.667 117.506C246.456 117.781 243.755 116.888 241.564 114.826C239.388 112.763 238.142 109.893 237.827 106.215L237.803 105.93ZM241.916 106.063C242.141 108.69 242.928 110.747 244.275 112.234C245.638 113.72 247.341 114.375 249.384 114.2C251.442 114.024 253.008 113.081 254.081 111.372C255.154 109.648 255.566 107.334 255.317 104.43C255.094 101.832 254.294 99.7831 252.916 98.284C251.551 96.769 249.847 96.0991 247.804 96.2742C245.804 96.4455 244.259 97.3791 243.17 99.075C242.08 100.771 241.662 103.1 241.916 106.063ZM273.839 112.105C275.283 111.981 276.508 111.435 277.513 110.467C278.518 109.498 279.023 108.352 279.027 107.029L282.858 106.701C282.902 108.064 282.545 109.396 281.789 110.696C281.033 111.995 279.964 113.072 278.582 113.926C277.214 114.778 275.727 115.273 274.122 115.41C270.896 115.687 268.236 114.834 266.14 112.853C264.057 110.855 262.856 107.988 262.536 104.252L262.478 103.573C262.28 101.267 262.528 99.1804 263.22 97.3127C263.913 95.445 265.005 93.9474 266.496 92.8198C268.002 91.691 269.835 91.0341 271.995 90.849C274.651 90.6214 276.923 91.2279 278.811 92.6687C280.713 94.1082 281.832 96.0927 282.166 98.6222L278.335 98.9505C278.087 97.4281 277.395 96.2229 276.261 95.3351C275.14 94.4315 273.813 94.0453 272.28 94.1766C270.222 94.353 268.688 95.2343 267.677 96.8205C266.68 98.3909 266.301 100.577 266.541 103.379L266.607 104.146C266.841 106.875 267.583 108.928 268.833 110.306C270.083 111.684 271.751 112.284 273.839 112.105ZM303.008 91.9404L295.061 92.6214L296.81 113.025L292.759 113.372L291.011 92.9685L283.217 93.6363L282.936 90.3525L302.727 88.6565L303.008 91.9404ZM322.074 110.86C321.801 110.413 321.54 109.597 321.291 108.413C319.576 110.53 317.412 111.701 314.8 111.925C312.465 112.125 310.489 111.632 308.873 110.448C307.271 109.247 306.382 107.632 306.209 105.604C305.997 103.137 306.768 101.145 308.519 99.6278C310.285 98.0945 312.867 97.1821 316.268 96.8907L320.209 96.553L320.049 94.6922C319.928 93.2765 319.408 92.1889 318.491 91.4296C317.571 90.6556 316.287 90.3393 314.638 90.4806C313.193 90.6044 312.013 91.0731 311.098 91.8867C310.182 92.7002 309.769 93.6251 309.858 94.6613L305.786 95.0103C305.685 93.8281 306.003 92.654 306.741 91.4881C307.493 90.3064 308.556 89.3331 309.931 88.5684C311.321 87.8024 312.877 87.3456 314.599 87.198C317.329 86.9641 319.526 87.4668 321.19 88.7062C322.854 89.931 323.817 91.7376 324.081 94.1262L325.015 105.029C325.201 107.203 325.627 108.909 326.291 110.146L326.321 110.496L322.074 110.86ZM315.089 108.349C316.359 108.24 317.534 107.809 318.617 107.054C319.699 106.3 320.45 105.376 320.871 104.281L320.454 99.4209L317.28 99.693C312.318 100.118 309.961 101.783 310.21 104.687C310.319 105.957 310.827 106.913 311.735 107.556C312.643 108.199 313.761 108.463 315.089 108.349ZM331.314 110.068L329.284 86.3807L338.522 85.589C341.675 85.3188 344.138 85.6664 345.911 86.6318C347.698 87.5814 348.683 89.1216 348.866 91.2524C348.959 92.347 348.716 93.3676 348.136 94.3142C347.554 95.2462 346.641 96.0007 345.396 96.5778C346.855 96.7909 348.057 97.3495 349.002 98.2536C349.962 99.1564 350.5 100.287 350.616 101.644C350.802 103.818 350.142 105.551 348.636 106.842C347.144 108.131 344.938 108.901 342.019 109.151L331.314 110.068ZM334.473 99.3223L335.084 106.459L341.783 105.885C343.476 105.74 344.712 105.318 345.49 104.619C346.283 103.919 346.63 103 346.533 101.861C346.33 99.497 344.492 98.4637 341.019 98.7614L334.473 99.3223ZM334.195 96.0822L339.427 95.6338C343.222 95.3087 345.024 94.0369 344.834 91.8184C344.644 89.6 342.751 88.6081 339.154 88.8428L333.615 89.3175L334.195 96.0822ZM362.172 97.2574L359.216 97.5106L360.081 107.603L356.009 107.952L353.979 84.2644L358.051 83.9154L358.911 93.9422L361.56 93.7152L368.669 83.0056L373.573 82.5853L365.179 94.7723L376.391 106.205L371.246 106.646L362.172 97.2574ZM393.599 104.731C393.326 104.284 393.065 103.468 392.816 102.284C391.101 104.401 388.937 105.571 386.325 105.795C383.99 105.995 382.014 105.503 380.398 104.318C378.796 103.118 377.908 101.503 377.734 99.4744C377.522 97.0078 378.293 95.0158 380.044 93.4984C381.81 91.9651 384.393 91.0528 387.793 90.7614L391.734 90.4237L391.574 88.5628C391.453 87.1471 390.933 86.0596 390.016 85.3002C389.097 84.5262 387.812 84.2099 386.163 84.3513C384.718 84.4751 383.538 84.9438 382.623 85.7573C381.708 86.5708 381.294 87.4957 381.383 88.532L377.311 88.8809C377.21 87.6987 377.528 86.5247 378.266 85.3588C379.018 84.177 380.081 83.2038 381.456 82.439C382.846 81.673 384.402 81.2162 386.125 81.0686C388.854 80.8348 391.051 81.3375 392.715 82.5768C394.379 83.8016 395.342 85.6083 395.606 87.9968L396.54 98.8993C396.726 101.074 397.152 102.78 397.817 104.016L397.847 104.367L393.599 104.731ZM386.614 102.22C387.884 102.111 389.06 101.679 390.142 100.925C391.224 100.171 391.975 99.2463 392.396 98.1517L391.98 93.2916L388.805 93.5636C383.843 93.9889 381.486 95.6537 381.735 98.5581C381.844 99.8278 382.352 100.784 383.26 101.427C384.168 102.069 385.286 102.334 386.614 102.22ZM440.806 86.3287L411.558 88.8352L411.274 85.5294L440.523 83.023L440.806 86.3287ZM141.656 158.167C141.561 157.058 141.063 156.218 140.161 155.649C139.258 155.064 138.07 154.835 136.596 154.962C135.165 155.084 134.001 155.559 133.101 156.386C132.216 157.211 131.817 158.128 131.903 159.135L127.875 159.48C127.699 157.422 128.415 155.663 130.025 154.202C131.635 152.74 133.731 151.899 136.314 151.678C139.087 151.44 141.299 151.853 142.948 152.918C144.597 153.967 145.515 155.594 145.704 157.798C145.795 158.863 145.558 159.869 144.992 160.814C144.426 161.759 143.575 162.545 142.438 163.172C145.276 163.87 146.813 165.59 147.048 168.334C147.234 170.509 146.543 172.303 144.973 173.717C143.404 175.13 141.218 175.957 138.416 176.197C135.686 176.431 133.374 175.96 131.48 174.785C129.599 173.593 128.561 171.859 128.366 169.582L132.394 169.237C132.493 170.39 133.089 171.339 134.182 172.083C135.288 172.812 136.607 173.11 138.14 172.979C139.687 172.847 140.904 172.382 141.791 171.586C142.679 170.789 143.074 169.822 142.976 168.683C142.862 167.355 142.38 166.441 141.528 165.94C140.69 165.424 139.432 165.238 137.753 165.382L133.703 165.729L133.411 162.314L137.811 161.937C140.563 161.627 141.845 160.371 141.656 158.167ZM166.6 173.363C166.327 172.916 166.066 172.1 165.817 170.916C164.102 173.033 161.938 174.204 159.326 174.427C156.99 174.628 155.015 174.135 153.399 172.951C151.796 171.75 150.908 170.135 150.734 168.107C150.523 165.64 151.293 163.648 153.045 162.131C154.81 160.597 157.393 159.685 160.794 159.394L164.734 159.056L164.575 157.195C164.454 155.779 163.934 154.692 163.016 153.933C162.097 153.159 160.813 152.842 159.164 152.984C157.719 153.107 156.539 153.576 155.624 154.39C154.708 155.203 154.295 156.128 154.384 157.164L150.312 157.513C150.211 156.331 150.529 155.157 151.267 153.991C152.018 152.809 153.082 151.836 154.457 151.071C155.847 150.305 157.403 149.849 159.125 149.701C161.854 149.467 164.051 149.97 165.716 151.209C167.379 152.434 168.343 154.241 168.606 156.629L169.541 167.532C169.727 169.706 170.153 171.412 170.817 172.649L170.847 172.999L166.6 173.363ZM159.615 170.852C160.884 170.743 162.06 170.312 163.142 169.557C164.225 168.803 164.976 167.879 165.397 166.784L164.98 161.924L161.806 162.196C156.844 162.621 154.487 164.286 154.736 167.19C154.845 168.46 155.353 169.416 156.261 170.059C157.168 170.702 158.286 170.966 159.615 170.852ZM194.948 168.045C196.392 167.921 197.617 167.375 198.622 166.407C199.627 165.438 200.132 164.293 200.136 162.969L203.967 162.641C204.011 164.004 203.654 165.336 202.898 166.636C202.142 167.935 201.073 169.012 199.691 169.866C198.323 170.718 196.836 171.213 195.231 171.351C192.005 171.627 189.345 170.774 187.249 168.793C185.166 166.795 183.965 163.928 183.645 160.192L183.587 159.513C183.389 157.207 183.637 155.121 184.329 153.253C185.022 151.385 186.114 149.888 187.605 148.76C189.111 147.631 190.944 146.974 193.104 146.789C195.76 146.562 198.032 147.168 199.92 148.609C201.822 150.048 202.941 152.033 203.275 154.562L199.444 154.891C199.196 153.368 198.504 152.163 197.37 151.275C196.249 150.372 194.922 149.985 193.389 150.117C191.331 150.293 189.797 151.174 188.786 152.761C187.789 154.331 187.41 156.517 187.65 159.32L187.716 160.086C187.95 162.815 188.692 164.869 189.942 166.246C191.192 167.624 192.86 168.224 194.948 168.045ZM226.15 168.26L222.078 168.609L221.343 160.027C219.602 160.647 217.798 161.036 215.93 161.197C212.967 161.45 210.64 160.885 208.948 159.501C207.271 158.116 206.297 156.024 206.028 153.224L205.422 146.153L209.472 145.805L210.089 153.008C210.465 156.534 212.317 158.154 215.644 157.869C217.513 157.709 219.317 157.319 221.058 156.699L220.048 144.921L224.12 144.572L226.15 168.26ZM241.623 167.375C238.412 167.65 235.709 166.823 233.515 164.894C231.32 162.95 230.07 160.213 229.768 156.681L229.704 155.936C229.503 153.587 229.768 151.454 230.501 149.539C231.247 147.608 232.378 146.055 233.895 144.881C235.425 143.692 237.131 143.016 239.014 142.855C242.094 142.591 244.574 143.4 246.456 145.283C248.337 147.165 249.44 149.996 249.764 153.776L249.908 155.462L233.861 156.837C234.12 159.167 234.96 160.999 236.383 162.333C237.819 163.651 239.544 164.223 241.558 164.05C242.989 163.928 244.175 163.532 245.117 162.863C246.06 162.195 246.862 161.347 247.524 160.32L250.163 162.034C248.439 165.255 245.592 167.035 241.623 167.375ZM239.299 146.183C237.665 146.323 236.344 147.039 235.337 148.33C234.329 149.608 233.786 151.33 233.707 153.498L245.573 152.481L245.547 152.175C245.254 150.127 244.563 148.584 243.474 147.545C242.384 146.492 240.992 146.037 239.299 146.183ZM231.438 137.572C231.382 136.915 231.532 136.351 231.889 135.879C232.259 135.392 232.838 135.114 233.626 135.047C234.414 134.979 235.032 135.154 235.479 135.572C235.925 135.974 236.176 136.504 236.233 137.161C236.289 137.818 236.132 138.383 235.76 138.855C235.389 139.328 234.81 139.598 234.021 139.666C233.233 139.734 232.616 139.566 232.17 139.163C231.738 138.759 231.495 138.229 231.438 137.572ZM240.856 136.809C240.799 136.152 240.949 135.581 241.304 135.094C241.674 134.607 242.253 134.329 243.041 134.262C243.829 134.194 244.447 134.369 244.895 134.787C245.342 135.204 245.594 135.741 245.65 136.398C245.706 137.055 245.549 137.62 245.178 138.092C244.807 138.565 244.227 138.836 243.439 138.903C242.651 138.971 242.034 138.803 241.588 138.4C241.156 137.996 240.912 137.466 240.856 136.809ZM270.224 143.929L262.277 144.61L264.026 165.014L259.976 165.361L258.227 144.957L250.433 145.625L250.152 142.341L269.943 140.646L270.224 143.929ZM285.876 163.142L283.145 131.266L292.142 130.495C294.915 130.258 297.42 130.66 299.656 131.704C301.892 132.747 303.683 134.351 305.03 136.514C306.391 138.676 307.205 141.223 307.471 144.156L307.646 146.192C307.903 149.198 307.545 151.883 306.571 154.245C305.612 156.606 304.105 158.485 302.048 159.881C300.007 161.276 297.557 162.111 294.699 162.386L285.876 163.142ZM287.644 134.365L289.785 159.344L294.207 158.965C297.447 158.688 299.879 157.465 301.501 155.297C303.138 153.128 303.797 150.182 303.479 146.461L303.319 144.6C303.009 140.98 301.914 138.244 300.035 136.391C298.17 134.522 295.674 133.706 292.548 133.945L287.644 134.365ZM323.635 160.347C320.424 160.622 317.722 159.795 315.527 157.866C313.332 155.922 312.083 153.185 311.78 149.653L311.717 148.908C311.515 146.558 311.781 144.426 312.514 142.511C313.26 140.58 314.391 139.027 315.908 137.853C317.438 136.664 319.144 135.988 321.027 135.827C324.106 135.563 326.587 136.372 328.468 138.255C330.35 140.137 331.452 142.968 331.776 146.748L331.921 148.434L315.874 149.809C316.132 152.139 316.973 153.971 318.395 155.305C319.832 156.622 321.557 157.195 323.571 157.022C325.001 156.9 326.187 156.504 327.13 155.835C328.072 155.166 328.874 154.319 329.536 153.291L332.175 155.006C330.452 158.226 327.605 160.007 323.635 160.347ZM321.312 139.154C319.677 139.295 318.357 140.01 317.35 141.302C316.342 142.58 315.799 144.302 315.72 146.47L327.585 145.453L327.559 145.147C327.266 143.099 326.575 141.556 325.486 140.517C324.396 139.464 323.005 139.009 321.312 139.154ZM341.047 158.414L336.997 158.761L334.115 125.134L338.165 124.787L341.047 158.414ZM351.052 157.556L347.002 157.903L344.972 134.216L349.023 133.869L351.052 157.556ZM344.106 127.961C344.049 127.304 344.199 126.733 344.554 126.246C344.924 125.759 345.503 125.481 346.291 125.414C347.079 125.346 347.697 125.521 348.144 125.939C348.592 126.356 348.844 126.893 348.9 127.55C348.956 128.207 348.799 128.772 348.428 129.244C348.057 129.717 347.477 129.988 346.689 130.055C345.901 130.123 345.284 129.955 344.837 129.552C344.406 129.148 344.162 128.618 344.106 127.961ZM364.002 150.911L368.311 132.216L372.448 131.861L365.984 156.277L362.897 156.541L352.285 133.589L356.423 133.235L364.002 150.911ZM387.039 154.914C383.828 155.189 381.126 154.362 378.931 152.433C376.736 150.489 375.487 147.751 375.184 144.219L375.12 143.475C374.919 141.125 375.185 138.993 375.917 137.077C376.664 135.146 377.795 133.594 379.312 132.42C380.841 131.23 382.548 130.555 384.431 130.393C387.51 130.129 389.991 130.939 391.872 132.821C393.754 134.703 394.856 137.535 395.18 141.315L395.325 143L379.278 144.376C379.536 146.706 380.377 148.538 381.799 149.871C383.236 151.189 384.961 151.762 386.975 151.589C388.405 151.466 389.591 151.071 390.534 150.402C391.476 149.733 392.278 148.885 392.94 147.858L395.579 149.573C393.856 152.793 391.009 154.573 387.039 154.914ZM384.716 133.721C383.081 133.861 381.76 134.577 380.754 135.869C379.746 137.146 379.203 138.869 379.124 141.037L390.989 140.02L390.963 139.713C390.67 137.666 389.979 136.122 388.89 135.083C387.8 134.03 386.409 133.576 384.716 133.721ZM409.782 132.323C409.16 132.273 408.491 132.279 407.776 132.34C405.12 132.568 403.414 133.854 402.66 136.197L404.1 153.01L400.05 153.357L398.02 129.67L401.961 129.332L402.261 132.063C403.408 129.833 405.2 128.614 407.637 128.405C408.426 128.337 409.033 128.388 409.459 128.557L409.782 132.323ZM421.982 145.502L425.978 127.274L430.313 126.903L423.133 155.062C421.996 159.129 419.823 161.3 416.612 161.575L415.84 161.575L414.305 161.42L414.023 158.136L415.126 158.13C416.497 158.013 417.539 157.644 418.251 157.024C418.977 156.404 419.525 155.335 419.894 153.818L420.586 151.333L410.128 128.632L414.55 128.253L421.982 145.502ZM468.519 137.301C468.414 140.707 467.39 143.419 465.446 145.438C463.515 147.441 460.813 148.592 457.339 148.889C453.574 149.212 450.437 148.121 447.929 145.616C445.435 143.11 443.994 139.594 443.607 135.07L443.344 132.005C443.09 129.042 443.392 126.392 444.25 124.054C445.123 121.715 446.479 119.864 448.318 118.501C450.155 117.123 452.351 116.325 454.905 116.106C458.291 115.816 461.087 116.532 463.293 118.254C465.497 119.962 466.911 122.473 467.533 125.786L463.307 126.148C462.725 123.64 461.772 121.869 460.448 120.836C459.139 119.801 457.39 119.378 455.201 119.565C452.516 119.795 450.492 120.969 449.129 123.085C447.782 125.2 447.265 128.089 447.579 131.752L447.843 134.839C448.14 138.298 449.098 140.987 450.718 142.907C452.338 144.826 454.447 145.675 457.045 145.452C459.38 145.252 461.123 144.573 462.273 143.416C463.437 142.243 464.111 140.326 464.294 137.664L468.519 137.301ZM478.013 146.676L473.963 147.024L471.081 113.397L475.131 113.05L478.013 146.676ZM498.041 142.6C496.624 144.589 494.39 145.714 491.34 145.975C488.815 146.192 486.826 145.627 485.373 144.282C483.933 142.92 483.082 140.802 482.821 137.928L481.501 122.516L485.551 122.169L486.862 137.472C487.17 141.062 488.783 142.732 491.702 142.482C494.796 142.217 496.755 140.888 497.579 138.494L496.103 121.265L500.153 120.918L502.183 144.605L498.33 144.935L498.041 142.6ZM526.521 130.853C526.831 134.473 526.249 137.456 524.774 139.802C523.297 142.134 521.158 143.42 518.356 143.66C515.364 143.917 512.96 143.057 511.144 141.081L511.181 143.834L507.46 144.153L504.578 110.526L508.628 110.179L509.703 122.724C511.164 120.555 513.332 119.347 516.207 119.101C519.082 118.854 521.43 119.748 523.251 121.783C525.087 123.816 526.167 126.723 526.491 130.503L526.521 130.853ZM522.431 130.741C522.195 127.982 521.48 125.897 520.285 124.485C519.091 123.073 517.494 122.453 515.495 122.624C512.824 122.853 511.011 124.258 510.056 126.839L510.934 137.085C512.387 139.46 514.427 140.535 517.054 140.31C518.995 140.143 520.442 139.262 521.393 137.666C522.344 136.07 522.69 133.762 522.431 130.741ZM535.5 132.686L531.844 133L529.599 110.146L533.846 109.782L535.5 132.686ZM532.003 139.999C531.946 139.342 532.097 138.778 532.453 138.306C532.823 137.819 533.402 137.541 534.19 137.474C534.978 137.406 535.596 137.581 536.043 137.999C536.49 138.401 536.741 138.931 536.797 139.588C536.853 140.245 536.696 140.81 536.325 141.282C535.952 141.741 535.372 142.004 534.584 142.071C533.796 142.139 533.179 141.978 532.735 141.59C532.303 141.186 532.059 140.656 532.003 139.999Z" fill="#2E2E33"/>
</svg>
