<svg width="131" height="40" viewBox="0 0 131 40" fill="none" xmlns="http://www.w3.org/2000/svg">
<path d="M121.63 0.401367H9.55343C9.18802 0.401367 8.84871 0.401367 8.4833 0.401367C8.19619 0.401367 7.88298 0.401367 7.59587 0.401367C6.94335 0.427468 6.29083 0.453569 5.66441 0.584073C5.01189 0.688476 4.41157 0.897283 3.83735 1.18439C3.26314 1.4715 2.74112 1.86301 2.2713 2.33283C1.80149 2.80264 1.43608 3.32466 1.12287 3.89888C0.809658 4.4992 0.626953 5.09951 0.522549 5.72593C0.418146 6.37846 0.365945 7.00487 0.339844 7.65739C0.339844 7.9706 0.339844 8.25771 0.339844 8.57092C0.339844 8.91023 0.339844 9.27565 0.339844 9.61496V30.339C0.339844 30.7044 0.339844 31.0437 0.339844 31.383C0.339844 31.6701 0.339844 31.9834 0.365945 32.2705C0.392045 32.923 0.418146 33.5755 0.54865 34.2019C0.653054 34.8545 0.86186 35.4548 1.14897 36.029C1.43608 36.6032 1.82759 37.1252 2.29741 37.595C2.76722 38.0648 3.28924 38.4303 3.86345 38.7435C4.46377 39.0567 5.06409 39.2394 5.69051 39.3438C6.34303 39.4482 6.99555 39.5004 7.62197 39.5265C7.90908 39.5265 8.22229 39.5265 8.5094 39.5265C8.87481 39.5265 9.21412 39.5265 9.57953 39.5265H121.656C121.996 39.5265 122.361 39.5265 122.7 39.5265C122.988 39.5265 123.301 39.5265 123.588 39.5265C124.24 39.5004 124.893 39.4743 125.519 39.3438C126.172 39.2394 126.772 39.0306 127.373 38.7435C127.947 38.4564 128.469 38.0648 128.939 37.595C129.408 37.1513 129.774 36.6032 130.087 36.029C130.374 35.4548 130.583 34.8284 130.687 34.2019C130.818 33.5494 130.844 32.923 130.87 32.2705C130.87 31.9834 130.87 31.6701 130.87 31.383C130.87 31.0437 130.87 30.6783 130.87 30.339V9.61496C130.87 9.24955 130.87 8.91023 130.87 8.57092C130.87 8.28381 130.87 7.9706 130.87 7.6835C130.844 7.03098 130.818 6.37846 130.687 5.75204C130.583 5.09951 130.374 4.4992 130.087 3.92498C129.8 3.35076 129.408 2.82874 128.939 2.35893C128.495 1.88911 127.947 1.5237 127.373 1.21049C126.772 0.923384 126.172 0.714577 125.519 0.610174C124.893 0.50577 124.24 0.453569 123.588 0.427468C123.301 0.427468 122.988 0.427468 122.7 0.427468C122.335 0.401367 121.996 0.401367 121.63 0.401367Z" fill="#B6B6B6"/>
<path d="M8.5094 38.7174C8.22229 38.7174 7.93518 38.7174 7.64807 38.7174C7.09996 38.6913 6.47354 38.6652 5.84712 38.5608C5.2468 38.4564 4.72478 38.2737 4.25497 38.0387C3.75905 37.7777 3.28924 37.4645 2.89773 37.0469C2.50621 36.6554 2.1669 36.2117 1.90589 35.6897C1.64489 35.1938 1.48828 34.6717 1.38388 34.0975C1.25337 33.445 1.22727 32.7925 1.22727 32.2966C1.22727 32.0878 1.20117 31.4091 1.20117 31.4091V8.57092C1.20117 8.57092 1.20117 7.8923 1.22727 7.7096C1.22727 7.21368 1.27947 6.53506 1.38388 5.90864C1.48828 5.30832 1.67099 4.78631 1.90589 4.29039C2.1669 3.79447 2.48011 3.32466 2.89773 2.93315C3.28924 2.54164 3.75905 2.20232 4.25497 1.94132C4.75088 1.68031 5.2729 1.5237 5.84712 1.4193C6.49964 1.3149 7.15216 1.2627 7.64807 1.2627H8.5094H122.7H123.588C124.084 1.2627 124.736 1.3149 125.389 1.4193C125.963 1.5237 126.485 1.70641 127.007 1.94132C127.503 2.20232 127.947 2.51553 128.364 2.93315C128.756 3.32466 129.095 3.76837 129.356 4.29039C129.617 4.78631 129.774 5.30832 129.878 5.88254C129.983 6.48286 130.035 7.10928 130.035 7.7096C130.035 7.97061 130.035 8.28382 130.035 8.57092C130.035 8.93634 130.035 9.27565 130.035 9.61496V30.339C130.035 30.6783 130.035 31.0437 130.035 31.383C130.035 31.6962 130.035 31.9834 130.035 32.2705C130.009 32.8447 129.983 33.4711 129.878 34.0714C129.774 34.6717 129.617 35.1938 129.356 35.6897C129.095 36.1856 128.756 36.6554 128.364 37.0208C127.973 37.4123 127.503 37.7516 127.007 38.0126C126.511 38.2737 125.989 38.4303 125.389 38.5347C124.762 38.6391 124.136 38.6652 123.588 38.6913C123.301 38.6913 123.014 38.6913 122.727 38.6913H121.683L8.5094 38.7174Z" fill="#F6F6F6"/>
<path d="M48.7635 25.7083H43.9435L42.861 28.7109H41.2965L45.6898 17.2061H47.0172L51.4184 28.7109H49.8618L48.7635 25.7083ZM44.4018 24.4598H48.3131L46.3535 19.0788L44.4018 24.4598Z" fill="#2E2E33"/>
<path d="M59.9601 24.5309C59.9601 25.8321 59.6625 26.8803 59.0672 27.6758C58.472 28.4712 57.666 28.8689 56.6493 28.8689C55.6116 28.8689 54.7951 28.5397 54.1998 27.8812V31.998H52.738V20.1613H54.0734L54.1445 21.1095C54.7398 20.372 55.5668 20.0033 56.6256 20.0033C57.6528 20.0033 58.4641 20.3905 59.0593 21.1648C59.6598 21.9392 59.9601 23.0165 59.9601 24.3966V24.5309ZM58.4983 24.365C58.4983 23.401 58.2929 22.6398 57.882 22.0814C57.4711 21.523 56.9074 21.2439 56.191 21.2439C55.306 21.2439 54.6423 21.6363 54.1998 22.4212V26.5063C54.637 27.286 55.306 27.6758 56.2068 27.6758C56.9074 27.6758 57.4632 27.3992 57.8741 26.8461C58.2902 26.2877 58.4983 25.4607 58.4983 24.365Z" fill="#2E2E33"/>
<path d="M69.047 24.5309C69.047 25.8321 68.7493 26.8803 68.1541 27.6758C67.5588 28.4712 66.7529 28.8689 65.7362 28.8689C64.6984 28.8689 63.8819 28.5397 63.2867 27.8812V31.998H61.8249V20.1613H63.1603L63.2314 21.1095C63.8266 20.372 64.6537 20.0033 65.7125 20.0033C66.7397 20.0033 67.5509 20.3905 68.1462 21.1648C68.7467 21.9392 69.047 23.0165 69.047 24.3966V24.5309ZM67.5852 24.365C67.5852 23.401 67.3797 22.6398 66.9688 22.0814C66.5579 21.523 65.9943 21.2439 65.2779 21.2439C64.3929 21.2439 63.7292 21.6363 63.2867 22.4212V26.5063C63.7239 27.286 64.3929 27.6758 65.2937 27.6758C65.9943 27.6758 66.55 27.3992 66.9609 26.8461C67.3771 26.2877 67.5852 25.4607 67.5852 24.365Z" fill="#2E2E33"/>
<path d="M79.6351 27.2017C79.2453 27.7601 78.7001 28.1788 77.9995 28.458C77.3041 28.732 76.4929 28.8689 75.5658 28.8689C74.6281 28.8689 73.7958 28.6503 73.0689 28.2131C72.3419 27.7706 71.7783 27.1437 71.3779 26.3325C70.9829 25.5213 70.78 24.581 70.7695 23.5116V22.5081C70.7695 20.775 71.1725 19.4318 71.9785 18.4783C72.7897 17.5248 73.9275 17.0481 75.392 17.0481C76.593 17.0481 77.5596 17.3563 78.2918 17.9726C79.0241 18.5836 79.4718 19.4528 79.6351 20.5801H78.118C77.8336 19.0577 76.9275 18.2966 75.3999 18.2966C74.3832 18.2966 73.6115 18.6548 73.0847 19.3712C72.5632 20.0823 72.2998 21.1148 72.2945 22.4686V23.4089C72.2945 24.6995 72.5895 25.7267 73.1795 26.4905C73.7695 27.2491 74.5676 27.6284 75.5737 27.6284C76.1426 27.6284 76.6404 27.5652 77.0671 27.4387C77.4938 27.3123 77.8467 27.099 78.1259 26.7987V24.2149H75.4631V22.9822H79.6351V27.2017Z" fill="#2E2E33"/>
<path d="M87.2207 28.7109C87.1364 28.5423 87.0679 28.2421 87.0152 27.8101C86.3357 28.516 85.5245 28.8689 84.5815 28.8689C83.7387 28.8689 83.046 28.6319 82.5034 28.1578C81.9661 27.6784 81.6974 27.0726 81.6974 26.3404C81.6974 25.4501 82.0346 24.7601 82.7088 24.2702C83.3884 23.775 84.3419 23.5274 85.5692 23.5274H86.9915V22.8558C86.9915 22.3448 86.8388 21.9392 86.5332 21.6389C86.2277 21.3334 85.7773 21.1806 85.1821 21.1806C84.6605 21.1806 84.2233 21.3123 83.8704 21.5757C83.5175 21.8391 83.341 22.1578 83.341 22.5318H81.8713C81.8713 22.1051 82.0214 21.6943 82.3217 21.2992C82.6272 20.8988 83.0381 20.5828 83.5543 20.351C84.0758 20.1192 84.6474 20.0033 85.269 20.0033C86.254 20.0033 87.0258 20.2509 87.5841 20.7461C88.1425 21.236 88.4323 21.9129 88.4533 22.7768V26.7118C88.4533 27.4967 88.5534 28.1209 88.7536 28.5845V28.7109H87.2207ZM84.7949 27.5968C85.2532 27.5968 85.6878 27.4782 86.0986 27.2412C86.5095 27.0041 86.8072 26.696 86.9915 26.3167V24.5625H85.8458C84.0548 24.5625 83.1592 25.0867 83.1592 26.135C83.1592 26.5933 83.312 26.9515 83.6175 27.2096C83.9231 27.4677 84.3155 27.5968 84.7949 27.5968Z" fill="#2E2E33"/>
<path d="M92.333 28.7109H90.8712V16.574H92.333V28.7109Z" fill="#2E2E33"/>
<path d="M96.268 28.7109H94.8062V16.574H96.268V28.7109Z" fill="#2E2E33"/>
<path d="M102.163 28.8689C101.004 28.8689 100.061 28.4896 99.3339 27.7311C98.6069 26.9673 98.2434 25.948 98.2434 24.6732V24.4045C98.2434 23.5564 98.4041 22.8005 98.7254 22.1367C99.052 21.4677 99.5051 20.9462 100.085 20.5722C100.669 20.1929 101.301 20.0033 101.981 20.0033C103.092 20.0033 103.956 20.3694 104.573 21.1016C105.189 21.8338 105.497 22.8821 105.497 24.2465V24.8549H99.7052C99.7263 25.6977 99.9712 26.3799 100.44 26.9014C100.914 27.4177 101.515 27.6758 102.242 27.6758C102.758 27.6758 103.195 27.5704 103.553 27.3597C103.912 27.149 104.225 26.8698 104.494 26.5221L105.386 27.2175C104.67 28.3184 103.595 28.8689 102.163 28.8689ZM101.981 21.2043C101.391 21.2043 100.896 21.4203 100.495 21.8523C100.095 22.279 99.8475 22.8795 99.7526 23.6539H104.035V23.5432C103.993 22.8005 103.793 22.2263 103.435 21.8207C103.077 21.4098 102.592 21.2043 101.981 21.2043Z" fill="#2E2E33"/>
<path d="M111.329 21.473C111.107 21.4361 110.868 21.4177 110.609 21.4177C109.651 21.4177 109 21.8259 108.658 22.6424V28.7109H107.196V20.1613H108.618L108.642 21.149C109.121 20.3852 109.801 20.0033 110.681 20.0033C110.965 20.0033 111.181 20.0402 111.329 20.1139V21.473Z" fill="#2E2E33"/>
<path d="M115.619 26.5695L117.61 20.1613H119.175L115.738 30.0305C115.206 31.4527 114.36 32.1639 113.201 32.1639L112.925 32.1402L112.379 32.0375V30.8522L112.774 30.8838C113.27 30.8838 113.654 30.7837 113.928 30.5836C114.207 30.3834 114.436 30.0173 114.616 29.4852L114.94 28.6161L111.89 20.1613H113.486L115.619 26.5695Z" fill="#2E2E33"/>
<path d="M45.5491 10.0996C45.5491 10.6815 45.4512 11.1899 45.2554 11.6249C45.0597 12.0572 44.7824 12.3875 44.4235 12.6159C44.0646 12.8443 43.6459 12.9585 43.1674 12.9585C42.6997 12.9585 42.2851 12.8443 41.9235 12.6159C41.5619 12.3848 41.2805 12.0572 41.0793 11.6331C40.8808 11.2062 40.7789 10.7127 40.7734 10.1527V9.72443C40.7734 9.15348 40.8727 8.64913 41.0712 8.2114C41.2696 7.77367 41.5497 7.43925 41.9113 7.20815C42.2756 6.97433 42.6916 6.85742 43.1592 6.85742C43.635 6.85742 44.0537 6.97297 44.4153 7.20407C44.7796 7.43246 45.0597 7.76551 45.2554 8.20325C45.4512 8.63826 45.5491 9.14532 45.5491 9.72443V10.0996ZM44.7701 9.71628C44.7701 9.0121 44.6287 8.47241 44.346 8.09721C44.0632 7.71929 43.6676 7.53033 43.1592 7.53033C42.6644 7.53033 42.2742 7.71929 41.9888 8.09721C41.706 8.47241 41.5605 8.99443 41.5524 9.66326V10.0996C41.5524 10.7821 41.6951 11.319 41.9806 11.7105C42.2688 12.0993 42.6644 12.2937 43.1674 12.2937C43.6731 12.2937 44.0646 12.1102 44.3419 11.7432C44.6192 11.3734 44.762 10.8446 44.7701 10.1567V9.71628Z" fill="#2E2E33"/>
<path d="M49.8843 9.07599H48.4038V12.8769H47.6494V9.07599H46.1975V8.46425H49.8843V9.07599Z" fill="#2E2E33"/>
<path d="M51.9927 10.9968H51.4421V12.8769H50.6836V8.46425H51.4421V10.3321H51.9356L53.4201 8.46425H54.3336L52.5881 10.5849L54.4804 12.8769H53.5221L51.9927 10.9968Z" fill="#2E2E33"/>
<path d="M58.8564 10.7195C58.8564 11.3911 58.7028 11.9321 58.3956 12.3427C58.0883 12.7532 57.6724 12.9585 57.1476 12.9585C56.612 12.9585 56.1906 12.7886 55.8834 12.4487V14.5735H55.1289V8.46425H55.8181L55.8548 8.95364C56.162 8.57301 56.5889 8.38269 57.1354 8.38269C57.6656 8.38269 58.0843 8.58252 58.3915 8.98219C58.7014 9.38186 58.8564 9.93786 58.8564 10.6502V10.7195ZM58.1019 10.6339C58.1019 10.1363 57.9959 9.74347 57.7838 9.45527C57.5718 9.16707 57.2808 9.02297 56.9111 9.02297C56.4543 9.02297 56.1117 9.22553 55.8834 9.63063V11.7391C56.109 12.1415 56.4543 12.3427 56.9192 12.3427C57.2808 12.3427 57.5677 12.1999 57.7798 11.9145C57.9945 11.6263 58.1019 11.1994 58.1019 10.6339Z" fill="#2E2E33"/>
<path d="M59.619 10.6298C59.619 10.1975 59.7033 9.80872 59.8719 9.46343C60.0432 9.11813 60.2797 8.85169 60.5815 8.66409C60.886 8.47649 61.2327 8.38269 61.6215 8.38269C62.2223 8.38269 62.7076 8.59068 63.0774 9.00666C63.4499 9.42264 63.6361 9.97593 63.6361 10.6665V10.7195C63.6361 11.1491 63.5532 11.5352 63.3874 11.8778C63.2242 12.2176 62.989 12.4827 62.6818 12.673C62.3773 12.8633 62.0266 12.9585 61.6296 12.9585C61.0315 12.9585 60.5462 12.7505 60.1737 12.3345C59.8039 11.9185 59.619 11.368 59.619 10.6828V10.6298ZM60.3776 10.7195C60.3776 11.2089 60.4904 11.6018 60.7161 11.8981C60.9445 12.1945 61.249 12.3427 61.6296 12.3427C62.013 12.3427 62.3175 12.1931 62.5432 11.8941C62.7688 11.5923 62.8816 11.1709 62.8816 10.6298C62.8816 10.1459 62.7661 9.75434 62.535 9.45527C62.3066 9.15348 62.0021 9.00258 61.6215 9.00258C61.249 9.00258 60.9486 9.15076 60.7202 9.44711C60.4918 9.74347 60.3776 10.1676 60.3776 10.7195Z" fill="#2E2E33"/>
<path d="M67.4371 8.46425H68.1915V12.8769H67.4371V9.65918L65.402 12.8769H64.6475V8.46425H65.402V11.6861L67.4371 8.46425ZM67.641 6.85742C67.641 7.1864 67.5281 7.45149 67.3025 7.65268C67.0795 7.85116 66.7859 7.95039 66.4216 7.95039C66.0572 7.95039 65.7623 7.8498 65.5366 7.6486C65.3109 7.44741 65.1981 7.18368 65.1981 6.85742H65.8139C65.8139 7.04774 65.8656 7.19728 65.9689 7.30603C66.0722 7.41206 66.2231 7.46508 66.4216 7.46508C66.6119 7.46508 66.7601 7.41206 66.8661 7.30603C66.9749 7.2 67.0292 7.05046 67.0292 6.85742H67.641Z" fill="#2E2E33"/>
<path d="M72.6817 9.07599H71.2013V12.8769H70.4468V9.07599H68.995V8.46425H72.6817V9.07599Z" fill="#2E2E33"/>
<path d="M74.9207 12.9585C74.3225 12.9585 73.8358 12.7627 73.4606 12.3712C73.0854 11.977 72.8978 11.4509 72.8978 10.7929V10.6543C72.8978 10.2165 72.9808 9.82639 73.1466 9.48382C73.3152 9.13852 73.549 8.86936 73.8481 8.67632C74.1499 8.48057 74.4761 8.38269 74.8269 8.38269C75.4005 8.38269 75.8464 8.57165 76.1645 8.94957C76.4826 9.32748 76.6417 9.86853 76.6417 10.5727V10.8867H73.6523C73.6632 11.3217 73.7896 11.6738 74.0316 11.943C74.2763 12.2094 74.5862 12.3427 74.9614 12.3427C75.2279 12.3427 75.4535 12.2883 75.6384 12.1795C75.8233 12.0708 75.9851 11.9267 76.1237 11.7472L76.5846 12.1061C76.2148 12.6744 75.6602 12.9585 74.9207 12.9585ZM74.8269 9.00258C74.5223 9.00258 74.2668 9.11406 74.0601 9.337C73.8535 9.55723 73.7257 9.86717 73.6768 10.2668H75.8872V10.2097C75.8654 9.82639 75.7621 9.53004 75.5773 9.32069C75.3924 9.10862 75.1422 9.00258 74.8269 9.00258Z" fill="#2E2E33"/>
<path d="M79.6596 12.8769V8.46425H81.3806C81.9679 8.46425 82.4178 8.56757 82.7305 8.7742C83.0459 8.97811 83.2036 9.27854 83.2036 9.67549C83.2036 9.87941 83.1424 10.0643 83.0201 10.2301C82.8977 10.3933 82.7169 10.5183 82.4777 10.6053C82.7441 10.6679 82.9575 10.7902 83.1179 10.9724C83.2811 11.1545 83.3626 11.372 83.3626 11.6249C83.3626 12.03 83.2131 12.34 82.914 12.5547C82.6177 12.7695 82.1976 12.8769 81.6539 12.8769H79.6596ZM80.4141 10.9398V12.2693H81.662C81.9774 12.2693 82.2126 12.2108 82.3675 12.0939C82.5252 11.977 82.6041 11.8125 82.6041 11.6004C82.6041 11.16 82.2805 10.9398 81.6335 10.9398H80.4141ZM80.4141 10.3362H81.3888C82.0957 10.3362 82.4491 10.1295 82.4491 9.71628C82.4491 9.30301 82.1147 9.08959 81.4459 9.07599H80.4141V10.3362Z" fill="#2E2E33"/>
<path fill-rule="evenodd" clip-rule="evenodd" d="M26.7011 7.5791H15.8693C10.7535 7.5791 8.90039 9.45836 8.90039 14.548V25.3799C8.90039 30.4956 10.7796 32.3488 15.8693 32.3488H26.7011C31.8169 32.3488 33.6701 30.4695 33.6701 25.3799V14.548C33.6962 9.45836 31.8169 7.5791 26.7011 7.5791Z" fill="#2E2E33"/>
<path d="M13.8082 19.9766H14.4608V23.2131H13.8082V21.908H12.3205V23.2131H11.668V19.9766H12.3205V21.2816H13.8082V19.9766ZM17.5146 21.8297C17.5146 22.3517 17.2535 22.6388 16.7837 22.6388C16.3139 22.6388 16.0529 22.3517 16.0529 21.8036V19.9766H15.4004V21.8297C15.4004 22.7432 15.8963 23.2653 16.7837 23.2653C17.6712 23.2653 18.1932 22.7432 18.1932 21.8036V19.9766H17.5407V21.8297H17.5146ZM25.1099 22.1951L24.3791 19.9766H23.831L23.1001 22.1951L22.3954 19.9766H21.6907L22.813 23.2131H23.3611L24.092 21.0728L24.8228 23.2131H25.3709L26.4932 19.9766H25.8146L25.1099 22.1951ZM27.6939 21.8297H28.8945V21.2294H27.6939V20.5769H29.4426V19.9766H27.0675V23.2131H29.5209V22.6127H27.72V21.8297H27.6939ZM30.2779 23.2131H30.9304V19.9766H30.2779V23.2131ZM19.4721 22.5344L19.185 23.2131H18.5064L19.9158 19.9766H20.49L21.8995 23.2131H21.2209L20.9599 22.5344H19.4721ZM19.707 21.9602H20.6989L20.2029 20.8118L19.707 21.9602Z" fill="white"/>
<path d="M21.2997 15.8529C19.0289 15.8529 17.1758 13.9998 17.1758 11.729H17.75C17.75 13.6866 19.3422 15.2787 21.2997 15.2787C23.2573 15.2787 24.8494 13.6866 24.8494 11.729H25.4236C25.4236 13.9998 23.5705 15.8529 21.2997 15.8529Z" fill="white"/>
</svg>
