<svg width="121" height="41" viewBox="0 0 121 41" fill="none" xmlns="http://www.w3.org/2000/svg">
<path d="M110.811 0.621224H10.2105C9.84376 0.621224 9.48146 0.621224 9.11573 0.623224C8.80958 0.625224 8.50587 0.631034 8.19678 0.635924C7.52529 0.643826 6.85539 0.7029 6.19288 0.812634C5.53131 0.924756 4.89045 1.13614 4.292 1.43963C3.69428 1.7457 3.14813 2.14339 2.67335 2.61829C2.19608 3.09186 1.79824 3.63924 1.49513 4.23938C1.19118 4.83833 0.980422 5.48016 0.870131 6.1427C0.758792 6.80441 0.69888 7.47374 0.690931 8.1447C0.681651 8.4513 0.680671 8.75892 0.675781 9.06556V32.1798C0.680671 32.4903 0.681651 32.7911 0.690931 33.1017C0.698882 33.7726 0.758795 34.442 0.870131 35.1036C0.980117 35.7666 1.19089 36.4087 1.49513 37.0079C1.79811 37.6061 2.196 38.1513 2.67335 38.6222C3.14633 39.0992 3.69283 39.4972 4.292 39.8009C4.89045 40.1052 5.53123 40.3179 6.19288 40.4317C6.8555 40.5406 7.52534 40.5997 8.19678 40.6085C8.50587 40.6153 8.80958 40.6192 9.11573 40.6192C9.48145 40.6212 9.84378 40.6212 10.2105 40.6212H110.811C111.17 40.6212 111.535 40.6212 111.895 40.6192C112.199 40.6192 112.512 40.6153 112.816 40.6085C113.487 40.6001 114.155 40.541 114.816 40.4317C115.48 40.3171 116.123 40.1045 116.725 39.8009C117.323 39.497 117.869 39.0991 118.342 38.6222C118.818 38.1494 119.217 37.6047 119.523 37.0079C119.825 36.4083 120.034 35.7662 120.143 35.1036C120.254 34.4419 120.316 33.7727 120.328 33.1017C120.332 32.7911 120.332 32.4903 120.332 32.1798C120.34 31.8165 120.34 31.4552 120.34 31.086V10.1574C120.34 9.79114 120.34 9.42786 120.332 9.06556C120.332 8.75892 120.332 8.4513 120.328 8.14466C120.316 7.47365 120.254 6.80446 120.143 6.14266C120.034 5.48051 119.825 4.83873 119.523 4.23934C118.906 3.03642 117.927 2.05725 116.725 1.43954C116.123 1.13679 115.48 0.925464 114.816 0.812544C114.155 0.702327 113.487 0.643232 112.816 0.635784C112.512 0.630904 112.199 0.625044 111.895 0.623094C111.535 0.621094 111.17 0.621094 110.811 0.621094V0.621224Z" fill="#A6A6A6"/>
<path d="M9.12065 39.7461C8.81597 39.7461 8.51865 39.7422 8.21636 39.7354C7.59014 39.7272 6.96539 39.6727 6.34722 39.5723C5.77081 39.473 5.21242 39.2884 4.69048 39.0244C4.17332 38.7626 3.70163 38.4194 3.29348 38.0078C2.87942 37.6011 2.53469 37.1293 2.27297 36.6113C2.00836 36.0899 1.82523 35.531 1.72997 34.9541C1.62709 34.3342 1.57143 33.7074 1.56347 33.0791C1.55713 32.8682 1.54883 32.166 1.54883 32.166V9.06543C1.54883 9.06543 1.55767 8.37402 1.56352 8.17089C1.57114 7.54358 1.62648 6.91775 1.72905 6.29882C1.82449 5.72034 2.00776 5.15984 2.27251 4.63672C2.53327 4.11904 2.87608 3.64695 3.28765 3.23877C3.69875 2.82672 4.17195 2.4817 4.68999 2.2163C5.21073 1.95319 5.76806 1.76983 6.34331 1.67236C6.96351 1.57093 7.59043 1.51609 8.21882 1.5083L9.12114 1.49609H111.89L112.803 1.50879C113.425 1.51619 114.047 1.57054 114.661 1.67138C115.242 1.77007 115.805 1.95471 116.332 2.21923C117.37 2.75408 118.214 3.60026 118.747 4.63916C119.008 5.15867 119.188 5.7146 119.282 6.28808C119.386 6.91209 119.444 7.54283 119.456 8.17529C119.459 8.45849 119.459 8.76269 119.459 9.06543C119.467 9.44043 119.467 9.79736 119.467 10.1572V31.0859C119.467 31.4492 119.467 31.8037 119.459 32.1611C119.459 32.4863 119.459 32.7842 119.455 33.0908C119.443 33.712 119.386 34.3315 119.284 34.9443C119.191 35.5254 119.009 36.0886 118.744 36.6143C118.481 37.1267 118.138 37.5944 117.729 38C117.32 38.4138 116.848 38.759 116.329 39.0225C115.804 39.2885 115.242 39.4738 114.661 39.5723C114.043 39.6733 113.418 39.7278 112.792 39.7354C112.499 39.7422 112.192 39.7461 111.895 39.7461L110.811 39.7481L9.12065 39.7461Z" fill="#F6F6F6"/>
<path d="M25.4438 20.9219C25.4546 20.0873 25.6763 19.2689 26.0883 18.5429C26.5003 17.817 27.0893 17.207 27.8004 16.7699C27.3486 16.1247 26.7527 15.5937 26.0598 15.2192C25.367 14.8446 24.5964 14.6368 23.8092 14.6122C22.13 14.4359 20.502 15.617 19.6463 15.617C18.774 15.617 17.4565 14.6297 16.0378 14.6589C15.1201 14.6885 14.2258 14.9554 13.4419 15.4334C12.658 15.9115 12.0113 16.5844 11.5649 17.3867C9.63088 20.7352 11.0735 25.6562 12.9261 28.3628C13.853 29.6882 14.9363 31.1686 16.3537 31.1161C17.7408 31.0586 18.2588 30.2316 19.9331 30.2316C21.5919 30.2316 22.0779 31.1161 23.5241 31.0827C25.0125 31.0586 25.9502 29.7515 26.8446 28.4136C27.5106 27.4692 28.0231 26.4255 28.363 25.3211C27.4983 24.9554 26.7604 24.3432 26.2413 23.5609C25.7222 22.7786 25.4448 21.8608 25.4438 20.9219Z" fill="#2E2E33"/>
<path d="M22.7114 12.8319C23.5229 11.8577 23.9227 10.6055 23.8259 9.34131C22.5861 9.47153 21.4408 10.0641 20.6183 11.0009C20.2162 11.4586 19.9082 11.991 19.712 12.5678C19.5157 13.1446 19.4351 13.7544 19.4746 14.3623C20.0948 14.3687 20.7083 14.2343 21.2689 13.9692C21.8296 13.7041 22.3228 13.3153 22.7114 12.8319Z" fill="#2E2E33"/>
<path d="M42.9766 27.7608H38.2432L37.1064 31.1172H35.1016L39.585 18.6992H41.668L46.1514 31.1172H44.1123L42.9766 27.7608ZM38.7334 26.2119H42.4854L40.6358 20.7647H40.584L38.7334 26.2119Z" fill="#2E2E33"/>
<path d="M55.833 26.591C55.833 29.4045 54.3272 31.2121 52.0547 31.2121C51.4791 31.2422 50.9066 31.1096 50.4028 30.8295C49.899 30.5494 49.4843 30.133 49.2061 29.6281H49.1631V34.1125H47.3047V22.0637H49.1035V23.5695H49.1377C49.4287 23.0671 49.8504 22.6529 50.358 22.371C50.8657 22.0892 51.4402 21.9502 52.0205 21.969C54.3183 21.969 55.833 23.7854 55.833 26.591ZM53.9229 26.591C53.9229 24.758 52.9756 23.5529 51.5303 23.5529C50.1104 23.5529 49.1553 24.7834 49.1553 26.591C49.1553 28.4153 50.1104 29.6369 51.5303 29.6369C52.9756 29.6369 53.9229 28.4406 53.9229 26.591Z" fill="#2E2E33"/>
<path d="M65.7979 26.591C65.7979 29.4045 64.292 31.2121 62.0196 31.2121C61.4439 31.2422 60.8714 31.1096 60.3676 30.8295C59.8638 30.5493 59.4491 30.133 59.1709 29.6281H59.1279V34.1125H57.2695V22.0637H59.0684V23.5695H59.1025C59.3935 23.0671 59.8152 22.6529 60.3228 22.371C60.8305 22.0892 61.405 21.9502 61.9854 21.969C64.2832 21.969 65.7979 23.7854 65.7979 26.591ZM63.8877 26.591C63.8877 24.758 62.9405 23.5529 61.4951 23.5529C60.0752 23.5529 59.1201 24.7834 59.1201 26.591C59.1201 28.4152 60.0752 29.6369 61.4951 29.6369C62.9405 29.6369 63.8877 28.4406 63.8877 26.591H63.8877Z" fill="#2E2E33"/>
<path d="M72.3848 27.6573C72.5225 28.8887 73.7188 29.6973 75.3535 29.6973C76.92 29.6973 78.0469 28.8887 78.0469 27.7783C78.0469 26.8145 77.3672 26.2373 75.7578 25.8418L74.1485 25.4541C71.8682 24.9033 70.8096 23.8369 70.8096 22.1064C70.8096 19.9639 72.6768 18.4922 75.3282 18.4922C77.9522 18.4922 79.751 19.9639 79.8116 22.1064H77.9356C77.8233 20.8672 76.7988 20.1191 75.3018 20.1191C73.8047 20.1191 72.7803 20.876 72.7803 21.9775C72.7803 22.8555 73.4346 23.3721 75.0352 23.7675L76.4033 24.1035C78.9512 24.706 80.0098 25.7295 80.0098 27.5459C80.0098 29.8691 78.1592 31.3242 75.2158 31.3242C72.4619 31.3242 70.6025 29.9033 70.4824 27.6572L72.3848 27.6573Z" fill="#2E2E33"/>
<path d="M84.0195 19.9209V22.0635H85.7412V23.5352H84.0195V28.5264C84.0195 29.3018 84.3643 29.6631 85.1211 29.6631C85.3255 29.6595 85.5295 29.6452 85.7324 29.6201V31.083C85.3921 31.1466 85.0463 31.1754 84.7002 31.1689C82.8672 31.1689 82.1523 30.4804 82.1523 28.7246V23.5352H80.8359V22.0635H82.1523V19.9209H84.0195Z" fill="#2E2E33"/>
<path d="M86.7402 26.5908C86.7402 23.7422 88.418 21.9521 91.0342 21.9521C93.6592 21.9521 95.3291 23.7421 95.3291 26.5908C95.3291 29.4473 93.668 31.2295 91.0342 31.2295C88.4013 31.2295 86.7402 29.4473 86.7402 26.5908ZM93.4355 26.5908C93.4355 24.6367 92.54 23.4834 91.0342 23.4834C89.5283 23.4834 88.6338 24.6455 88.6338 26.5908C88.6338 28.5527 89.5283 29.6973 91.0342 29.6973C92.54 29.6973 93.4355 28.5527 93.4355 26.5908H93.4355Z" fill="#2E2E33"/>
<path d="M96.8594 22.0636H98.6318V23.6046H98.6748C98.7948 23.1233 99.0767 22.698 99.4733 22.4001C99.8699 22.1022 100.357 21.9499 100.853 21.9689C101.067 21.9681 101.28 21.9914 101.489 22.0382V23.7765C101.219 23.6939 100.937 23.6559 100.654 23.6642C100.384 23.6532 100.115 23.7008 99.8653 23.8037C99.6155 23.9066 99.3909 24.0623 99.2069 24.2602C99.0229 24.4581 98.8839 24.6935 98.7995 24.9501C98.7151 25.2068 98.6872 25.4787 98.7178 25.7472V31.1173H96.8594L96.8594 22.0636Z" fill="#2E2E33"/>
<path d="M110.058 28.458C109.808 30.1016 108.207 31.2295 106.159 31.2295C103.525 31.2295 101.891 29.4648 101.891 26.6338C101.891 23.7939 103.534 21.9521 106.081 21.9521C108.586 21.9521 110.161 23.6728 110.161 26.418V27.0547H103.767V27.167C103.737 27.5002 103.779 27.8359 103.889 28.1517C103.999 28.4675 104.175 28.7563 104.406 28.9989C104.636 29.2414 104.915 29.4322 105.225 29.5585C105.535 29.6848 105.868 29.7437 106.202 29.7314C106.641 29.7726 107.082 29.6709 107.459 29.4414C107.835 29.212 108.128 28.8671 108.293 28.458L110.058 28.458ZM103.775 25.7559H108.302C108.318 25.4563 108.273 25.1565 108.168 24.8752C108.064 24.594 107.902 24.3375 107.693 24.1217C107.485 23.906 107.234 23.7356 106.957 23.6214C106.679 23.5072 106.381 23.4516 106.081 23.458C105.778 23.4562 105.478 23.5143 105.198 23.6291C104.918 23.7438 104.664 23.9129 104.449 24.1265C104.235 24.3402 104.065 24.5941 103.949 24.8738C103.834 25.1534 103.775 25.4532 103.775 25.7559V25.7559Z" fill="#2E2E33"/>
<path d="M37.415 11.8745H38.2129C38.3502 11.8916 38.4896 11.8801 38.6223 11.8406C38.755 11.8012 38.878 11.7347 38.9837 11.6453C39.0894 11.5559 39.1754 11.4457 39.2364 11.3214C39.2974 11.1971 39.3319 11.0616 39.3379 10.9233C39.3379 10.373 38.9238 10.0176 38.2217 10.0176C38.081 9.99789 37.9377 10.0066 37.8004 10.0432C37.6632 10.0798 37.5346 10.1436 37.4224 10.2307C37.3101 10.3178 37.2165 10.4265 37.147 10.5504C37.0774 10.6744 37.0334 10.8109 37.0176 10.9521H36.1416C36.1566 10.6958 36.2243 10.4454 36.3404 10.2164C36.4565 9.98735 36.6184 9.78468 36.8162 9.62098C37.014 9.45728 37.2434 9.33604 37.49 9.26482C37.7367 9.1936 37.9954 9.17392 38.25 9.207C39.4248 9.207 40.252 9.86471 40.252 10.8115C40.2547 11.1287 40.1486 11.4372 39.9513 11.6856C39.754 11.9339 39.4775 12.1071 39.168 12.1762V12.2466C39.535 12.2628 39.8806 12.4237 40.1293 12.6941C40.378 12.9645 40.5095 13.3223 40.4951 13.6894C40.468 13.9533 40.3884 14.2091 40.2611 14.4419C40.1338 14.6746 39.9613 14.8796 39.7537 15.0448C39.5462 15.21 39.3077 15.3322 39.0524 15.404C38.797 15.4759 38.5299 15.4961 38.2666 15.4634C38.0028 15.4993 37.7344 15.4818 37.4775 15.4118C37.2206 15.3419 36.9805 15.2209 36.7713 15.0561C36.5622 14.8914 36.3883 14.6862 36.2602 14.4528C36.132 14.2194 36.0522 13.9626 36.0254 13.6977H36.915C36.9688 14.2685 37.4932 14.6367 38.2666 14.6367C39.04 14.6367 39.5449 14.2232 39.5449 13.6402C39.5449 13.0488 39.0693 12.6846 38.2383 12.6846H37.415V11.8745Z" fill="#2E2E33"/>
<path d="M41.5059 14.0454C41.5059 13.2349 42.1104 12.7676 43.1807 12.7012L44.4004 12.6309V12.2422C44.4004 11.7666 44.0869 11.498 43.4785 11.498C42.9824 11.498 42.6396 11.6802 42.54 11.9985H41.6797C41.7705 11.2251 42.499 10.729 43.5205 10.729C44.6494 10.729 45.2861 11.291 45.2861 12.2422V15.3188H44.4297V14.686H44.3594C44.2167 14.913 44.0163 15.0981 43.7786 15.2223C43.541 15.3465 43.2747 15.4054 43.0068 15.393C42.8178 15.4127 42.6267 15.3925 42.446 15.3338C42.2652 15.2751 42.0988 15.1792 41.9574 15.0522C41.8159 14.9253 41.7027 14.7701 41.6249 14.5967C41.5472 14.4232 41.5066 14.2355 41.5059 14.0454ZM44.4004 13.6606V13.2842L43.3007 13.3545C42.6806 13.396 42.3994 13.6069 42.3994 14.0039C42.3994 14.4092 42.7509 14.645 43.2344 14.645C43.376 14.6593 43.5191 14.6451 43.6551 14.603C43.7911 14.5609 43.9173 14.4919 44.0261 14.4C44.1349 14.3082 44.2241 14.1954 44.2884 14.0684C44.3527 13.9413 44.3908 13.8027 44.4004 13.6606Z" fill="#2E2E33"/>
<path d="M47.6445 11.564V15.3188H46.7559V10.8159H49.7207V11.5639L47.6445 11.564Z" fill="#2E2E33"/>
<path d="M55.1055 13.0654C55.1055 14.496 54.3818 15.393 53.2451 15.393C52.9661 15.4121 52.6874 15.351 52.4419 15.217C52.1964 15.083 51.9943 14.8817 51.8594 14.6367H51.7891V16.8159H50.9004V10.8159H51.7559V11.56H51.8223C51.9596 11.3065 52.1644 11.0958 52.4139 10.9513C52.6634 10.8068 52.9481 10.7341 53.2363 10.7412C54.3818 10.7412 55.1055 11.6342 55.1055 13.0654ZM54.1914 13.0654C54.1914 12.1142 53.7412 11.5395 52.9883 11.5395C52.2403 11.5395 51.7725 12.1264 51.7725 13.0693C51.7725 14.0078 52.2402 14.5952 52.9844 14.5952C53.7412 14.5952 54.1914 14.0205 54.1914 13.0654Z" fill="#2E2E33"/>
<path d="M56.2891 16.9316V16.1665C56.3853 16.1787 56.4822 16.1843 56.5791 16.1831C56.7684 16.1971 56.9563 16.1407 57.1066 16.0248C57.2569 15.9088 57.3591 15.7414 57.3935 15.5547L57.46 15.3354L55.8301 10.8159H56.7978L57.9268 14.3926H57.9971L59.1221 10.8159H60.0645L58.3858 15.5049C58.001 16.6006 57.5752 16.9522 56.6573 16.9522C56.583 16.9521 56.3721 16.9438 56.2891 16.9316Z" fill="#2E2E33"/>
<path d="M60.7578 14.0411H61.6426C61.7295 14.4381 62.1016 14.6451 62.6221 14.6451C63.2139 14.6451 63.5772 14.3844 63.5772 13.9791C63.5772 13.545 63.251 13.338 62.6221 13.338H61.9482V12.6476H62.6104C63.1475 12.6476 63.4209 12.441 63.4209 12.0646C63.4209 11.734 63.1563 11.4816 62.6104 11.4816C62.1133 11.4816 61.75 11.6925 61.6924 12.048H60.8359C60.9 11.6395 61.1217 11.2725 61.4536 11.0259C61.7854 10.7792 62.2008 10.6727 62.6104 10.7291C63.6807 10.7291 64.293 11.213 64.293 11.9738C64.298 12.1856 64.2301 12.3928 64.1007 12.5606C63.9713 12.7284 63.7882 12.8466 63.582 12.8956V12.966C63.8275 12.9976 64.0528 13.1183 64.2151 13.305C64.3775 13.4918 64.4657 13.7317 64.4629 13.9791C64.4629 14.8351 63.7344 15.4015 62.6221 15.4015C61.6387 15.4015 60.8399 14.9508 60.7578 14.0411Z" fill="#2E2E33"/>
<path d="M65.7422 15.3188V10.8159H66.623V13.9131H66.6934L68.7686 10.8159H69.6494V15.3189H68.7686V12.2051H68.7021L66.623 15.3189L65.7422 15.3188Z" fill="#2E2E33"/>
<path d="M74.503 11.5639H73.085V15.3188H72.1953V11.5639H70.7773V10.8159H74.503V11.5639Z" fill="#2E2E33"/>
<path d="M79.2897 14.1031C79.1686 14.5146 78.9068 14.8705 78.55 15.1086C78.1932 15.3468 77.764 15.4519 77.3376 15.4058C77.0409 15.4137 76.7461 15.3569 76.4736 15.2393C76.2011 15.1218 75.9574 14.9464 75.7595 14.7252C75.5616 14.5041 75.4142 14.2425 75.3275 13.9587C75.2408 13.6749 75.2169 13.3756 75.2575 13.0816C75.218 12.7867 75.2423 12.4868 75.3288 12.2021C75.4153 11.9175 75.5619 11.6547 75.7588 11.4316C75.9556 11.2085 76.1981 11.0304 76.4698 10.9092C76.7416 10.788 77.0361 10.7265 77.3337 10.7291C78.5866 10.7291 79.3434 11.5851 79.3434 12.9991V13.3092H76.1637V13.359C76.1497 13.5243 76.1703 13.6907 76.2244 13.8475C76.2784 14.0043 76.3647 14.1481 76.4777 14.2696C76.5906 14.3911 76.7277 14.4876 76.8802 14.5529C77.0326 14.6183 77.1971 14.651 77.363 14.649C77.5754 14.6744 77.7906 14.636 77.9812 14.5388C78.1717 14.4416 78.3291 14.29 78.4333 14.1031L79.2897 14.1031ZM76.1637 12.6519H78.4372C78.4484 12.5009 78.4279 12.3492 78.377 12.2065C78.3261 12.0638 78.246 11.9334 78.1417 11.8235C78.0374 11.7137 77.9113 11.6269 77.7715 11.5686C77.6316 11.5104 77.4812 11.4821 77.3297 11.4854C77.176 11.4833 77.0234 11.5121 76.8809 11.57C76.7385 11.6279 76.6091 11.7137 76.5004 11.8225C76.3917 11.9312 76.3059 12.0606 76.2481 12.2031C76.1903 12.3456 76.1616 12.4982 76.1637 12.6519H76.1637Z" fill="#2E2E33"/>
<path d="M83.0566 10.8159H85.0869C85.9678 10.8159 86.4844 11.2622 86.4844 11.9609C86.4857 12.1826 86.4109 12.3981 86.2724 12.5712C86.134 12.7444 85.9402 12.8647 85.7236 12.9121V12.9824C85.9866 12.999 86.2332 13.116 86.4124 13.3092C86.5915 13.5024 86.6897 13.757 86.6865 14.0205C86.6865 14.8061 86.0957 15.3188 85.1074 15.3188H83.0566V10.8159ZM83.9375 11.498V12.664H84.8184C85.3555 12.664 85.6123 12.4575 85.6123 12.0766C85.6123 11.7256 85.3887 11.498 84.917 11.498L83.9375 11.498ZM83.9375 13.3174V14.6367H84.9913C85.5166 14.6367 85.7979 14.4048 85.7979 13.979C85.7979 13.5283 85.4795 13.3174 84.8799 13.3174L83.9375 13.3174Z" fill="#2E2E33"/>
</svg>
