<svg width="136" height="41" viewBox="0 0 136 41" fill="none" xmlns="http://www.w3.org/2000/svg">
<path d="M130.676 40.6211H5.67578C2.87578 40.6211 0.675781 38.4211 0.675781 35.6211V5.62109C0.675781 2.82109 2.87578 0.621094 5.67578 0.621094H130.676C133.476 0.621094 135.676 2.82109 135.676 5.62109V35.6211C135.676 38.3211 133.476 40.6211 130.676 40.6211Z" fill="#F6F6F6"/>
<path d="M130.676 1.42109C132.976 1.42109 134.876 3.32109 134.876 5.62109V35.6211C134.876 37.9211 132.976 39.8211 130.676 39.8211H5.67578C3.37578 39.8211 1.47578 37.9211 1.47578 35.6211V5.62109C1.47578 3.32109 3.37578 1.42109 5.67578 1.42109H130.676ZM130.676 0.621094H5.67578C2.87578 0.621094 0.675781 2.82109 0.675781 5.62109V35.6211C0.675781 38.4211 2.87578 40.6211 5.67578 40.6211H130.676C133.476 40.6211 135.676 38.4211 135.676 35.6211V5.62109C135.676 2.92109 133.476 0.621094 130.676 0.621094Z" fill="#A6A6A6"/>
<path d="M68.7754 22.4212C66.3754 22.4212 64.4754 24.2212 64.4754 26.7212C64.4754 29.1212 66.3754 31.0212 68.7754 31.0212C71.1754 31.0212 73.0754 29.2212 73.0754 26.7212C73.0754 24.1212 71.1754 22.4212 68.7754 22.4212ZM68.7754 29.2212C67.4754 29.2212 66.3754 28.1212 66.3754 26.6212C66.3754 25.1212 67.4754 24.0212 68.7754 24.0212C70.0754 24.0212 71.1754 25.0212 71.1754 26.6212C71.1754 28.1212 70.0754 29.2212 68.7754 29.2212ZM59.4754 22.4212C57.0754 22.4212 55.1754 24.2212 55.1754 26.7212C55.1754 29.1212 57.0754 31.0212 59.4754 31.0212C61.8754 31.0212 63.7754 29.2212 63.7754 26.7212C63.7754 24.1212 61.8754 22.4212 59.4754 22.4212ZM59.4754 29.2212C58.1754 29.2212 57.0754 28.1212 57.0754 26.6212C57.0754 25.1212 58.1754 24.0212 59.4754 24.0212C60.7754 24.0212 61.8754 25.0212 61.8754 26.6212C61.8754 28.1212 60.7754 29.2212 59.4754 29.2212ZM48.3754 23.7212V25.5212H52.6754C52.5754 26.5212 52.1754 27.3212 51.6754 27.8212C51.0754 28.4212 50.0754 29.1212 48.3754 29.1212C45.6754 29.1212 43.6754 27.0212 43.6754 24.3212C43.6754 21.6212 45.7754 19.5212 48.3754 19.5212C49.7754 19.5212 50.8754 20.1212 51.6754 20.8212L52.9754 19.5212C51.8754 18.5212 50.4754 17.7212 48.4754 17.7212C44.8754 17.7212 41.7754 20.7212 41.7754 24.3212C41.7754 27.9212 44.8754 30.9212 48.4754 30.9212C50.4754 30.9212 51.8754 30.3212 53.0754 29.0212C54.2754 27.8212 54.6754 26.1212 54.6754 24.8212C54.6754 24.4212 54.6754 24.0212 54.5754 23.7212H48.3754ZM93.7754 25.1212C93.3754 24.1212 92.3754 22.4212 90.1754 22.4212C87.9754 22.4212 86.1754 24.1212 86.1754 26.7212C86.1754 29.1212 87.9754 31.0212 90.3754 31.0212C92.2754 31.0212 93.4754 29.8212 93.8754 29.1212L92.4754 28.1212C91.9754 28.8212 91.3754 29.3212 90.3754 29.3212C89.3754 29.3212 88.7754 28.9212 88.2754 28.0212L93.9754 25.6212L93.7754 25.1212ZM87.9754 26.5212C87.9754 24.9212 89.2754 24.0212 90.1754 24.0212C90.8754 24.0212 91.5754 24.4212 91.7754 24.9212L87.9754 26.5212ZM83.2754 30.6212H85.1754V18.1212H83.2754V30.6212ZM80.2754 23.3212C79.7754 22.8212 78.9754 22.3212 77.9754 22.3212C75.8754 22.3212 73.8754 24.2212 73.8754 26.6212C73.8754 29.0212 75.7754 30.8212 77.9754 30.8212C78.9754 30.8212 79.7754 30.3212 80.1754 29.8212H80.2754V30.4212C80.2754 32.0212 79.3754 32.9212 77.9754 32.9212C76.8754 32.9212 76.0754 32.1212 75.8754 31.4212L74.2754 32.1212C74.7754 33.2212 75.9754 34.6212 78.0754 34.6212C80.2754 34.6212 82.0754 33.3212 82.0754 30.2212V22.6212H80.2754V23.3212ZM78.0754 29.2212C76.7754 29.2212 75.6754 28.1212 75.6754 26.6212C75.6754 25.1212 76.7754 24.0212 78.0754 24.0212C79.3754 24.0212 80.3754 25.1212 80.3754 26.6212C80.3754 28.1212 79.3754 29.2212 78.0754 29.2212ZM102.475 18.1212H97.9754V30.6212H99.8754V25.9212H102.475C104.575 25.9212 106.575 24.4212 106.575 22.0212C106.575 19.6212 104.575 18.1212 102.475 18.1212ZM102.575 24.1212H99.8754V19.8212H102.575C103.975 19.8212 104.775 21.0212 104.775 21.9212C104.675 23.0212 103.875 24.1212 102.575 24.1212ZM114.075 22.3212C112.675 22.3212 111.275 22.9212 110.775 24.2212L112.475 24.9212C112.875 24.2212 113.475 24.0212 114.175 24.0212C115.175 24.0212 116.075 24.6212 116.175 25.6212V25.7212C115.875 25.5212 115.075 25.2212 114.275 25.2212C112.475 25.2212 110.675 26.2212 110.675 28.0212C110.675 29.7212 112.175 30.8212 113.775 30.8212C115.075 30.8212 115.675 30.2212 116.175 29.6212H116.275V30.6212H118.075V25.8212C117.875 23.6212 116.175 22.3212 114.075 22.3212ZM113.875 29.2212C113.275 29.2212 112.375 28.9212 112.375 28.1212C112.375 27.1212 113.475 26.8212 114.375 26.8212C115.175 26.8212 115.575 27.0212 116.075 27.2212C115.875 28.4212 114.875 29.2212 113.875 29.2212ZM124.375 22.6212L122.275 28.0212H122.175L119.975 22.6212H117.975L121.275 30.2212L119.375 34.4212H121.275L126.375 22.6212H124.375ZM107.575 30.6212H109.475V18.1212H107.575V30.6212Z" fill="#2E2E33"/>
<path d="M22.968 20.6221L11.2258 32.3644C11.1367 32.1716 11.0762 31.9209 11.0762 31.6211V9.52109C11.0762 9.28946 11.1123 9.08717 11.1698 8.91825L22.968 20.6221Z" fill="#2E2E33" stroke="#F6F6F6"/>
<path d="M27.6762 24.9209L23.5762 20.8209V20.6209V20.5209L27.6762 16.4209L27.7762 16.5209L32.6762 19.3209C34.0762 20.1209 34.0762 21.4209 32.6762 22.2209L27.6762 24.9209Z" fill="#2E2E33" stroke="#F6F6F6"/>
<path d="M27.7817 24.8384L23.6142 20.6709L11.2109 33.0742C11.7071 33.5703 12.4017 33.5703 13.2947 33.1734L27.7817 24.8384Z" fill="#2E2E33" stroke="#F6F6F6"/>
<path d="M27.6762 16.3695L13.1636 8.11924C12.269 7.62223 11.5732 7.72163 11.0762 8.21864L23.5013 20.5444L27.6762 16.3695Z" fill="#2E2E33" stroke="#F6F6F6"/>
<g opacity="0.2">
<mask id="path-8-inside-1" fill="white">
<path d="M27.6762 24.7212L13.1762 32.9212C12.3762 33.4212 11.6762 33.3212 11.1762 32.9212L11.0762 33.0212L11.1762 33.1212C11.6762 33.5212 12.3762 33.6212 13.1762 33.1212L27.6762 24.7212Z"/>
</mask>
<path d="M27.6762 24.7212L13.1762 32.9212C12.3762 33.4212 11.6762 33.3212 11.1762 32.9212L11.0762 33.0212L11.1762 33.1212C11.6762 33.5212 12.3762 33.6212 13.1762 33.1212L27.6762 24.7212Z" fill="#2E2E33"/>
<path d="M27.6762 24.7212L28.1774 25.5865L27.1839 23.8507L27.6762 24.7212ZM13.1762 32.9212L12.6839 32.0507L12.6648 32.0616L12.6462 32.0732L13.1762 32.9212ZM11.1762 32.9212L11.8009 32.1403L11.1019 31.5812L10.4691 32.2141L11.1762 32.9212ZM11.0762 33.0212L10.3691 32.3141L9.66196 33.0212L10.3691 33.7283L11.0762 33.0212ZM11.1762 33.1212L10.4691 33.8283L10.5082 33.8675L10.5515 33.9021L11.1762 33.1212ZM13.1762 33.1212L12.6749 32.2559L12.6604 32.2643L12.6462 32.2732L13.1762 33.1212ZM27.1839 23.8507L12.6839 32.0507L13.6684 33.7916L28.1684 25.5916L27.1839 23.8507ZM12.6462 32.0732C12.3847 32.2366 12.2045 32.2632 12.1007 32.2594C11.9987 32.2556 11.9009 32.2203 11.8009 32.1403L10.5515 33.7021C10.9515 34.0221 11.4537 34.2368 12.0267 34.258C12.5978 34.2792 13.1677 34.1058 13.7062 33.7692L12.6462 32.0732ZM10.4691 32.2141L10.3691 32.3141L11.7833 33.7283L11.8833 33.6283L10.4691 32.2141ZM10.3691 33.7283L10.4691 33.8283L11.8833 32.4141L11.7833 32.3141L10.3691 33.7283ZM10.5515 33.9021C10.9515 34.2221 11.4537 34.4368 12.0267 34.458C12.5978 34.4792 13.1677 34.3058 13.7062 33.9692L12.6462 32.2732C12.3847 32.4366 12.2045 32.4632 12.1007 32.4594C11.9987 32.4556 11.9009 32.4203 11.8009 32.3403L10.5515 33.9021ZM13.6774 33.9865L28.1774 25.5865L27.1749 23.8559L12.6749 32.2559L13.6774 33.9865Z" fill="#F6F6F6" mask="url(#path-8-inside-1)"/>
</g>
<g opacity="0.12">
<mask id="path-10-inside-2" fill="white">
<path d="M11.0758 32.921C10.7758 32.621 10.6758 32.121 10.6758 31.521V31.621C10.6758 32.221 10.8758 32.721 11.1758 33.021V32.921H11.0758Z"/>
</mask>
<path d="M11.0758 32.921C10.7758 32.621 10.6758 32.121 10.6758 31.521V31.621C10.6758 32.221 10.8758 32.721 11.1758 33.021V32.921H11.0758Z" fill="#2E2E33"/>
<path d="M11.0758 32.921L10.3687 33.6281L10.6616 33.921H11.0758V32.921ZM11.1758 33.021L10.4687 33.7281L12.1758 35.4352V33.021H11.1758ZM11.1758 32.921H12.1758V31.921H11.1758V32.921ZM11.7829 32.2139C11.7933 32.2243 11.7624 32.2009 11.7304 32.079C11.6976 31.9545 11.6758 31.7729 11.6758 31.521H9.67578C9.67578 32.1596 9.76595 33.0254 10.3687 33.6281L11.7829 32.2139ZM9.67578 31.521V31.621H11.6758V31.521H9.67578ZM9.67578 31.621C9.67578 32.4262 9.94257 33.202 10.4687 33.7281L11.8829 32.3139C11.809 32.24 11.6758 32.0158 11.6758 31.621H9.67578ZM12.1758 33.021V32.921H10.1758V33.021H12.1758ZM11.1758 31.921H11.0758V33.921H11.1758V31.921Z" fill="#F6F6F6" mask="url(#path-10-inside-2)"/>
</g>
<path opacity="0.12" d="M32.6758 21.9211L27.6758 24.7211L27.7758 24.8211L32.6758 22.0211C33.3758 21.6211 33.6758 21.1211 33.6758 20.6211C33.6758 21.1211 33.2758 21.5211 32.6758 21.9211Z" fill="#2E2E33"/>
<path opacity="0.25" d="M13.1758 8.22097L32.6758 19.321C33.2758 19.721 33.6758 20.121 33.6758 20.621C33.6758 20.121 33.3758 19.621 32.6758 19.221L13.1758 8.12097C11.7758 7.32097 10.6758 8.02097 10.6758 9.62097V9.72097C10.6758 8.12097 11.7758 7.42097 13.1758 8.22097Z" fill="#F6F6F6"/>
<path d="M42.7762 14.9211H42.0762V12.9211H42.6762C43.1762 12.5211 43.4762 11.7211 43.4762 10.6211V7.62109H47.4762V12.9211H48.1762V14.9211H47.4762V13.6211H42.8762V14.9211H42.7762ZM44.1762 10.6211C44.1762 11.5211 43.9762 12.3211 43.5762 12.9211H46.5762V8.42109H44.0762V10.6211H44.1762Z" fill="#2E2E33" stroke="#2E2E33" stroke-width="0.2" stroke-miterlimit="10"/>
<path d="M54.0754 12.821C53.4754 13.421 52.7754 13.721 51.8754 13.721C50.9754 13.721 50.2754 13.421 49.6754 12.821C49.0754 12.221 48.7754 11.521 48.7754 10.621C48.7754 9.721 49.0754 9.021 49.6754 8.421C50.2754 7.821 50.9754 7.521 51.8754 7.521C52.7754 7.521 53.4754 7.821 54.0754 8.421C54.6754 9.021 54.9754 9.721 54.9754 10.621C54.9754 11.521 54.6754 12.221 54.0754 12.821ZM50.2754 12.321C50.6754 12.721 51.2754 13.021 51.8754 13.021C52.4754 13.021 53.0754 12.821 53.4754 12.321C53.8754 11.921 54.1754 11.321 54.1754 10.621C54.1754 9.921 53.9754 9.321 53.4754 8.921C53.0754 8.521 52.4754 8.221 51.8754 8.221C51.2754 8.221 50.6754 8.421 50.2754 8.921C49.8754 9.321 49.5754 9.921 49.5754 10.621C49.5754 11.321 49.7754 11.921 50.2754 12.321Z" fill="#2E2E33" stroke="#2E2E33" stroke-width="0.2" stroke-miterlimit="10"/>
<path d="M58.8754 13.721C57.9754 13.721 57.2754 13.421 56.6754 12.821C56.0754 12.221 55.7754 11.521 55.7754 10.621C55.7754 9.721 56.0754 9.021 56.6754 8.421C57.2754 7.821 57.9754 7.521 58.8754 7.521C59.7754 7.521 60.4754 7.821 61.0754 8.521L60.5754 9.021C60.1754 8.521 59.5754 8.221 58.8754 8.221C58.1754 8.221 57.6754 8.421 57.1754 8.921C56.6754 9.321 56.4754 9.921 56.4754 10.621C56.4754 11.321 56.6754 11.921 57.1754 12.321C57.5754 12.721 58.1754 13.021 58.8754 13.021C59.5754 13.021 60.1754 12.721 60.6754 12.121L61.1754 12.621C60.8754 12.921 60.5754 13.221 60.1754 13.421C59.7754 13.621 59.3754 13.721 58.8754 13.721Z" fill="#2E2E33" stroke="#2E2E33" stroke-width="0.2" stroke-miterlimit="10"/>
<path d="M64.377 13.6211H63.577V8.32109H61.877V7.62109H65.977V8.32109H64.277V13.6211H64.377Z" fill="#2E2E33" stroke="#2E2E33" stroke-width="0.2" stroke-miterlimit="10"/>
<path d="M71.2766 7.62109L68.9766 12.7211C68.6766 13.4211 68.1766 13.8211 67.5766 13.8211C67.3766 13.8211 67.1766 13.8211 66.9766 13.7211L67.1766 13.0211C67.2766 13.1211 67.4766 13.1211 67.5766 13.1211C67.7766 13.1211 67.8766 13.1211 67.9766 13.0211C68.0766 12.9211 68.1766 12.8211 68.2766 12.6211L68.4766 12.1211L66.4766 7.72109H67.3766L68.8766 11.1211L70.2766 7.72109H71.2766V7.62109Z" fill="#2E2E33" stroke="#2E2E33" stroke-width="0.2" stroke-miterlimit="10"/>
<path d="M72.1758 13.6211V7.62109H76.4758V13.6211H75.6758V8.32109H72.8758V13.6211H72.1758Z" fill="#2E2E33" stroke="#2E2E33" stroke-width="0.2" stroke-miterlimit="10"/>
<path d="M77.877 13.6211V7.62109H78.677V10.2211H81.677V7.62109H82.477V13.6211H81.677V10.9211H78.677V13.6211H77.877Z" fill="#2E2E33" stroke="#2E2E33" stroke-width="0.2" stroke-miterlimit="10"/>
<path d="M88.7766 12.821C88.1766 13.421 87.4766 13.721 86.5766 13.721C85.6766 13.721 84.9766 13.421 84.3766 12.821C83.7766 12.221 83.4766 11.521 83.4766 10.621C83.4766 9.721 83.7766 9.021 84.3766 8.421C84.9766 7.821 85.6766 7.521 86.5766 7.521C87.4766 7.521 88.1766 7.821 88.7766 8.421C89.3766 9.021 89.6766 9.721 89.6766 10.621C89.5766 11.521 89.2766 12.221 88.7766 12.821ZM84.8766 12.321C85.2766 12.721 85.8766 13.021 86.4766 13.021C87.0766 13.021 87.6766 12.821 88.0766 12.321C88.4766 11.921 88.7766 11.321 88.7766 10.621C88.7766 9.921 88.5766 9.321 88.0766 8.921C87.6766 8.521 87.0766 8.221 86.4766 8.221C85.8766 8.221 85.2766 8.421 84.8766 8.921C84.4766 9.321 84.1766 9.921 84.1766 10.621C84.1766 11.321 84.4766 11.921 84.8766 12.321Z" fill="#2E2E33" stroke="#2E2E33" stroke-width="0.2" stroke-miterlimit="10"/>
<path d="M92.7754 13.6211V7.62109H94.9754C95.4754 7.62109 95.8754 7.82109 96.1754 8.12109C96.4754 8.42109 96.6754 8.82109 96.6754 9.32109C96.6754 9.62109 96.5754 9.82109 96.4754 10.1211C96.3754 10.3211 96.1754 10.5211 95.8754 10.6211C96.1754 10.7211 96.3754 10.9211 96.5754 11.1211C96.7754 11.3211 96.8754 11.6211 96.8754 12.0211C96.8754 12.5211 96.6754 12.9211 96.3754 13.2211C95.9754 13.5211 95.5754 13.7211 95.0754 13.7211H92.7754V13.6211ZM93.5754 10.2211H94.9754C95.2754 10.2211 95.4754 10.1211 95.6754 9.92109C95.8754 9.72109 95.9754 9.52109 95.9754 9.32109C95.9754 9.12109 95.8754 8.92109 95.6754 8.72109C95.4754 8.52109 95.2754 8.42109 94.9754 8.42109H93.5754V10.2211ZM93.5754 12.9211H95.1754C95.4754 12.9211 95.6754 12.8211 95.8754 12.6211C96.0754 12.4211 96.1754 12.2211 96.1754 11.9211C96.1754 11.7211 96.0754 11.4211 95.8754 11.2211C95.6754 11.0211 95.4754 10.9211 95.1754 10.9211H93.6754V12.9211H93.5754Z" fill="#2E2E33" stroke="#2E2E33" stroke-width="0.2" stroke-miterlimit="10"/>
</svg>
