<svg width="41" height="41" viewBox="0 0 41 41" fill="none" xmlns="http://www.w3.org/2000/svg">
<rect x="0.609375" y="0.335938" width="40" height="40" rx="3" fill="white"/>
<path fill-rule="evenodd" clip-rule="evenodd" d="M16.0744 9.40194C17.2474 9.34794 17.6214 9.33594 20.6094 9.33594C23.5974 9.33594 23.9714 9.34894 25.1434 9.40194C26.3154 9.45494 27.1154 9.64194 27.8154 9.91294C28.5484 10.1899 29.2134 10.6229 29.7634 11.1829C30.3234 11.7319 30.7554 12.3959 31.0314 13.1299C31.3034 13.8299 31.4894 14.6299 31.5434 15.7999C31.5974 16.9749 31.6094 17.3489 31.6094 20.3359C31.6094 23.3239 31.5964 23.6979 31.5434 24.8709C31.4904 26.0409 31.3034 26.8409 31.0314 27.5409C30.7554 28.275 30.3227 28.9401 29.7634 29.4899C29.2134 30.0499 28.5484 30.4819 27.8154 30.7579C27.1154 31.0299 26.3154 31.2159 25.1454 31.2699C23.9714 31.3239 23.5974 31.3359 20.6094 31.3359C17.6214 31.3359 17.2474 31.3229 16.0744 31.2699C14.9044 31.2169 14.1044 31.0299 13.4044 30.7579C12.6703 30.4819 12.0052 30.0492 11.4554 29.4899C10.8958 28.9406 10.4627 28.2758 10.1864 27.5419C9.91538 26.8419 9.72937 26.0419 9.67537 24.8719C9.62137 23.6969 9.60938 23.3229 9.60938 20.3359C9.60938 17.3479 9.62237 16.9739 9.67537 15.8019C9.72837 14.6299 9.91538 13.8299 10.1864 13.1299C10.4631 12.396 10.8965 11.7313 11.4564 11.1819C12.0054 10.6224 12.6698 10.1894 13.4034 9.91294C14.1034 9.64194 14.9034 9.45594 16.0734 9.40194H16.0744ZM25.0544 11.3819C23.8944 11.3289 23.5464 11.3179 20.6094 11.3179C17.6724 11.3179 17.3244 11.3289 16.1644 11.3819C15.0914 11.4309 14.5094 11.6099 14.1214 11.7609C13.6084 11.9609 13.2414 12.1979 12.8564 12.5829C12.4914 12.938 12.2106 13.3702 12.0344 13.8479C11.8834 14.2359 11.7044 14.8179 11.6554 15.8909C11.6024 17.0509 11.5914 17.3989 11.5914 20.3359C11.5914 23.2729 11.6024 23.6209 11.6554 24.7809C11.7044 25.8539 11.8834 26.4359 12.0344 26.8239C12.2104 27.3009 12.4914 27.7339 12.8564 28.0889C13.2114 28.4539 13.6444 28.7349 14.1214 28.9109C14.5094 29.0619 15.0914 29.2409 16.1644 29.2899C17.3244 29.3429 17.6714 29.3539 20.6094 29.3539C23.5474 29.3539 23.8944 29.3429 25.0544 29.2899C26.1274 29.2409 26.7094 29.0619 27.0974 28.9109C27.6104 28.7109 27.9774 28.4739 28.3624 28.0889C28.7274 27.7339 29.0084 27.3009 29.1844 26.8239C29.3354 26.4359 29.5144 25.8539 29.5634 24.7809C29.6164 23.6209 29.6274 23.2729 29.6274 20.3359C29.6274 17.3989 29.6164 17.0509 29.5634 15.8909C29.5144 14.8179 29.3354 14.2359 29.1844 13.8479C28.9844 13.3349 28.7474 12.9679 28.3624 12.5829C28.0073 12.218 27.5751 11.9371 27.0974 11.7609C26.7094 11.6099 26.1274 11.4309 25.0544 11.3819ZM19.2044 23.7269C19.989 24.0536 20.8628 24.0977 21.6763 23.8517C22.4899 23.6057 23.1928 23.0849 23.665 22.3782C24.1372 21.6715 24.3494 20.8228 24.2654 19.977C24.1814 19.1313 23.8064 18.3409 23.2044 17.7409C22.8206 17.3574 22.3566 17.0637 21.8457 16.8811C21.3348 16.6984 20.7898 16.6313 20.2499 16.6846C19.7099 16.7378 19.1885 16.9101 18.7232 17.1891C18.2578 17.468 17.8601 17.8467 17.5587 18.2978C17.2572 18.7489 17.0596 19.2612 16.9799 19.7979C16.9002 20.3346 16.9405 20.8822 17.0979 21.4015C17.2553 21.9207 17.5259 22.3985 17.8901 22.8007C18.2543 23.2028 18.7032 23.5191 19.2044 23.7269ZM16.6114 16.3379C17.1364 15.8129 17.7597 15.3964 18.4457 15.1123C19.1317 14.8282 19.8669 14.6819 20.6094 14.6819C21.3519 14.6819 22.0871 14.8282 22.7731 15.1123C23.4591 15.3964 24.0824 15.8129 24.6074 16.3379C25.1324 16.863 25.5489 17.4863 25.833 18.1722C26.1172 18.8582 26.2634 19.5934 26.2634 20.3359C26.2634 21.0784 26.1172 21.8137 25.833 22.4996C25.5489 23.1856 25.1324 23.8089 24.6074 24.3339C23.547 25.3943 22.1089 25.99 20.6094 25.99C19.1098 25.99 17.6717 25.3943 16.6114 24.3339C15.551 23.2736 14.9553 21.8355 14.9553 20.3359C14.9553 18.8364 15.551 17.3983 16.6114 16.3379ZM27.5174 15.5239C27.6475 15.4012 27.7516 15.2536 27.8237 15.0899C27.8957 14.9262 27.9342 14.7497 27.9368 14.5709C27.9394 14.392 27.9061 14.2145 27.8389 14.0487C27.7716 13.883 27.6718 13.7324 27.5453 13.606C27.4189 13.4795 27.2683 13.3797 27.1026 13.3125C26.9368 13.2452 26.7593 13.2119 26.5804 13.2145C26.4016 13.2171 26.2251 13.2556 26.0614 13.3276C25.8977 13.3997 25.7501 13.5038 25.6274 13.6339C25.3887 13.887 25.258 14.2231 25.2631 14.5709C25.2681 14.9187 25.4086 15.2508 25.6545 15.4968C25.9005 15.7427 26.2326 15.8832 26.5804 15.8882C26.9283 15.8933 27.2643 15.7626 27.5174 15.5239Z" fill="#2E2E33"/>
</svg>
