<svg width="61" height="61" viewBox="0 0 61 61" fill="none" xmlns="http://www.w3.org/2000/svg">
<rect x="2.98047" y="2.19922" width="56" height="56" rx="28" fill="white"/>
<path d="M33.4115 34.9345C34.6381 34.6537 35.8087 34.1687 36.8746 33.4998C37.2503 33.2462 37.5127 32.8564 37.6061 32.4128C37.6996 31.9692 37.6168 31.5067 37.3753 31.123C37.1338 30.7394 36.7526 30.4647 36.3122 30.3572C35.8718 30.2496 35.4069 30.3176 35.0157 30.5467C33.8123 31.298 32.4221 31.6963 31.0034 31.6963C29.5846 31.6963 28.1944 31.298 26.991 30.5467C26.6003 30.3004 26.1279 30.219 25.6773 30.3202C25.2267 30.4215 24.8346 30.6972 24.5868 31.087V31.0906C24.4644 31.2842 24.3814 31.5 24.3426 31.7257C24.3038 31.9514 24.3098 32.1825 24.3605 32.4059C24.4112 32.6292 24.5054 32.8403 24.6378 33.0272C24.7702 33.2141 24.9382 33.3729 25.1321 33.4948L25.135 33.4984C26.1981 34.1674 27.3668 34.6515 28.5916 34.9302L25.2591 38.262C24.9328 38.5822 24.7468 39.0188 24.742 39.476C24.7371 39.9332 24.9137 40.3736 25.2331 40.7008L25.2627 40.7303C25.5938 41.0715 26.041 41.241 26.4882 41.241C26.9355 41.241 27.382 41.0715 27.7123 40.7303L31.0037 37.4577L34.2756 40.7347C34.971 41.399 36.0753 41.3839 36.7447 40.6892C37.0589 40.364 37.2345 39.9296 37.2345 39.4774C37.2345 39.0253 37.0589 38.5908 36.7447 38.2656L33.4115 34.9345ZM31.003 30.0735C32.5824 30.0726 34.0969 29.4449 35.214 28.3284C36.331 27.2119 36.9594 25.6977 36.9611 24.1183C36.9611 20.8348 34.2865 18.1602 31.003 18.1602C27.7195 18.1602 25.0449 20.8348 25.0449 24.1183C25.0466 25.698 25.6748 27.2126 26.7918 28.3297C27.9088 29.4468 29.4233 30.0752 31.003 30.0771V30.0735ZM31.003 21.6542C31.6564 21.6546 32.2829 21.9144 32.7449 22.3764C33.2069 22.8384 33.4666 23.4649 33.467 24.1183C33.4668 24.7722 33.2073 25.3993 32.7454 25.8622C32.2835 26.3251 31.6569 26.5858 31.003 26.5874C30.3488 26.5857 29.7219 26.3249 29.2595 25.8622C28.797 25.3995 28.5367 24.7725 28.5353 24.1183C28.5376 23.4645 28.7983 22.8382 29.2606 22.3759C29.7229 21.9136 30.3492 21.6529 31.003 21.6506V21.6542Z" fill="#2E2E33"/>
<rect x="2.98047" y="2.19922" width="56" height="56" rx="28" stroke="#2E2E33" stroke-width="4"/>
</svg>
