<svg width="61" height="61" viewBox="0 0 61 61" fill="none" xmlns="http://www.w3.org/2000/svg">
<rect x="2.98047" y="2.19922" width="56" height="56" rx="28" fill="white"/>
<path d="M42.6103 24.6086C41.8285 24.955 40.9887 25.189 40.1058 25.2948C41.0168 24.7497 41.6983 23.8918 42.0233 22.8812C41.1674 23.3895 40.2306 23.7474 39.2538 23.9391C38.5969 23.2377 37.7268 22.7729 36.7786 22.6166C35.8304 22.4604 34.8572 22.6216 34.01 23.0752C33.1628 23.5288 32.4891 24.2494 32.0934 25.1251C31.6977 26.0008 31.6022 26.9827 31.8218 27.9182C30.0875 27.8312 28.391 27.3804 26.8422 26.5952C25.2934 25.81 23.9271 24.7079 22.8318 23.3605C22.4573 24.0065 22.2419 24.7555 22.2419 25.5532C22.2415 26.2713 22.4184 26.9785 22.7568 27.6118C23.0952 28.2452 23.5847 28.7852 24.1819 29.1841C23.4893 29.162 22.812 28.9749 22.2064 28.6382V28.6944C22.2063 29.7016 22.5547 30.6777 23.1924 31.4573C23.8302 32.2368 24.718 32.7717 25.7052 32.9712C25.0627 33.1451 24.3891 33.1707 23.7353 33.0461C24.0138 33.9127 24.5564 34.6706 25.287 35.2135C26.0176 35.7564 26.8998 36.0573 27.8099 36.074C26.2649 37.2868 24.3569 37.9447 22.3927 37.9418C22.0448 37.9419 21.6971 37.9216 21.3516 37.881C23.3453 39.1629 25.6662 39.8432 28.0365 39.8406C36.0602 39.8406 40.4466 33.195 40.4466 27.4314C40.4466 27.2441 40.4419 27.055 40.4335 26.8677C41.2867 26.2507 42.0232 25.4867 42.6084 24.6114L42.6103 24.6086Z" fill="#2E2E33"/>
<rect x="2.98047" y="2.19922" width="56" height="56" rx="28" stroke="#2E2E33" stroke-width="4"/>
</svg>
