<svg width="41" height="41" viewBox="0 0 41 41" fill="none" xmlns="http://www.w3.org/2000/svg">
<rect x="0.609375" y="0.738281" width="40" height="40" rx="3" fill="white"/>
<path fill-rule="evenodd" clip-rule="evenodd" d="M30.7399 15.3856C30.8868 14.9026 30.7399 14.5469 30.0365 14.5469H27.714C27.123 14.5469 26.8505 14.8539 26.7027 15.1928C26.7027 15.1928 25.5216 18.0205 23.8485 19.8572C23.307 20.3899 23.061 20.5589 22.7655 20.5589C22.6178 20.5589 22.3957 20.3899 22.3957 19.9059V15.3856C22.3957 14.8052 22.2329 14.5469 21.741 14.5469H18.0887C17.7197 14.5469 17.4976 14.8158 17.4976 15.0715C17.4976 15.621 18.3346 15.7484 18.4205 17.295V20.6553C18.4205 21.3923 18.2851 21.5259 17.9896 21.5259C17.2021 21.5259 15.2866 18.6849 14.1497 15.4343C13.9294 14.8017 13.7064 14.5469 13.1128 14.5469H10.7885C10.1249 14.5469 9.99219 14.8539 9.99219 15.1928C9.99219 15.7962 10.7796 18.7937 13.6595 22.7584C15.5795 25.4658 18.2824 26.9336 20.7447 26.9336C22.2214 26.9336 22.4037 26.608 22.4037 26.0462V23.9997C22.4037 23.3476 22.5435 23.2176 23.0115 23.2176C23.3566 23.2176 23.9467 23.3874 25.3252 24.6925C26.9 26.2399 27.1593 26.9336 28.0458 26.9336H30.3683C31.0319 26.9336 31.3646 26.608 31.1735 25.9639C30.9629 25.3233 30.2108 24.3934 29.2137 23.2901C28.6722 22.6619 27.86 21.9851 27.6132 21.6462C27.269 21.2118 27.3672 21.018 27.6132 20.6314C27.6132 20.6314 30.4444 16.7154 30.739 15.3856H30.7399Z" fill="#2E2E33"/>
</svg>
