<svg width="61" height="61" viewBox="0 0 61 61" fill="none" xmlns="http://www.w3.org/2000/svg">
<rect x="2.98047" y="2.19922" width="56" height="56" rx="28" fill="white"/>
<path fill-rule="evenodd" clip-rule="evenodd" d="M42.6916 24.0088C42.8614 23.4503 42.6916 23.0391 41.8784 23.0391H39.1933C38.5101 23.0391 38.195 23.394 38.0242 23.7858C38.0242 23.7858 36.6587 27.0549 34.7244 29.1784C34.0984 29.7942 33.814 29.9895 33.4724 29.9895C33.3016 29.9895 33.0448 29.7942 33.0448 29.2346V24.0088C33.0448 23.3377 32.8566 23.0391 32.2879 23.0391H28.0654C27.6389 23.0391 27.3822 23.35 27.3822 23.6456C27.3822 24.2808 28.3498 24.4281 28.449 26.2161V30.101C28.449 30.9531 28.2925 31.1075 27.9509 31.1075C27.0405 31.1075 24.826 27.8231 23.5116 24.065C23.2569 23.3337 22.9991 23.0391 22.3128 23.0391H19.6257C18.8585 23.0391 18.7051 23.394 18.7051 23.7858C18.7051 24.4834 19.6154 27.9489 22.9449 32.5324C25.1646 35.6624 28.2895 37.3594 31.1361 37.3594C32.8433 37.3594 33.054 36.983 33.054 36.3334V33.9675C33.054 33.2136 33.2156 33.0633 33.7567 33.0633C34.1557 33.0633 34.8379 33.2597 36.4316 34.7684C38.2523 36.5574 38.552 37.3594 39.5769 37.3594H42.262C43.0291 37.3594 43.4137 36.983 43.1928 36.2383C42.9494 35.4977 42.0799 34.4227 40.9271 33.1472C40.3011 32.4209 39.3621 31.6384 39.0767 31.2466C38.6788 30.7444 38.7924 30.5204 39.0767 30.0734C39.0767 30.0734 42.35 25.5461 42.6906 24.0088H42.6916Z" fill="#2E2E33"/>
<rect x="2.98047" y="2.19922" width="56" height="56" rx="28" stroke="#2E2E33" stroke-width="4"/>
</svg>
