<svg width="141" height="56" viewBox="0 0 141 56" fill="none" xmlns="http://www.w3.org/2000/svg">
<path d="M140.731 21.5042L140.761 7.1081L85.9659 7.00205L57.1449 6.89523L0.738025 6.68616L0.711709 19.6647C4.58196 19.6791 7.70161 23.2818 7.68988 27.7235C7.67814 32.1653 4.53951 35.7448 0.669261 35.7305L0.6392 50.1266L57.0461 50.3357L85.8671 50.4425L140.663 50.5485L140.689 37.57C136.819 37.5556 133.699 33.9529 133.711 29.5112C133.722 25.0695 136.861 21.4899 140.731 21.5042Z" fill="white"/>
<path d="M84.8366 6.38266L129.127 1.78045L130.014 13.7615C126.385 14.7295 124.077 18.7919 124.39 23.0252C124.704 27.2584 127.574 30.7827 131.29 30.9874L132.077 41.6107L87.7869 46.2129L62.0019 48.8922L7.88797 54.5152L7.00051 42.5342C10.63 41.5662 12.9382 37.5037 12.6246 33.2705C12.311 29.0373 9.44087 25.513 5.72454 25.3082L4.93766 14.685L59.0516 9.06199L84.8366 6.38266Z" stroke="#2E2E33" stroke-width="2"/>
<path d="M59.8242 25.3289L58.3637 25.4927L57.8917 19.5886L55.0627 19.9058L55.5347 25.8098L54.079 25.973L53.5125 18.8862L59.2577 18.2422L59.8242 25.3289ZM65.5327 22.0813C65.5976 22.8925 65.4652 23.5638 65.1356 24.0951C64.8089 24.6228 64.3334 24.9217 63.7091 24.9917C63.1786 25.0511 62.7352 24.9142 62.3789 24.5809L62.5773 27.0632L61.1749 27.2205L60.5921 19.9293L61.8925 19.7835L61.9823 20.294C62.2893 19.847 62.7161 19.5929 63.2628 19.5316C63.9098 19.4591 64.4321 19.6428 64.8295 20.0828C65.227 20.5228 65.4595 21.1646 65.5269 22.0083L65.5327 22.0813ZM64.1222 22.1363C64.083 21.6463 63.9655 21.2781 63.7695 21.0316C63.5768 20.7847 63.3155 20.6798 62.9855 20.7168C62.5455 20.7661 62.2566 20.9688 62.1186 21.3247L62.2909 23.4809C62.4901 23.8089 62.8097 23.9482 63.2497 23.8989C63.9193 23.8238 64.2101 23.2363 64.1222 22.1363ZM69.3556 18.9469L70.7579 18.7897L71.1789 24.0561L69.7765 24.2133L69.5166 20.9619L68.02 24.4102L66.6128 24.5679L66.1918 19.3015L67.599 19.1438L67.8585 22.3903L69.3556 18.9469ZM74.7106 19.9131C74.6958 19.7282 74.6229 19.5923 74.492 19.5055C74.364 19.4151 74.1884 19.3824 73.9651 19.4074C73.7355 19.4331 73.5517 19.5028 73.4139 19.6165C73.2791 19.7266 73.2187 19.8692 73.2327 20.0444L71.8304 20.2016C71.7922 19.7246 71.9586 19.3148 72.3294 18.972C72.7002 18.6292 73.1929 18.4234 73.8075 18.3545C74.4836 18.2787 75.0248 18.3523 75.431 18.5752C75.8405 18.7977 76.0648 19.154 76.104 19.644C76.1227 19.8776 76.0687 20.1014 75.9422 20.3153C75.8187 20.5256 75.6338 20.7034 75.3876 20.8489C76.0029 20.9927 76.3347 21.3664 76.3829 21.9699C76.4216 22.4534 76.2454 22.8628 75.8544 23.198C75.4664 23.5296 74.9295 23.7338 74.2437 23.8107C73.6064 23.8822 73.0704 23.7916 72.6357 23.5392C72.201 23.2867 71.9634 22.9074 71.923 22.4012L73.3253 22.244C73.3396 22.4224 73.4304 22.5579 73.5977 22.6505C73.7651 22.743 73.9765 22.775 74.2321 22.7464C74.4811 22.7184 74.6706 22.6383 74.8003 22.5059C74.9301 22.3734 74.9875 22.2131 74.9724 22.0249C74.954 21.7946 74.8746 21.6381 74.7342 21.5556C74.5935 21.4699 74.3905 21.4419 74.1253 21.4717L73.3634 21.5571L73.2903 20.642L74.1006 20.5512C74.5363 20.4892 74.7396 20.2766 74.7106 19.9131ZM78.5578 19.472L79.5622 19.3594C80.0151 19.3087 80.4191 19.3403 80.7742 19.4544C81.1293 19.5685 81.4088 19.7581 81.6128 20.0234C81.8198 20.285 81.9383 20.604 81.9684 20.9804C82.0127 21.5353 81.8431 22.0061 81.4595 22.3929C81.0789 22.776 80.536 23.0071 79.8308 23.0862L77.4482 23.3533L77.0272 18.0869L78.4344 17.9291L78.5578 19.472ZM84.3484 22.5798L82.946 22.737L82.525 17.4706L83.9274 17.3134L84.3484 22.5798ZM78.648 20.6013L78.7655 22.0712L79.7603 21.9597C80.0385 21.9285 80.2468 21.8396 80.3852 21.6932C80.5237 21.5467 80.5839 21.3615 80.566 21.1376C80.5479 20.9105 80.4607 20.7385 80.3045 20.6218C80.148 20.5019 79.9275 20.4578 79.6428 20.4897L78.648 20.6013ZM32.4812 38.5037L31.9183 38.5668L32.0735 40.5088L30.6712 40.666L30.2502 35.3996L31.6526 35.2424L31.8109 37.2234L32.3107 37.1674L33.2975 35.058L35.0687 34.8595L33.5513 37.5587L35.6498 40.1079L33.7816 40.3174L32.4812 38.5037ZM39.2212 39.7076C39.1463 39.5883 39.0869 39.4362 39.0427 39.2512C38.7334 39.669 38.307 39.9083 37.7635 39.9692C37.2491 40.0269 36.8102 39.9255 36.4467 39.665C36.0864 39.4042 35.8881 39.0467 35.8518 38.5924C35.8071 38.0343 35.9783 37.5829 36.3653 37.2383C36.7555 36.8934 37.3403 36.6756 38.1196 36.585L38.765 36.5126L38.7409 36.2108C38.7214 35.9675 38.6428 35.7799 38.505 35.648C38.3704 35.5157 38.1688 35.4647 37.9003 35.4948C37.6642 35.5212 37.4827 35.5989 37.3559 35.7277C37.2323 35.8561 37.1785 36.0193 37.1943 36.2172L35.792 36.3745C35.7676 36.0694 35.8388 35.7766 36.0057 35.496C36.1726 35.2154 36.4216 34.9828 36.7529 34.7984C37.0838 34.6107 37.4628 34.4929 37.8898 34.445C38.5368 34.3725 39.0627 34.4789 39.4673 34.7642C39.875 35.0459 40.1024 35.482 40.1497 36.0726L40.3321 38.3553C40.3753 38.8547 40.4751 39.2249 40.6314 39.466L40.6381 39.5488L39.2212 39.7076ZM37.9832 38.8593C38.1903 38.8361 38.3775 38.7692 38.5449 38.6588C38.7121 38.5451 38.8315 38.4057 38.9031 38.2405L38.8308 37.3352L38.3067 37.3939C37.6047 37.4726 37.2505 37.7579 37.2442 38.2497L37.2459 38.333C37.2599 38.5082 37.3329 38.6457 37.465 38.7455C37.597 38.8453 37.7697 38.8832 37.9832 38.8593ZM46.402 36.9333L45.7663 37.0046L45.9223 38.9564L44.52 39.1136L44.364 37.1618L43.738 37.232L42.8508 39.3007L41.1573 39.4905L42.5917 36.5502L40.7557 34.222L42.4929 34.0272L43.7418 35.8712L44.2562 35.8136L44.099 33.8472L45.5014 33.69L45.6585 35.6564L46.1826 35.5976L47.1221 33.5083L48.8592 33.3136L47.4317 35.9732L49.3239 38.5751L47.6013 38.7682L46.402 36.9333ZM49.9805 37.3572C50.2706 36.9842 50.459 36.6259 50.5457 36.2822C50.6325 35.9385 50.6581 35.4626 50.6225 34.8543L50.5236 33.127L54.3861 32.694L54.7165 36.8263L55.4734 36.7415L55.6905 39.4574L54.2882 39.6146L54.1617 38.0327L51.0513 38.3814L51.1778 39.9633L49.7463 40.1237L49.5292 37.4078L49.9805 37.3572ZM51.6352 37.1717L53.319 36.983L53.0816 34.0139L51.9898 34.1363L52.0307 34.7702C52.0789 35.7404 51.947 36.5409 51.6352 37.1717ZM58.0786 35.5851L58.7873 32.2006L60.2915 32.032L58.6671 38.3527L58.5728 38.6432C58.314 39.3663 57.8239 39.7683 57.1025 39.8491C56.8987 39.872 56.6892 39.8644 56.474 39.8263L56.3888 38.7604L56.6027 38.7413C56.868 38.7115 57.062 38.6489 57.185 38.5532C57.3111 38.4572 57.4039 38.311 57.4632 38.1144L57.5936 37.6628L55.3324 32.5879L56.8415 32.4187L58.0786 35.5851ZM62.525 33.8196L63.282 33.7348C63.3331 33.0677 63.5587 32.5219 63.9589 32.0972C64.362 31.669 64.8919 31.4181 65.5486 31.3444C66.2571 31.265 66.8519 31.4177 67.3331 31.8025C67.8175 32.1869 68.1154 32.7493 68.2268 33.4898L68.2653 33.8489C68.3299 34.6569 68.157 35.3311 67.7465 35.8715C67.3357 36.4086 66.7519 36.7196 65.9949 36.8044C65.3123 36.881 64.7368 36.7458 64.2685 36.3989C63.8033 36.0516 63.5 35.5437 63.3584 34.8754L62.616 34.9586L62.7845 37.0661L61.3773 37.2239L60.9563 31.9575L62.3635 31.7997L62.525 33.8196ZM64.6939 34.2493C64.7339 34.749 64.8583 35.1214 65.0672 35.3664C65.2758 35.6082 65.5548 35.7095 65.9042 35.6704C66.2504 35.6316 66.5067 35.4702 66.6734 35.1864C66.84 34.9025 66.9004 34.475 66.8548 33.9039C66.8156 33.414 66.6899 33.045 66.4775 32.7971C66.2651 32.5491 65.9858 32.4446 65.6397 32.4834C65.2968 32.5218 65.0423 32.6862 64.8762 32.9766C64.7098 33.2637 64.6491 33.6879 64.6939 34.2493ZM76.3567 35.5447L74.9495 35.7024L74.7877 33.6776L73.0456 33.8729L73.2075 35.8977L71.8051 36.0549L71.3842 30.7885L72.7865 30.6313L72.9554 32.7437L74.6974 32.5484L74.5285 30.436L75.9357 30.2783L76.3567 35.5447ZM79.8679 35.2493C79.098 35.3356 78.4515 35.1691 77.9284 34.7497C77.4085 34.33 77.1171 33.7259 77.054 32.9374L77.0431 32.8011C77.0009 32.2722 77.065 31.7886 77.2356 31.3504C77.406 30.909 77.6682 30.5555 78.0223 30.2899C78.3794 30.0207 78.7973 29.8592 79.2761 29.8056C79.9943 29.7251 80.5769 29.8889 81.0241 30.2972C81.4745 30.705 81.733 31.3259 81.7997 32.1598L81.8456 32.7342L78.5022 33.109C78.575 33.4478 78.7329 33.7084 78.976 33.8907C79.2223 34.0726 79.5201 34.144 79.8695 34.1049C80.4097 34.0443 80.8162 33.8007 81.0889 33.3739L81.8398 34.0706C81.6534 34.3927 81.3874 34.6582 81.0418 34.8672C80.6959 35.073 80.3047 35.2003 79.8679 35.2493ZM79.3623 30.9451C79.0841 30.9763 78.8652 31.0957 78.7055 31.3035C78.5491 31.5109 78.4607 31.7926 78.4402 32.1485L80.3908 31.9298L80.3819 31.8179C80.3505 31.5071 80.2472 31.2764 80.072 31.1258C79.8965 30.9719 79.6599 30.9117 79.3623 30.9451ZM82.8023 33.6779C83.0923 33.3049 83.2807 32.9465 83.3675 32.6029C83.4542 32.2592 83.4798 31.7832 83.4443 31.175L83.3454 29.4476L87.2079 29.0146L87.5382 33.147L88.2952 33.0621L88.5123 35.7781L87.11 35.9353L86.9835 34.3534L83.8731 34.7021L83.9996 36.2839L82.5681 36.4444L82.351 33.7285L82.8023 33.6779ZM84.4569 33.4924L86.1407 33.3036L85.9034 30.3346L84.8116 30.457L84.8525 31.0908C84.9006 32.061 84.7688 32.8616 84.4569 33.4924ZM91.5234 33.9427C90.7535 34.029 90.107 33.8625 89.5839 33.4431C89.064 33.0234 88.7726 32.4193 88.7095 31.6308L88.6986 31.4945C88.6564 30.9656 88.7205 30.482 88.8911 30.0438C89.0615 29.6024 89.3237 29.2489 89.6778 28.9833C90.0349 28.7141 90.4528 28.5527 90.9316 28.499C91.6498 28.4185 92.2324 28.5823 92.6796 28.9906C93.13 29.3984 93.3885 30.0193 93.4552 30.8532L93.5011 31.4276L90.1578 31.8024C90.2305 32.1413 90.3885 32.4018 90.6315 32.5841C90.8778 32.766 91.1756 32.8374 91.525 32.7983C92.0652 32.7377 92.4717 32.4941 92.7444 32.0673L93.4953 32.764C93.3089 33.0861 93.0429 33.3516 92.6973 33.5606C92.3514 33.7664 91.9602 33.8937 91.5234 33.9427ZM91.0178 29.6385C90.7396 29.6697 90.5207 29.7891 90.361 29.9969C90.2046 30.2044 90.1162 30.486 90.0957 30.8419L92.0463 30.6232L92.0374 30.5113C92.006 30.2005 91.9027 29.9698 91.7275 29.8192C91.552 29.6654 91.3154 29.6051 91.0178 29.6385ZM98.6208 27.7352L99.0418 33.0016L97.6394 33.1589L97.3095 29.0314L96.0721 29.1701L96.1147 30.8056C96.129 31.6781 96.0096 32.3283 95.7566 32.7561C95.5035 33.1838 95.096 33.4342 94.5339 33.507L94.0583 33.5603L93.9523 32.4181L94.1259 32.3839C94.3766 32.3362 94.5491 32.1662 94.6432 31.8741C94.7374 31.582 94.7722 31.0985 94.7476 30.4235L94.6661 28.1786L98.6208 27.7352ZM101.383 29.4636L102.14 29.3787C102.191 28.7117 102.417 28.1658 102.817 27.7412C103.22 27.313 103.75 27.062 104.407 26.9884C105.115 26.909 105.71 27.0617 106.191 27.4464C106.676 27.8308 106.974 28.3933 107.085 29.1338L107.123 29.4929C107.188 30.3009 107.015 30.975 106.605 31.5154C106.194 32.0526 105.61 32.3636 104.853 32.4484C104.17 32.5249 103.595 32.3897 103.127 32.0428C102.662 31.6955 102.358 31.1877 102.217 30.5193L101.474 30.6025L101.643 32.7101L100.235 32.8678L99.8145 27.6014L101.222 27.4437L101.383 29.4636ZM103.552 29.8933C103.592 30.393 103.716 30.7653 103.925 31.0104C104.134 31.2522 104.413 31.3535 104.762 31.3143C105.109 31.2755 105.365 31.1142 105.532 30.8303C105.698 30.5465 105.759 30.119 105.713 29.5479C105.674 29.0579 105.548 28.689 105.336 28.441C105.123 28.1931 104.844 28.0886 104.498 28.1274C104.155 28.1658 103.9 28.3302 103.734 28.6205C103.568 28.9077 103.507 29.3319 103.552 29.8933ZM109.441 29.6407L108.277 29.7712L107.719 24.8786L109.214 24.7111L109.441 29.6407ZM108.92 30.475C109.157 30.4485 109.351 30.4971 109.505 30.6206C109.662 30.7438 109.749 30.9142 109.766 31.1316C109.783 31.3457 109.725 31.5307 109.59 31.6866C109.459 31.8421 109.275 31.933 109.039 31.9595C108.806 31.9856 108.611 31.9371 108.455 31.8139C108.301 31.6903 108.216 31.5214 108.199 31.3073C108.182 31.0931 108.239 30.9083 108.37 30.7528C108.504 30.5937 108.688 30.5011 108.92 30.475Z" fill="#2E2E33"/>
</svg>
