<svg width="65" height="65" viewBox="0 0 65 65" fill="none" xmlns="http://www.w3.org/2000/svg">
<circle cx="32.5688" cy="32.9551" r="30" fill="white" stroke="#0EC645" stroke-width="4"/>
<path d="M17.7432 30.9551C16.6386 30.9551 15.7432 31.8505 15.7432 32.9551C15.7432 34.0596 16.6386 34.9551 17.7432 34.9551V30.9551ZM48.8082 34.3693C49.5893 33.5882 49.5893 32.3219 48.8082 31.5409L36.0803 18.8129C35.2993 18.0319 34.0329 18.0319 33.2519 18.8129C32.4708 19.594 32.4708 20.8603 33.2519 21.6414L44.5656 32.9551L33.2519 44.2688C32.4708 45.0498 32.4708 46.3162 33.2519 47.0972C34.0329 47.8783 35.2993 47.8783 36.0803 47.0972L48.8082 34.3693ZM17.7432 34.9551H47.394V30.9551H17.7432V34.9551Z" fill="#2E2E33"/>
</svg>
