<svg width="65" height="64" viewBox="0 0 65 64" fill="none" xmlns="http://www.w3.org/2000/svg">
<circle cx="32.2725" cy="32" r="30" stroke="#0EC645" stroke-width="4"/>
<path fill-rule="evenodd" clip-rule="evenodd" d="M33.8858 46.8289C36.9184 42.0741 43.1664 31.7251 43.1664 27.1686C43.1664 21.1519 38.289 16.2744 32.2723 16.2744C26.2556 16.2744 21.3782 21.1519 21.3782 27.1686C21.3782 31.7251 27.6262 42.0741 30.6589 46.8289C31.4204 48.0229 33.1242 48.0229 33.8858 46.8289ZM32.2723 32.4478C35.2004 32.4478 37.5741 30.0741 37.5741 27.146C37.5741 24.2179 35.2004 21.8442 32.2723 21.8442C29.3442 21.8442 26.9705 24.2179 26.9705 27.146C26.9705 30.0741 29.3442 32.4478 32.2723 32.4478Z" fill="#2E2E33"/>
</svg>
