<svg width="65" height="64" viewBox="0 0 65 64" fill="none" xmlns="http://www.w3.org/2000/svg">
<circle cx="32.2734" cy="32" r="30" stroke="#0EC645" stroke-width="4"/>
<path d="M32.2735 17.0732L36.1125 23.8841L37.8548 22.9021L36.1125 23.8842C36.6833 24.8969 37.6664 25.6111 38.8059 25.8411L46.4698 27.3874L41.1785 33.1432C40.3918 33.999 40.0162 35.1547 40.1497 36.3095L41.0473 44.0762L33.9382 40.8225C32.8811 40.3387 31.6659 40.3387 30.6089 40.8225L23.4997 44.0762L24.3973 36.3095C24.5308 35.1547 24.1553 33.999 23.3685 33.1432L18.0772 27.3874L25.7411 25.8411C26.8806 25.6111 27.8638 24.8969 28.4346 23.8841L32.2735 17.0732Z" stroke="#2E2E33" stroke-width="4"/>
</svg>
